%TF.GenerationSoftware,KiCad,Pcbnew,9.0.2*%
%TF.CreationDate,2025-07-20T12:07:01-04:00*%
%TF.ProjectId,Glasses_V0.1,476c6173-7365-4735-9f56-302e312e6b69,rev?*%
%TF.SameCoordinates,Original*%
%TF.FileFunction,Legend,Top*%
%TF.FilePolarity,Positive*%
%FSLAX46Y46*%
G04 Gerber Fmt 4.6, Leading zero omitted, Abs format (unit mm)*
G04 Created by KiCad (PCBNEW 9.0.2) date 2025-07-20 12:07:01*
%MOMM*%
%LPD*%
G01*
G04 APERTURE LIST*
%ADD10C,0.150000*%
%ADD11C,0.098425*%
%ADD12C,0.080000*%
%ADD13C,0.080211*%
%ADD14C,0.127000*%
%ADD15C,0.200000*%
%ADD16C,0.240000*%
%ADD17C,0.100000*%
G04 APERTURE END LIST*
D10*
X38259380Y-48306876D02*
X38259380Y-48824971D01*
X38259380Y-48824971D02*
X38289857Y-48885923D01*
X38289857Y-48885923D02*
X38320333Y-48916400D01*
X38320333Y-48916400D02*
X38381285Y-48946876D01*
X38381285Y-48946876D02*
X38503190Y-48946876D01*
X38503190Y-48946876D02*
X38564142Y-48916400D01*
X38564142Y-48916400D02*
X38594619Y-48885923D01*
X38594619Y-48885923D02*
X38625095Y-48824971D01*
X38625095Y-48824971D02*
X38625095Y-48306876D01*
X39265095Y-48946876D02*
X38899380Y-48946876D01*
X39082237Y-48946876D02*
X39082237Y-48306876D01*
X39082237Y-48306876D02*
X39021285Y-48398304D01*
X39021285Y-48398304D02*
X38960333Y-48459257D01*
X38960333Y-48459257D02*
X38899380Y-48489733D01*
D11*
X44384383Y-92849519D02*
X44365635Y-92868267D01*
X44365635Y-92868267D02*
X44309392Y-92887014D01*
X44309392Y-92887014D02*
X44271897Y-92887014D01*
X44271897Y-92887014D02*
X44215654Y-92868267D01*
X44215654Y-92868267D02*
X44178159Y-92830771D01*
X44178159Y-92830771D02*
X44159411Y-92793276D01*
X44159411Y-92793276D02*
X44140663Y-92718285D01*
X44140663Y-92718285D02*
X44140663Y-92662042D01*
X44140663Y-92662042D02*
X44159411Y-92587052D01*
X44159411Y-92587052D02*
X44178159Y-92549556D01*
X44178159Y-92549556D02*
X44215654Y-92512061D01*
X44215654Y-92512061D02*
X44271897Y-92493313D01*
X44271897Y-92493313D02*
X44309392Y-92493313D01*
X44309392Y-92493313D02*
X44365635Y-92512061D01*
X44365635Y-92512061D02*
X44384383Y-92530809D01*
X44609355Y-92662042D02*
X44571860Y-92643295D01*
X44571860Y-92643295D02*
X44553112Y-92624547D01*
X44553112Y-92624547D02*
X44534364Y-92587052D01*
X44534364Y-92587052D02*
X44534364Y-92568304D01*
X44534364Y-92568304D02*
X44553112Y-92530809D01*
X44553112Y-92530809D02*
X44571860Y-92512061D01*
X44571860Y-92512061D02*
X44609355Y-92493313D01*
X44609355Y-92493313D02*
X44684346Y-92493313D01*
X44684346Y-92493313D02*
X44721841Y-92512061D01*
X44721841Y-92512061D02*
X44740589Y-92530809D01*
X44740589Y-92530809D02*
X44759336Y-92568304D01*
X44759336Y-92568304D02*
X44759336Y-92587052D01*
X44759336Y-92587052D02*
X44740589Y-92624547D01*
X44740589Y-92624547D02*
X44721841Y-92643295D01*
X44721841Y-92643295D02*
X44684346Y-92662042D01*
X44684346Y-92662042D02*
X44609355Y-92662042D01*
X44609355Y-92662042D02*
X44571860Y-92680790D01*
X44571860Y-92680790D02*
X44553112Y-92699538D01*
X44553112Y-92699538D02*
X44534364Y-92737033D01*
X44534364Y-92737033D02*
X44534364Y-92812024D01*
X44534364Y-92812024D02*
X44553112Y-92849519D01*
X44553112Y-92849519D02*
X44571860Y-92868267D01*
X44571860Y-92868267D02*
X44609355Y-92887014D01*
X44609355Y-92887014D02*
X44684346Y-92887014D01*
X44684346Y-92887014D02*
X44721841Y-92868267D01*
X44721841Y-92868267D02*
X44740589Y-92849519D01*
X44740589Y-92849519D02*
X44759336Y-92812024D01*
X44759336Y-92812024D02*
X44759336Y-92737033D01*
X44759336Y-92737033D02*
X44740589Y-92699538D01*
X44740589Y-92699538D02*
X44721841Y-92680790D01*
X44721841Y-92680790D02*
X44684346Y-92662042D01*
X54334383Y-80946014D02*
X54203149Y-80758538D01*
X54109411Y-80946014D02*
X54109411Y-80552313D01*
X54109411Y-80552313D02*
X54259392Y-80552313D01*
X54259392Y-80552313D02*
X54296888Y-80571061D01*
X54296888Y-80571061D02*
X54315635Y-80589809D01*
X54315635Y-80589809D02*
X54334383Y-80627304D01*
X54334383Y-80627304D02*
X54334383Y-80683547D01*
X54334383Y-80683547D02*
X54315635Y-80721042D01*
X54315635Y-80721042D02*
X54296888Y-80739790D01*
X54296888Y-80739790D02*
X54259392Y-80758538D01*
X54259392Y-80758538D02*
X54109411Y-80758538D01*
X54690589Y-80552313D02*
X54503112Y-80552313D01*
X54503112Y-80552313D02*
X54484364Y-80739790D01*
X54484364Y-80739790D02*
X54503112Y-80721042D01*
X54503112Y-80721042D02*
X54540607Y-80702295D01*
X54540607Y-80702295D02*
X54634346Y-80702295D01*
X54634346Y-80702295D02*
X54671841Y-80721042D01*
X54671841Y-80721042D02*
X54690589Y-80739790D01*
X54690589Y-80739790D02*
X54709336Y-80777285D01*
X54709336Y-80777285D02*
X54709336Y-80871024D01*
X54709336Y-80871024D02*
X54690589Y-80908519D01*
X54690589Y-80908519D02*
X54671841Y-80927267D01*
X54671841Y-80927267D02*
X54634346Y-80946014D01*
X54634346Y-80946014D02*
X54540607Y-80946014D01*
X54540607Y-80946014D02*
X54503112Y-80927267D01*
X54503112Y-80927267D02*
X54484364Y-80908519D01*
D12*
X34211666Y-58620201D02*
X34196428Y-58635440D01*
X34196428Y-58635440D02*
X34150714Y-58650678D01*
X34150714Y-58650678D02*
X34120238Y-58650678D01*
X34120238Y-58650678D02*
X34074523Y-58635440D01*
X34074523Y-58635440D02*
X34044047Y-58604963D01*
X34044047Y-58604963D02*
X34028809Y-58574487D01*
X34028809Y-58574487D02*
X34013571Y-58513535D01*
X34013571Y-58513535D02*
X34013571Y-58467820D01*
X34013571Y-58467820D02*
X34028809Y-58406868D01*
X34028809Y-58406868D02*
X34044047Y-58376392D01*
X34044047Y-58376392D02*
X34074523Y-58345916D01*
X34074523Y-58345916D02*
X34120238Y-58330678D01*
X34120238Y-58330678D02*
X34150714Y-58330678D01*
X34150714Y-58330678D02*
X34196428Y-58345916D01*
X34196428Y-58345916D02*
X34211666Y-58361154D01*
X34333571Y-58361154D02*
X34348809Y-58345916D01*
X34348809Y-58345916D02*
X34379285Y-58330678D01*
X34379285Y-58330678D02*
X34455476Y-58330678D01*
X34455476Y-58330678D02*
X34485952Y-58345916D01*
X34485952Y-58345916D02*
X34501190Y-58361154D01*
X34501190Y-58361154D02*
X34516428Y-58391630D01*
X34516428Y-58391630D02*
X34516428Y-58422106D01*
X34516428Y-58422106D02*
X34501190Y-58467820D01*
X34501190Y-58467820D02*
X34318333Y-58650678D01*
X34318333Y-58650678D02*
X34516428Y-58650678D01*
D10*
X42065333Y-43751876D02*
X41851999Y-43447114D01*
X41699618Y-43751876D02*
X41699618Y-43111876D01*
X41699618Y-43111876D02*
X41943428Y-43111876D01*
X41943428Y-43111876D02*
X42004380Y-43142352D01*
X42004380Y-43142352D02*
X42034857Y-43172828D01*
X42034857Y-43172828D02*
X42065333Y-43233780D01*
X42065333Y-43233780D02*
X42065333Y-43325209D01*
X42065333Y-43325209D02*
X42034857Y-43386161D01*
X42034857Y-43386161D02*
X42004380Y-43416638D01*
X42004380Y-43416638D02*
X41943428Y-43447114D01*
X41943428Y-43447114D02*
X41699618Y-43447114D01*
X42278666Y-43111876D02*
X42674857Y-43111876D01*
X42674857Y-43111876D02*
X42461523Y-43355685D01*
X42461523Y-43355685D02*
X42552952Y-43355685D01*
X42552952Y-43355685D02*
X42613904Y-43386161D01*
X42613904Y-43386161D02*
X42644380Y-43416638D01*
X42644380Y-43416638D02*
X42674857Y-43477590D01*
X42674857Y-43477590D02*
X42674857Y-43629971D01*
X42674857Y-43629971D02*
X42644380Y-43690923D01*
X42644380Y-43690923D02*
X42613904Y-43721400D01*
X42613904Y-43721400D02*
X42552952Y-43751876D01*
X42552952Y-43751876D02*
X42370095Y-43751876D01*
X42370095Y-43751876D02*
X42309142Y-43721400D01*
X42309142Y-43721400D02*
X42278666Y-43690923D01*
D11*
X39547014Y-92140616D02*
X39547014Y-92328092D01*
X39547014Y-92328092D02*
X39153313Y-92328092D01*
X39547014Y-91803158D02*
X39547014Y-92028130D01*
X39547014Y-91915644D02*
X39153313Y-91915644D01*
X39153313Y-91915644D02*
X39209556Y-91953139D01*
X39209556Y-91953139D02*
X39247052Y-91990635D01*
X39247052Y-91990635D02*
X39265799Y-92028130D01*
X43749383Y-82727014D02*
X43618149Y-82539538D01*
X43524411Y-82727014D02*
X43524411Y-82333313D01*
X43524411Y-82333313D02*
X43674392Y-82333313D01*
X43674392Y-82333313D02*
X43711888Y-82352061D01*
X43711888Y-82352061D02*
X43730635Y-82370809D01*
X43730635Y-82370809D02*
X43749383Y-82408304D01*
X43749383Y-82408304D02*
X43749383Y-82464547D01*
X43749383Y-82464547D02*
X43730635Y-82502042D01*
X43730635Y-82502042D02*
X43711888Y-82520790D01*
X43711888Y-82520790D02*
X43674392Y-82539538D01*
X43674392Y-82539538D02*
X43524411Y-82539538D01*
X43880617Y-82333313D02*
X44143084Y-82333313D01*
X44143084Y-82333313D02*
X43974355Y-82727014D01*
D10*
X41806905Y-81099819D02*
X41806905Y-80099819D01*
X41806905Y-80099819D02*
X42045000Y-80099819D01*
X42045000Y-80099819D02*
X42187857Y-80147438D01*
X42187857Y-80147438D02*
X42283095Y-80242676D01*
X42283095Y-80242676D02*
X42330714Y-80337914D01*
X42330714Y-80337914D02*
X42378333Y-80528390D01*
X42378333Y-80528390D02*
X42378333Y-80671247D01*
X42378333Y-80671247D02*
X42330714Y-80861723D01*
X42330714Y-80861723D02*
X42283095Y-80956961D01*
X42283095Y-80956961D02*
X42187857Y-81052200D01*
X42187857Y-81052200D02*
X42045000Y-81099819D01*
X42045000Y-81099819D02*
X41806905Y-81099819D01*
X42759286Y-80195057D02*
X42806905Y-80147438D01*
X42806905Y-80147438D02*
X42902143Y-80099819D01*
X42902143Y-80099819D02*
X43140238Y-80099819D01*
X43140238Y-80099819D02*
X43235476Y-80147438D01*
X43235476Y-80147438D02*
X43283095Y-80195057D01*
X43283095Y-80195057D02*
X43330714Y-80290295D01*
X43330714Y-80290295D02*
X43330714Y-80385533D01*
X43330714Y-80385533D02*
X43283095Y-80528390D01*
X43283095Y-80528390D02*
X42711667Y-81099819D01*
X42711667Y-81099819D02*
X43330714Y-81099819D01*
D12*
X53871666Y-83469201D02*
X53856428Y-83484440D01*
X53856428Y-83484440D02*
X53810714Y-83499678D01*
X53810714Y-83499678D02*
X53780238Y-83499678D01*
X53780238Y-83499678D02*
X53734523Y-83484440D01*
X53734523Y-83484440D02*
X53704047Y-83453963D01*
X53704047Y-83453963D02*
X53688809Y-83423487D01*
X53688809Y-83423487D02*
X53673571Y-83362535D01*
X53673571Y-83362535D02*
X53673571Y-83316820D01*
X53673571Y-83316820D02*
X53688809Y-83255868D01*
X53688809Y-83255868D02*
X53704047Y-83225392D01*
X53704047Y-83225392D02*
X53734523Y-83194916D01*
X53734523Y-83194916D02*
X53780238Y-83179678D01*
X53780238Y-83179678D02*
X53810714Y-83179678D01*
X53810714Y-83179678D02*
X53856428Y-83194916D01*
X53856428Y-83194916D02*
X53871666Y-83210154D01*
X54145952Y-83179678D02*
X54084999Y-83179678D01*
X54084999Y-83179678D02*
X54054523Y-83194916D01*
X54054523Y-83194916D02*
X54039285Y-83210154D01*
X54039285Y-83210154D02*
X54008809Y-83255868D01*
X54008809Y-83255868D02*
X53993571Y-83316820D01*
X53993571Y-83316820D02*
X53993571Y-83438725D01*
X53993571Y-83438725D02*
X54008809Y-83469201D01*
X54008809Y-83469201D02*
X54024047Y-83484440D01*
X54024047Y-83484440D02*
X54054523Y-83499678D01*
X54054523Y-83499678D02*
X54115476Y-83499678D01*
X54115476Y-83499678D02*
X54145952Y-83484440D01*
X54145952Y-83484440D02*
X54161190Y-83469201D01*
X54161190Y-83469201D02*
X54176428Y-83438725D01*
X54176428Y-83438725D02*
X54176428Y-83362535D01*
X54176428Y-83362535D02*
X54161190Y-83332059D01*
X54161190Y-83332059D02*
X54145952Y-83316820D01*
X54145952Y-83316820D02*
X54115476Y-83301582D01*
X54115476Y-83301582D02*
X54054523Y-83301582D01*
X54054523Y-83301582D02*
X54024047Y-83316820D01*
X54024047Y-83316820D02*
X54008809Y-83332059D01*
X54008809Y-83332059D02*
X53993571Y-83362535D01*
D10*
X61770866Y-42626666D02*
X62904200Y-42626666D01*
X62904200Y-42626666D02*
X63037533Y-42560000D01*
X63037533Y-42560000D02*
X63104200Y-42493333D01*
X63104200Y-42493333D02*
X63170866Y-42360000D01*
X63170866Y-42360000D02*
X63170866Y-42093333D01*
X63170866Y-42093333D02*
X63104200Y-41960000D01*
X63104200Y-41960000D02*
X63037533Y-41893333D01*
X63037533Y-41893333D02*
X62904200Y-41826666D01*
X62904200Y-41826666D02*
X61770866Y-41826666D01*
X62237533Y-40559999D02*
X63170866Y-40559999D01*
X61704200Y-40893333D02*
X62704200Y-41226666D01*
X62704200Y-41226666D02*
X62704200Y-40359999D01*
D11*
X44589519Y-86264616D02*
X44608267Y-86283364D01*
X44608267Y-86283364D02*
X44627014Y-86339607D01*
X44627014Y-86339607D02*
X44627014Y-86377102D01*
X44627014Y-86377102D02*
X44608267Y-86433345D01*
X44608267Y-86433345D02*
X44570771Y-86470841D01*
X44570771Y-86470841D02*
X44533276Y-86489588D01*
X44533276Y-86489588D02*
X44458285Y-86508336D01*
X44458285Y-86508336D02*
X44402042Y-86508336D01*
X44402042Y-86508336D02*
X44327052Y-86489588D01*
X44327052Y-86489588D02*
X44289556Y-86470841D01*
X44289556Y-86470841D02*
X44252061Y-86433345D01*
X44252061Y-86433345D02*
X44233313Y-86377102D01*
X44233313Y-86377102D02*
X44233313Y-86339607D01*
X44233313Y-86339607D02*
X44252061Y-86283364D01*
X44252061Y-86283364D02*
X44270809Y-86264616D01*
X44233313Y-86133383D02*
X44233313Y-85870915D01*
X44233313Y-85870915D02*
X44627014Y-86039644D01*
D10*
X37106666Y-117789819D02*
X37106666Y-118504104D01*
X37106666Y-118504104D02*
X37059047Y-118646961D01*
X37059047Y-118646961D02*
X36963809Y-118742200D01*
X36963809Y-118742200D02*
X36820952Y-118789819D01*
X36820952Y-118789819D02*
X36725714Y-118789819D01*
X38106666Y-118789819D02*
X37535238Y-118789819D01*
X37820952Y-118789819D02*
X37820952Y-117789819D01*
X37820952Y-117789819D02*
X37725714Y-117932676D01*
X37725714Y-117932676D02*
X37630476Y-118027914D01*
X37630476Y-118027914D02*
X37535238Y-118075533D01*
D12*
X34211666Y-62430201D02*
X34196428Y-62445440D01*
X34196428Y-62445440D02*
X34150714Y-62460678D01*
X34150714Y-62460678D02*
X34120238Y-62460678D01*
X34120238Y-62460678D02*
X34074523Y-62445440D01*
X34074523Y-62445440D02*
X34044047Y-62414963D01*
X34044047Y-62414963D02*
X34028809Y-62384487D01*
X34028809Y-62384487D02*
X34013571Y-62323535D01*
X34013571Y-62323535D02*
X34013571Y-62277820D01*
X34013571Y-62277820D02*
X34028809Y-62216868D01*
X34028809Y-62216868D02*
X34044047Y-62186392D01*
X34044047Y-62186392D02*
X34074523Y-62155916D01*
X34074523Y-62155916D02*
X34120238Y-62140678D01*
X34120238Y-62140678D02*
X34150714Y-62140678D01*
X34150714Y-62140678D02*
X34196428Y-62155916D01*
X34196428Y-62155916D02*
X34211666Y-62171154D01*
X34485952Y-62247344D02*
X34485952Y-62460678D01*
X34409761Y-62125440D02*
X34333571Y-62354011D01*
X34333571Y-62354011D02*
X34531666Y-62354011D01*
D10*
X48356095Y-42069200D02*
X48498952Y-42116819D01*
X48498952Y-42116819D02*
X48737047Y-42116819D01*
X48737047Y-42116819D02*
X48832285Y-42069200D01*
X48832285Y-42069200D02*
X48879904Y-42021580D01*
X48879904Y-42021580D02*
X48927523Y-41926342D01*
X48927523Y-41926342D02*
X48927523Y-41831104D01*
X48927523Y-41831104D02*
X48879904Y-41735866D01*
X48879904Y-41735866D02*
X48832285Y-41688247D01*
X48832285Y-41688247D02*
X48737047Y-41640628D01*
X48737047Y-41640628D02*
X48546571Y-41593009D01*
X48546571Y-41593009D02*
X48451333Y-41545390D01*
X48451333Y-41545390D02*
X48403714Y-41497771D01*
X48403714Y-41497771D02*
X48356095Y-41402533D01*
X48356095Y-41402533D02*
X48356095Y-41307295D01*
X48356095Y-41307295D02*
X48403714Y-41212057D01*
X48403714Y-41212057D02*
X48451333Y-41164438D01*
X48451333Y-41164438D02*
X48546571Y-41116819D01*
X48546571Y-41116819D02*
X48784666Y-41116819D01*
X48784666Y-41116819D02*
X48927523Y-41164438D01*
X49879904Y-42116819D02*
X49308476Y-42116819D01*
X49594190Y-42116819D02*
X49594190Y-41116819D01*
X49594190Y-41116819D02*
X49498952Y-41259676D01*
X49498952Y-41259676D02*
X49403714Y-41354914D01*
X49403714Y-41354914D02*
X49308476Y-41402533D01*
D12*
X38761428Y-85233878D02*
X38578571Y-85233878D01*
X38669999Y-85233878D02*
X38669999Y-84913878D01*
X38669999Y-84913878D02*
X38639523Y-84959592D01*
X38639523Y-84959592D02*
X38609047Y-84990068D01*
X38609047Y-84990068D02*
X38578571Y-85005306D01*
X39035714Y-85020544D02*
X39035714Y-85233878D01*
X38898571Y-85020544D02*
X38898571Y-85188163D01*
X38898571Y-85188163D02*
X38913809Y-85218640D01*
X38913809Y-85218640D02*
X38944285Y-85233878D01*
X38944285Y-85233878D02*
X38990000Y-85233878D01*
X38990000Y-85233878D02*
X39020476Y-85218640D01*
X39020476Y-85218640D02*
X39035714Y-85203401D01*
X39370952Y-85203401D02*
X39355714Y-85218640D01*
X39355714Y-85218640D02*
X39310000Y-85233878D01*
X39310000Y-85233878D02*
X39279524Y-85233878D01*
X39279524Y-85233878D02*
X39233809Y-85218640D01*
X39233809Y-85218640D02*
X39203333Y-85188163D01*
X39203333Y-85188163D02*
X39188095Y-85157687D01*
X39188095Y-85157687D02*
X39172857Y-85096735D01*
X39172857Y-85096735D02*
X39172857Y-85051020D01*
X39172857Y-85051020D02*
X39188095Y-84990068D01*
X39188095Y-84990068D02*
X39203333Y-84959592D01*
X39203333Y-84959592D02*
X39233809Y-84929116D01*
X39233809Y-84929116D02*
X39279524Y-84913878D01*
X39279524Y-84913878D02*
X39310000Y-84913878D01*
X39310000Y-84913878D02*
X39355714Y-84929116D01*
X39355714Y-84929116D02*
X39370952Y-84944354D01*
X39645238Y-85233878D02*
X39645238Y-85066259D01*
X39645238Y-85066259D02*
X39630000Y-85035782D01*
X39630000Y-85035782D02*
X39599524Y-85020544D01*
X39599524Y-85020544D02*
X39538571Y-85020544D01*
X39538571Y-85020544D02*
X39508095Y-85035782D01*
X39645238Y-85218640D02*
X39614762Y-85233878D01*
X39614762Y-85233878D02*
X39538571Y-85233878D01*
X39538571Y-85233878D02*
X39508095Y-85218640D01*
X39508095Y-85218640D02*
X39492857Y-85188163D01*
X39492857Y-85188163D02*
X39492857Y-85157687D01*
X39492857Y-85157687D02*
X39508095Y-85127211D01*
X39508095Y-85127211D02*
X39538571Y-85111973D01*
X39538571Y-85111973D02*
X39614762Y-85111973D01*
X39614762Y-85111973D02*
X39645238Y-85096735D01*
X39797619Y-85020544D02*
X39797619Y-85340544D01*
X39797619Y-85035782D02*
X39828095Y-85020544D01*
X39828095Y-85020544D02*
X39889048Y-85020544D01*
X39889048Y-85020544D02*
X39919524Y-85035782D01*
X39919524Y-85035782D02*
X39934762Y-85051020D01*
X39934762Y-85051020D02*
X39950000Y-85081497D01*
X39950000Y-85081497D02*
X39950000Y-85172925D01*
X39950000Y-85172925D02*
X39934762Y-85203401D01*
X39934762Y-85203401D02*
X39919524Y-85218640D01*
X39919524Y-85218640D02*
X39889048Y-85233878D01*
X39889048Y-85233878D02*
X39828095Y-85233878D01*
X39828095Y-85233878D02*
X39797619Y-85218640D01*
X40224286Y-85233878D02*
X40224286Y-85066259D01*
X40224286Y-85066259D02*
X40209048Y-85035782D01*
X40209048Y-85035782D02*
X40178572Y-85020544D01*
X40178572Y-85020544D02*
X40117619Y-85020544D01*
X40117619Y-85020544D02*
X40087143Y-85035782D01*
X40224286Y-85218640D02*
X40193810Y-85233878D01*
X40193810Y-85233878D02*
X40117619Y-85233878D01*
X40117619Y-85233878D02*
X40087143Y-85218640D01*
X40087143Y-85218640D02*
X40071905Y-85188163D01*
X40071905Y-85188163D02*
X40071905Y-85157687D01*
X40071905Y-85157687D02*
X40087143Y-85127211D01*
X40087143Y-85127211D02*
X40117619Y-85111973D01*
X40117619Y-85111973D02*
X40193810Y-85111973D01*
X40193810Y-85111973D02*
X40224286Y-85096735D01*
X40513810Y-85218640D02*
X40483334Y-85233878D01*
X40483334Y-85233878D02*
X40422381Y-85233878D01*
X40422381Y-85233878D02*
X40391905Y-85218640D01*
X40391905Y-85218640D02*
X40376667Y-85203401D01*
X40376667Y-85203401D02*
X40361429Y-85172925D01*
X40361429Y-85172925D02*
X40361429Y-85081497D01*
X40361429Y-85081497D02*
X40376667Y-85051020D01*
X40376667Y-85051020D02*
X40391905Y-85035782D01*
X40391905Y-85035782D02*
X40422381Y-85020544D01*
X40422381Y-85020544D02*
X40483334Y-85020544D01*
X40483334Y-85020544D02*
X40513810Y-85035782D01*
X40650953Y-85233878D02*
X40650953Y-85020544D01*
X40650953Y-84913878D02*
X40635715Y-84929116D01*
X40635715Y-84929116D02*
X40650953Y-84944354D01*
X40650953Y-84944354D02*
X40666191Y-84929116D01*
X40666191Y-84929116D02*
X40650953Y-84913878D01*
X40650953Y-84913878D02*
X40650953Y-84944354D01*
X40757620Y-85020544D02*
X40879524Y-85020544D01*
X40803334Y-84913878D02*
X40803334Y-85188163D01*
X40803334Y-85188163D02*
X40818572Y-85218640D01*
X40818572Y-85218640D02*
X40849048Y-85233878D01*
X40849048Y-85233878D02*
X40879524Y-85233878D01*
X41031905Y-85233878D02*
X41001429Y-85218640D01*
X41001429Y-85218640D02*
X40986191Y-85203401D01*
X40986191Y-85203401D02*
X40970953Y-85172925D01*
X40970953Y-85172925D02*
X40970953Y-85081497D01*
X40970953Y-85081497D02*
X40986191Y-85051020D01*
X40986191Y-85051020D02*
X41001429Y-85035782D01*
X41001429Y-85035782D02*
X41031905Y-85020544D01*
X41031905Y-85020544D02*
X41077620Y-85020544D01*
X41077620Y-85020544D02*
X41108096Y-85035782D01*
X41108096Y-85035782D02*
X41123334Y-85051020D01*
X41123334Y-85051020D02*
X41138572Y-85081497D01*
X41138572Y-85081497D02*
X41138572Y-85172925D01*
X41138572Y-85172925D02*
X41123334Y-85203401D01*
X41123334Y-85203401D02*
X41108096Y-85218640D01*
X41108096Y-85218640D02*
X41077620Y-85233878D01*
X41077620Y-85233878D02*
X41031905Y-85233878D01*
X41275715Y-85233878D02*
X41275715Y-85020544D01*
X41275715Y-85081497D02*
X41290953Y-85051020D01*
X41290953Y-85051020D02*
X41306191Y-85035782D01*
X41306191Y-85035782D02*
X41336667Y-85020544D01*
X41336667Y-85020544D02*
X41367144Y-85020544D01*
X41641429Y-85233878D02*
X41458572Y-85233878D01*
X41550000Y-85233878D02*
X41550000Y-84913878D01*
X41550000Y-84913878D02*
X41519524Y-84959592D01*
X41519524Y-84959592D02*
X41489048Y-84990068D01*
X41489048Y-84990068D02*
X41458572Y-85005306D01*
X34211666Y-60525201D02*
X34196428Y-60540440D01*
X34196428Y-60540440D02*
X34150714Y-60555678D01*
X34150714Y-60555678D02*
X34120238Y-60555678D01*
X34120238Y-60555678D02*
X34074523Y-60540440D01*
X34074523Y-60540440D02*
X34044047Y-60509963D01*
X34044047Y-60509963D02*
X34028809Y-60479487D01*
X34028809Y-60479487D02*
X34013571Y-60418535D01*
X34013571Y-60418535D02*
X34013571Y-60372820D01*
X34013571Y-60372820D02*
X34028809Y-60311868D01*
X34028809Y-60311868D02*
X34044047Y-60281392D01*
X34044047Y-60281392D02*
X34074523Y-60250916D01*
X34074523Y-60250916D02*
X34120238Y-60235678D01*
X34120238Y-60235678D02*
X34150714Y-60235678D01*
X34150714Y-60235678D02*
X34196428Y-60250916D01*
X34196428Y-60250916D02*
X34211666Y-60266154D01*
X34318333Y-60235678D02*
X34516428Y-60235678D01*
X34516428Y-60235678D02*
X34409761Y-60357582D01*
X34409761Y-60357582D02*
X34455476Y-60357582D01*
X34455476Y-60357582D02*
X34485952Y-60372820D01*
X34485952Y-60372820D02*
X34501190Y-60388059D01*
X34501190Y-60388059D02*
X34516428Y-60418535D01*
X34516428Y-60418535D02*
X34516428Y-60494725D01*
X34516428Y-60494725D02*
X34501190Y-60525201D01*
X34501190Y-60525201D02*
X34485952Y-60540440D01*
X34485952Y-60540440D02*
X34455476Y-60555678D01*
X34455476Y-60555678D02*
X34364047Y-60555678D01*
X34364047Y-60555678D02*
X34333571Y-60540440D01*
X34333571Y-60540440D02*
X34318333Y-60525201D01*
D13*
X50044971Y-80339122D02*
X50044971Y-80018280D01*
X50044971Y-80018280D02*
X50151919Y-80247453D01*
X50151919Y-80247453D02*
X50258866Y-80018280D01*
X50258866Y-80018280D02*
X50258866Y-80339122D01*
X50411648Y-80339122D02*
X50411648Y-80018280D01*
X50594987Y-80339122D02*
X50457483Y-80155783D01*
X50594987Y-80018280D02*
X50411648Y-80201618D01*
X50900551Y-80339122D02*
X50717212Y-80339122D01*
X50808881Y-80339122D02*
X50808881Y-80018280D01*
X50808881Y-80018280D02*
X50778325Y-80064114D01*
X50778325Y-80064114D02*
X50747769Y-80094671D01*
X50747769Y-80094671D02*
X50717212Y-80109949D01*
D10*
X49522142Y-107134819D02*
X49045952Y-107134819D01*
X49045952Y-107134819D02*
X49045952Y-106134819D01*
X49807857Y-107087200D02*
X49950714Y-107134819D01*
X49950714Y-107134819D02*
X50188809Y-107134819D01*
X50188809Y-107134819D02*
X50284047Y-107087200D01*
X50284047Y-107087200D02*
X50331666Y-107039580D01*
X50331666Y-107039580D02*
X50379285Y-106944342D01*
X50379285Y-106944342D02*
X50379285Y-106849104D01*
X50379285Y-106849104D02*
X50331666Y-106753866D01*
X50331666Y-106753866D02*
X50284047Y-106706247D01*
X50284047Y-106706247D02*
X50188809Y-106658628D01*
X50188809Y-106658628D02*
X49998333Y-106611009D01*
X49998333Y-106611009D02*
X49903095Y-106563390D01*
X49903095Y-106563390D02*
X49855476Y-106515771D01*
X49855476Y-106515771D02*
X49807857Y-106420533D01*
X49807857Y-106420533D02*
X49807857Y-106325295D01*
X49807857Y-106325295D02*
X49855476Y-106230057D01*
X49855476Y-106230057D02*
X49903095Y-106182438D01*
X49903095Y-106182438D02*
X49998333Y-106134819D01*
X49998333Y-106134819D02*
X50236428Y-106134819D01*
X50236428Y-106134819D02*
X50379285Y-106182438D01*
X51331666Y-107134819D02*
X50760238Y-107134819D01*
X51045952Y-107134819D02*
X51045952Y-106134819D01*
X51045952Y-106134819D02*
X50950714Y-106277676D01*
X50950714Y-106277676D02*
X50855476Y-106372914D01*
X50855476Y-106372914D02*
X50760238Y-106420533D01*
D12*
X34211666Y-64335201D02*
X34196428Y-64350440D01*
X34196428Y-64350440D02*
X34150714Y-64365678D01*
X34150714Y-64365678D02*
X34120238Y-64365678D01*
X34120238Y-64365678D02*
X34074523Y-64350440D01*
X34074523Y-64350440D02*
X34044047Y-64319963D01*
X34044047Y-64319963D02*
X34028809Y-64289487D01*
X34028809Y-64289487D02*
X34013571Y-64228535D01*
X34013571Y-64228535D02*
X34013571Y-64182820D01*
X34013571Y-64182820D02*
X34028809Y-64121868D01*
X34028809Y-64121868D02*
X34044047Y-64091392D01*
X34044047Y-64091392D02*
X34074523Y-64060916D01*
X34074523Y-64060916D02*
X34120238Y-64045678D01*
X34120238Y-64045678D02*
X34150714Y-64045678D01*
X34150714Y-64045678D02*
X34196428Y-64060916D01*
X34196428Y-64060916D02*
X34211666Y-64076154D01*
X34501190Y-64045678D02*
X34348809Y-64045678D01*
X34348809Y-64045678D02*
X34333571Y-64198059D01*
X34333571Y-64198059D02*
X34348809Y-64182820D01*
X34348809Y-64182820D02*
X34379285Y-64167582D01*
X34379285Y-64167582D02*
X34455476Y-64167582D01*
X34455476Y-64167582D02*
X34485952Y-64182820D01*
X34485952Y-64182820D02*
X34501190Y-64198059D01*
X34501190Y-64198059D02*
X34516428Y-64228535D01*
X34516428Y-64228535D02*
X34516428Y-64304725D01*
X34516428Y-64304725D02*
X34501190Y-64335201D01*
X34501190Y-64335201D02*
X34485952Y-64350440D01*
X34485952Y-64350440D02*
X34455476Y-64365678D01*
X34455476Y-64365678D02*
X34379285Y-64365678D01*
X34379285Y-64365678D02*
X34348809Y-64350440D01*
X34348809Y-64350440D02*
X34333571Y-64335201D01*
D11*
X33906339Y-88490879D02*
X33681367Y-88490879D01*
X33793853Y-88490879D02*
X33793853Y-88097178D01*
X33793853Y-88097178D02*
X33756358Y-88153421D01*
X33756358Y-88153421D02*
X33718863Y-88190917D01*
X33718863Y-88190917D02*
X33681367Y-88209664D01*
X34150059Y-88097178D02*
X34187554Y-88097178D01*
X34187554Y-88097178D02*
X34225049Y-88115926D01*
X34225049Y-88115926D02*
X34243797Y-88134674D01*
X34243797Y-88134674D02*
X34262545Y-88172169D01*
X34262545Y-88172169D02*
X34281292Y-88247160D01*
X34281292Y-88247160D02*
X34281292Y-88340898D01*
X34281292Y-88340898D02*
X34262545Y-88415889D01*
X34262545Y-88415889D02*
X34243797Y-88453384D01*
X34243797Y-88453384D02*
X34225049Y-88472132D01*
X34225049Y-88472132D02*
X34187554Y-88490879D01*
X34187554Y-88490879D02*
X34150059Y-88490879D01*
X34150059Y-88490879D02*
X34112563Y-88472132D01*
X34112563Y-88472132D02*
X34093816Y-88453384D01*
X34093816Y-88453384D02*
X34075068Y-88415889D01*
X34075068Y-88415889D02*
X34056320Y-88340898D01*
X34056320Y-88340898D02*
X34056320Y-88247160D01*
X34056320Y-88247160D02*
X34075068Y-88172169D01*
X34075068Y-88172169D02*
X34093816Y-88134674D01*
X34093816Y-88134674D02*
X34112563Y-88115926D01*
X34112563Y-88115926D02*
X34150059Y-88097178D01*
X34618750Y-88228412D02*
X34618750Y-88490879D01*
X34450021Y-88228412D02*
X34450021Y-88434636D01*
X34450021Y-88434636D02*
X34468769Y-88472132D01*
X34468769Y-88472132D02*
X34506264Y-88490879D01*
X34506264Y-88490879D02*
X34562507Y-88490879D01*
X34562507Y-88490879D02*
X34600002Y-88472132D01*
X34600002Y-88472132D02*
X34618750Y-88453384D01*
X34974956Y-88472132D02*
X34937461Y-88490879D01*
X34937461Y-88490879D02*
X34862470Y-88490879D01*
X34862470Y-88490879D02*
X34824975Y-88472132D01*
X34824975Y-88472132D02*
X34806227Y-88453384D01*
X34806227Y-88453384D02*
X34787479Y-88415889D01*
X34787479Y-88415889D02*
X34787479Y-88303403D01*
X34787479Y-88303403D02*
X34806227Y-88265907D01*
X34806227Y-88265907D02*
X34824975Y-88247160D01*
X34824975Y-88247160D02*
X34862470Y-88228412D01*
X34862470Y-88228412D02*
X34937461Y-88228412D01*
X34937461Y-88228412D02*
X34974956Y-88247160D01*
X35312414Y-88490879D02*
X35312414Y-88284655D01*
X35312414Y-88284655D02*
X35293666Y-88247160D01*
X35293666Y-88247160D02*
X35256171Y-88228412D01*
X35256171Y-88228412D02*
X35181180Y-88228412D01*
X35181180Y-88228412D02*
X35143685Y-88247160D01*
X35312414Y-88472132D02*
X35274919Y-88490879D01*
X35274919Y-88490879D02*
X35181180Y-88490879D01*
X35181180Y-88490879D02*
X35143685Y-88472132D01*
X35143685Y-88472132D02*
X35124937Y-88434636D01*
X35124937Y-88434636D02*
X35124937Y-88397141D01*
X35124937Y-88397141D02*
X35143685Y-88359646D01*
X35143685Y-88359646D02*
X35181180Y-88340898D01*
X35181180Y-88340898D02*
X35274919Y-88340898D01*
X35274919Y-88340898D02*
X35312414Y-88322150D01*
X35499891Y-88228412D02*
X35499891Y-88622113D01*
X35499891Y-88247160D02*
X35537386Y-88228412D01*
X35537386Y-88228412D02*
X35612377Y-88228412D01*
X35612377Y-88228412D02*
X35649872Y-88247160D01*
X35649872Y-88247160D02*
X35668620Y-88265907D01*
X35668620Y-88265907D02*
X35687368Y-88303403D01*
X35687368Y-88303403D02*
X35687368Y-88415889D01*
X35687368Y-88415889D02*
X35668620Y-88453384D01*
X35668620Y-88453384D02*
X35649872Y-88472132D01*
X35649872Y-88472132D02*
X35612377Y-88490879D01*
X35612377Y-88490879D02*
X35537386Y-88490879D01*
X35537386Y-88490879D02*
X35499891Y-88472132D01*
X36024826Y-88490879D02*
X36024826Y-88284655D01*
X36024826Y-88284655D02*
X36006078Y-88247160D01*
X36006078Y-88247160D02*
X35968583Y-88228412D01*
X35968583Y-88228412D02*
X35893592Y-88228412D01*
X35893592Y-88228412D02*
X35856097Y-88247160D01*
X36024826Y-88472132D02*
X35987331Y-88490879D01*
X35987331Y-88490879D02*
X35893592Y-88490879D01*
X35893592Y-88490879D02*
X35856097Y-88472132D01*
X35856097Y-88472132D02*
X35837349Y-88434636D01*
X35837349Y-88434636D02*
X35837349Y-88397141D01*
X35837349Y-88397141D02*
X35856097Y-88359646D01*
X35856097Y-88359646D02*
X35893592Y-88340898D01*
X35893592Y-88340898D02*
X35987331Y-88340898D01*
X35987331Y-88340898D02*
X36024826Y-88322150D01*
X36212303Y-88490879D02*
X36212303Y-88228412D01*
X36212303Y-88097178D02*
X36193555Y-88115926D01*
X36193555Y-88115926D02*
X36212303Y-88134674D01*
X36212303Y-88134674D02*
X36231051Y-88115926D01*
X36231051Y-88115926D02*
X36212303Y-88097178D01*
X36212303Y-88097178D02*
X36212303Y-88134674D01*
X36343537Y-88228412D02*
X36493518Y-88228412D01*
X36399780Y-88097178D02*
X36399780Y-88434636D01*
X36399780Y-88434636D02*
X36418528Y-88472132D01*
X36418528Y-88472132D02*
X36456023Y-88490879D01*
X36456023Y-88490879D02*
X36493518Y-88490879D01*
X36680995Y-88490879D02*
X36643500Y-88472132D01*
X36643500Y-88472132D02*
X36624752Y-88453384D01*
X36624752Y-88453384D02*
X36606004Y-88415889D01*
X36606004Y-88415889D02*
X36606004Y-88303403D01*
X36606004Y-88303403D02*
X36624752Y-88265907D01*
X36624752Y-88265907D02*
X36643500Y-88247160D01*
X36643500Y-88247160D02*
X36680995Y-88228412D01*
X36680995Y-88228412D02*
X36737238Y-88228412D01*
X36737238Y-88228412D02*
X36774733Y-88247160D01*
X36774733Y-88247160D02*
X36793481Y-88265907D01*
X36793481Y-88265907D02*
X36812229Y-88303403D01*
X36812229Y-88303403D02*
X36812229Y-88415889D01*
X36812229Y-88415889D02*
X36793481Y-88453384D01*
X36793481Y-88453384D02*
X36774733Y-88472132D01*
X36774733Y-88472132D02*
X36737238Y-88490879D01*
X36737238Y-88490879D02*
X36680995Y-88490879D01*
X36980958Y-88490879D02*
X36980958Y-88228412D01*
X36980958Y-88303403D02*
X36999706Y-88265907D01*
X36999706Y-88265907D02*
X37018453Y-88247160D01*
X37018453Y-88247160D02*
X37055949Y-88228412D01*
X37055949Y-88228412D02*
X37093444Y-88228412D01*
X37430902Y-88490879D02*
X37205930Y-88490879D01*
X37318416Y-88490879D02*
X37318416Y-88097178D01*
X37318416Y-88097178D02*
X37280921Y-88153421D01*
X37280921Y-88153421D02*
X37243426Y-88190917D01*
X37243426Y-88190917D02*
X37205930Y-88209664D01*
D10*
X42535333Y-38301876D02*
X42321999Y-37997114D01*
X42169618Y-38301876D02*
X42169618Y-37661876D01*
X42169618Y-37661876D02*
X42413428Y-37661876D01*
X42413428Y-37661876D02*
X42474380Y-37692352D01*
X42474380Y-37692352D02*
X42504857Y-37722828D01*
X42504857Y-37722828D02*
X42535333Y-37783780D01*
X42535333Y-37783780D02*
X42535333Y-37875209D01*
X42535333Y-37875209D02*
X42504857Y-37936161D01*
X42504857Y-37936161D02*
X42474380Y-37966638D01*
X42474380Y-37966638D02*
X42413428Y-37997114D01*
X42413428Y-37997114D02*
X42169618Y-37997114D01*
X43144857Y-38301876D02*
X42779142Y-38301876D01*
X42961999Y-38301876D02*
X42961999Y-37661876D01*
X42961999Y-37661876D02*
X42901047Y-37753304D01*
X42901047Y-37753304D02*
X42840095Y-37814257D01*
X42840095Y-37814257D02*
X42779142Y-37844733D01*
X41414333Y-111961876D02*
X41200999Y-111657114D01*
X41048618Y-111961876D02*
X41048618Y-111321876D01*
X41048618Y-111321876D02*
X41292428Y-111321876D01*
X41292428Y-111321876D02*
X41353380Y-111352352D01*
X41353380Y-111352352D02*
X41383857Y-111382828D01*
X41383857Y-111382828D02*
X41414333Y-111443780D01*
X41414333Y-111443780D02*
X41414333Y-111535209D01*
X41414333Y-111535209D02*
X41383857Y-111596161D01*
X41383857Y-111596161D02*
X41353380Y-111626638D01*
X41353380Y-111626638D02*
X41292428Y-111657114D01*
X41292428Y-111657114D02*
X41048618Y-111657114D01*
X41658142Y-111382828D02*
X41688618Y-111352352D01*
X41688618Y-111352352D02*
X41749571Y-111321876D01*
X41749571Y-111321876D02*
X41901952Y-111321876D01*
X41901952Y-111321876D02*
X41962904Y-111352352D01*
X41962904Y-111352352D02*
X41993380Y-111382828D01*
X41993380Y-111382828D02*
X42023857Y-111443780D01*
X42023857Y-111443780D02*
X42023857Y-111504733D01*
X42023857Y-111504733D02*
X41993380Y-111596161D01*
X41993380Y-111596161D02*
X41627666Y-111961876D01*
X41627666Y-111961876D02*
X42023857Y-111961876D01*
X45745476Y-89732295D02*
X45745476Y-90379914D01*
X45745476Y-90379914D02*
X45783571Y-90456104D01*
X45783571Y-90456104D02*
X45821666Y-90494200D01*
X45821666Y-90494200D02*
X45897857Y-90532295D01*
X45897857Y-90532295D02*
X46050238Y-90532295D01*
X46050238Y-90532295D02*
X46126428Y-90494200D01*
X46126428Y-90494200D02*
X46164523Y-90456104D01*
X46164523Y-90456104D02*
X46202619Y-90379914D01*
X46202619Y-90379914D02*
X46202619Y-89732295D01*
X46964523Y-89732295D02*
X46583571Y-89732295D01*
X46583571Y-89732295D02*
X46545475Y-90113247D01*
X46545475Y-90113247D02*
X46583571Y-90075152D01*
X46583571Y-90075152D02*
X46659761Y-90037057D01*
X46659761Y-90037057D02*
X46850237Y-90037057D01*
X46850237Y-90037057D02*
X46926428Y-90075152D01*
X46926428Y-90075152D02*
X46964523Y-90113247D01*
X46964523Y-90113247D02*
X47002618Y-90189438D01*
X47002618Y-90189438D02*
X47002618Y-90379914D01*
X47002618Y-90379914D02*
X46964523Y-90456104D01*
X46964523Y-90456104D02*
X46926428Y-90494200D01*
X46926428Y-90494200D02*
X46850237Y-90532295D01*
X46850237Y-90532295D02*
X46659761Y-90532295D01*
X46659761Y-90532295D02*
X46583571Y-90494200D01*
X46583571Y-90494200D02*
X46545475Y-90456104D01*
X35674476Y-111354295D02*
X35674476Y-112001914D01*
X35674476Y-112001914D02*
X35712571Y-112078104D01*
X35712571Y-112078104D02*
X35750666Y-112116200D01*
X35750666Y-112116200D02*
X35826857Y-112154295D01*
X35826857Y-112154295D02*
X35979238Y-112154295D01*
X35979238Y-112154295D02*
X36055428Y-112116200D01*
X36055428Y-112116200D02*
X36093523Y-112078104D01*
X36093523Y-112078104D02*
X36131619Y-112001914D01*
X36131619Y-112001914D02*
X36131619Y-111354295D01*
X36474475Y-111430485D02*
X36512571Y-111392390D01*
X36512571Y-111392390D02*
X36588761Y-111354295D01*
X36588761Y-111354295D02*
X36779237Y-111354295D01*
X36779237Y-111354295D02*
X36855428Y-111392390D01*
X36855428Y-111392390D02*
X36893523Y-111430485D01*
X36893523Y-111430485D02*
X36931618Y-111506676D01*
X36931618Y-111506676D02*
X36931618Y-111582866D01*
X36931618Y-111582866D02*
X36893523Y-111697152D01*
X36893523Y-111697152D02*
X36436380Y-112154295D01*
X36436380Y-112154295D02*
X36931618Y-112154295D01*
D11*
X41048383Y-115879519D02*
X41029635Y-115898267D01*
X41029635Y-115898267D02*
X40973392Y-115917014D01*
X40973392Y-115917014D02*
X40935897Y-115917014D01*
X40935897Y-115917014D02*
X40879654Y-115898267D01*
X40879654Y-115898267D02*
X40842159Y-115860771D01*
X40842159Y-115860771D02*
X40823411Y-115823276D01*
X40823411Y-115823276D02*
X40804663Y-115748285D01*
X40804663Y-115748285D02*
X40804663Y-115692042D01*
X40804663Y-115692042D02*
X40823411Y-115617052D01*
X40823411Y-115617052D02*
X40842159Y-115579556D01*
X40842159Y-115579556D02*
X40879654Y-115542061D01*
X40879654Y-115542061D02*
X40935897Y-115523313D01*
X40935897Y-115523313D02*
X40973392Y-115523313D01*
X40973392Y-115523313D02*
X41029635Y-115542061D01*
X41029635Y-115542061D02*
X41048383Y-115560809D01*
X41423336Y-115917014D02*
X41198364Y-115917014D01*
X41310850Y-115917014D02*
X41310850Y-115523313D01*
X41310850Y-115523313D02*
X41273355Y-115579556D01*
X41273355Y-115579556D02*
X41235860Y-115617052D01*
X41235860Y-115617052D02*
X41198364Y-115635799D01*
D10*
X45545476Y-65744819D02*
X46212142Y-66744819D01*
X46212142Y-65744819D02*
X45545476Y-66744819D01*
X47116904Y-66744819D02*
X46545476Y-66744819D01*
X46831190Y-66744819D02*
X46831190Y-65744819D01*
X46831190Y-65744819D02*
X46735952Y-65887676D01*
X46735952Y-65887676D02*
X46640714Y-65982914D01*
X46640714Y-65982914D02*
X46545476Y-66030533D01*
D14*
%TO.C,U1*%
X37465000Y-49195000D02*
X38665000Y-49195000D01*
X38665000Y-51135000D02*
X37465000Y-51135000D01*
D15*
X36465000Y-49415000D02*
G75*
G02*
X36265000Y-49415000I-100000J0D01*
G01*
X36265000Y-49415000D02*
G75*
G02*
X36465000Y-49415000I100000J0D01*
G01*
D14*
%TO.C,C2*%
X32940000Y-58885000D02*
X35690000Y-58885000D01*
X32940000Y-60135000D02*
X32940000Y-58885000D01*
X35690000Y-58885000D02*
X35690000Y-60135000D01*
X35690000Y-60135000D02*
X32940000Y-60135000D01*
%TO.C,R3*%
X41360000Y-44420000D02*
X41520000Y-44420000D01*
X41360000Y-45220000D02*
X41520000Y-45220000D01*
%TO.C,L1*%
X38270000Y-89505000D02*
X38270000Y-89205000D01*
X40470000Y-89505000D02*
X40470000Y-89205000D01*
%TO.C,D2*%
X38710000Y-80420000D02*
X40310000Y-80420000D01*
X38710000Y-81780000D02*
X40310000Y-81780000D01*
D16*
X37730000Y-81100000D02*
G75*
G02*
X37490000Y-81100000I-120000J0D01*
G01*
X37490000Y-81100000D02*
G75*
G02*
X37730000Y-81100000I120000J0D01*
G01*
D14*
%TO.C,C6*%
X52600000Y-83734000D02*
X55350000Y-83734000D01*
X52600000Y-84984000D02*
X52600000Y-83734000D01*
X55350000Y-83734000D02*
X55350000Y-84984000D01*
X55350000Y-84984000D02*
X52600000Y-84984000D01*
%TO.C,J1*%
X34515000Y-119670000D02*
X40415000Y-119670000D01*
X34515000Y-124170000D02*
X34515000Y-119670000D01*
X40415000Y-119670000D02*
X40415000Y-124170000D01*
X40415000Y-124170000D02*
X34515000Y-124170000D01*
D15*
X38565000Y-124870000D02*
G75*
G02*
X38365000Y-124870000I-100000J0D01*
G01*
X38365000Y-124870000D02*
G75*
G02*
X38565000Y-124870000I100000J0D01*
G01*
D14*
%TO.C,C4*%
X32940000Y-62695000D02*
X35690000Y-62695000D01*
X32940000Y-63945000D02*
X32940000Y-62695000D01*
X35690000Y-62695000D02*
X35690000Y-63945000D01*
X35690000Y-63945000D02*
X32940000Y-63945000D01*
%TO.C,S1*%
X47280000Y-44205000D02*
X47280000Y-45965000D01*
X47975000Y-42835000D02*
X51085000Y-42835000D01*
X47975000Y-47335000D02*
X51085000Y-47335000D01*
X51780000Y-44205000D02*
X51780000Y-45965000D01*
D15*
X46404000Y-43335000D02*
G75*
G02*
X46204000Y-43335000I-100000J0D01*
G01*
X46204000Y-43335000D02*
G75*
G02*
X46404000Y-43335000I100000J0D01*
G01*
%TO.C,J2*%
X39470000Y-39118250D02*
G75*
G02*
X39270000Y-39118250I-100000J0D01*
G01*
X39270000Y-39118250D02*
G75*
G02*
X39470000Y-39118250I100000J0D01*
G01*
D14*
%TO.C,1uCapacitor1*%
X37360000Y-83030000D02*
X40110000Y-83030000D01*
X37360000Y-84280000D02*
X37360000Y-83030000D01*
X40110000Y-83030000D02*
X40110000Y-84280000D01*
X40110000Y-84280000D02*
X37360000Y-84280000D01*
%TO.C,C3*%
X32940000Y-60790000D02*
X35690000Y-60790000D01*
X32940000Y-62040000D02*
X32940000Y-60790000D01*
X35690000Y-60790000D02*
X35690000Y-62040000D01*
X35690000Y-62040000D02*
X32940000Y-62040000D01*
%TO.C,MK1*%
X49475000Y-80704000D02*
X49475000Y-84204000D01*
X49475000Y-84204000D02*
X52125000Y-84204000D01*
X52125000Y-80704000D02*
X49475000Y-80704000D01*
X52125000Y-84204000D02*
X52125000Y-80704000D01*
D15*
X49162500Y-81104000D02*
G75*
G02*
X48962500Y-81104000I-100000J0D01*
G01*
X48962500Y-81104000D02*
G75*
G02*
X49162500Y-81104000I100000J0D01*
G01*
D14*
%TO.C,U3*%
X32391135Y-84073865D02*
X32391135Y-84368865D01*
X32391135Y-84073865D02*
X32686135Y-84073865D01*
X32391135Y-87073865D02*
X32391135Y-86778865D01*
X32391135Y-87073865D02*
X32686135Y-87073865D01*
X35391135Y-84073865D02*
X35096135Y-84073865D01*
X35391135Y-84073865D02*
X35391135Y-84368865D01*
X35391135Y-87073865D02*
X35096135Y-87073865D01*
X35391135Y-87073865D02*
X35391135Y-86778865D01*
D15*
X31516135Y-84823865D02*
G75*
G02*
X31316135Y-84823865I-100000J0D01*
G01*
X31316135Y-84823865D02*
G75*
G02*
X31516135Y-84823865I100000J0D01*
G01*
D14*
%TO.C,LS1*%
X40800000Y-108485000D02*
X41800000Y-108485000D01*
X41300000Y-107985000D02*
X41300000Y-108985000D01*
X42800000Y-96235000D02*
X42800000Y-106385000D01*
X44450000Y-94585000D02*
X42800000Y-96235000D01*
X46650000Y-110235000D02*
X54950000Y-110235000D01*
X48150000Y-94235000D02*
X53450000Y-94235000D01*
X57150000Y-94585000D02*
X58800000Y-96235000D01*
X58800000Y-96235000D02*
X58800000Y-106385000D01*
X60800000Y-108485000D02*
X59800000Y-108485000D01*
%TO.C,C5*%
X32940000Y-64600000D02*
X35690000Y-64600000D01*
X32940000Y-65850000D02*
X32940000Y-64600000D01*
X35690000Y-64600000D02*
X35690000Y-65850000D01*
X35690000Y-65850000D02*
X32940000Y-65850000D01*
%TO.C,R1*%
X41830000Y-38970000D02*
X41990000Y-38970000D01*
X41830000Y-39770000D02*
X41990000Y-39770000D01*
%TO.C,R2*%
X40709000Y-112630000D02*
X40869000Y-112630000D01*
X40709000Y-113430000D02*
X40869000Y-113430000D01*
%TO.C,U5*%
X42835000Y-88400000D02*
X43495000Y-88400000D01*
X43495000Y-91300000D02*
X42835000Y-91300000D01*
X43965000Y-89515000D02*
X43965000Y-90185000D01*
D15*
X40855000Y-88800000D02*
G75*
G02*
X40655000Y-88800000I-100000J0D01*
G01*
X40655000Y-88800000D02*
G75*
G02*
X40855000Y-88800000I100000J0D01*
G01*
D14*
%TO.C,U2*%
X36014000Y-112850000D02*
X36674000Y-112850000D01*
X36674000Y-115750000D02*
X36014000Y-115750000D01*
X37144000Y-113965000D02*
X37144000Y-114635000D01*
D15*
X34034000Y-113250000D02*
G75*
G02*
X33834000Y-113250000I-100000J0D01*
G01*
X33834000Y-113250000D02*
G75*
G02*
X34034000Y-113250000I100000J0D01*
G01*
D17*
%TO.C,X1*%
X36255000Y-60640000D02*
X36255000Y-60640000D01*
X36355000Y-60640000D02*
X36355000Y-60640000D01*
D15*
X37355000Y-53290000D02*
X55355000Y-53290000D01*
X37355000Y-59040000D02*
X37355000Y-53290000D01*
X55355000Y-53290000D02*
X55355000Y-59040000D01*
D17*
X36255000Y-60640000D02*
G75*
G02*
X36355000Y-60640000I50000J0D01*
G01*
X36355000Y-60640000D02*
G75*
G02*
X36255000Y-60640000I-50000J0D01*
G01*
%TD*%
M02*
