%TF.GenerationSoftware,KiCad,Pcbnew,9.0.2*%
%TF.CreationDate,2025-07-20T12:07:01-04:00*%
%TF.ProjectId,Glasses_V0.1,476c6173-7365-4735-9f56-302e312e6b69,rev?*%
%TF.SameCoordinates,Original*%
%TF.FileFunction,Copper,L2,Bot*%
%TF.FilePolarity,Positive*%
%FSLAX46Y46*%
G04 Gerber Fmt 4.6, Leading zero omitted, Abs format (unit mm)*
G04 Created by KiCad (PCBNEW 9.0.2) date 2025-07-20 12:07:01*
%MOMM*%
%LPD*%
G01*
G04 APERTURE LIST*
%TA.AperFunction,ComponentPad*%
%ADD10R,1.308000X1.308000*%
%TD*%
%TA.AperFunction,ComponentPad*%
%ADD11C,1.308000*%
%TD*%
%TA.AperFunction,ComponentPad*%
%ADD12O,1.850000X1.050000*%
%TD*%
%TA.AperFunction,ComponentPad*%
%ADD13O,2.250000X1.050000*%
%TD*%
%TA.AperFunction,SMDPad,CuDef*%
%ADD14R,1.100000X1.000000*%
%TD*%
%TA.AperFunction,SMDPad,CuDef*%
%ADD15R,0.870000X0.930000*%
%TD*%
%TA.AperFunction,SMDPad,CuDef*%
%ADD16R,0.710000X1.730000*%
%TD*%
%TA.AperFunction,ViaPad*%
%ADD17C,0.600000*%
%TD*%
%TA.AperFunction,Conductor*%
%ADD18C,0.200000*%
%TD*%
G04 APERTURE END LIST*
D10*
%TO.P,J1,1,1*%
%TO.N,VBAT*%
X38465000Y-122470000D03*
D11*
%TO.P,J1,2,2*%
%TO.N,GND*%
X36465000Y-122470000D03*
%TD*%
D12*
%TO.P,J2,SH1,SHIELD*%
%TO.N,GND*%
X37020000Y-36748250D03*
%TO.P,J2,SH2,SHIELD*%
X37020000Y-47988250D03*
D13*
%TO.P,J2,SH3,SHIELD*%
X33020000Y-36748250D03*
%TO.P,J2,SH4,SHIELD*%
X33020000Y-47988250D03*
%TD*%
D14*
%TO.P,D1,1*%
%TO.N,GND*%
X55388938Y-60780000D03*
%TO.P,D1,2*%
%TO.N,Net-(D1-Pad2)*%
X53688938Y-60780000D03*
%TD*%
D15*
%TO.P,R4,1*%
%TO.N,Net-(X1-EN)*%
X35210000Y-64590000D03*
%TO.P,R4,2*%
%TO.N,+3V3*%
X33650000Y-64590000D03*
%TD*%
D16*
%TO.P,R6,1*%
%TO.N,Net-(D1-Pad2)*%
X54783938Y-63955000D03*
%TO.P,R6,2*%
%TO.N,LED_RED_CTRL*%
X53863938Y-63955000D03*
%TD*%
D17*
%TO.N,GND*%
X46990000Y-46990000D03*
X51435000Y-46990000D03*
X36195000Y-114300000D03*
X55880000Y-59055000D03*
X34925000Y-122555000D03*
X41910000Y-87630000D03*
X36723235Y-85831765D03*
X51598228Y-83113769D03*
X54610000Y-85090000D03*
X54610000Y-41910000D03*
X37465000Y-48260000D03*
X40640000Y-92710000D03*
X37993235Y-84348235D03*
X38735000Y-53340000D03*
X33655000Y-58420000D03*
X37465000Y-60960000D03*
X42604086Y-90046709D03*
X41275000Y-46355000D03*
X43180000Y-66675000D03*
X39476765Y-116733235D03*
%TO.N,+3V3*%
X39914974Y-49494378D03*
X34641135Y-88019237D03*
X37357287Y-49515000D03*
X51700000Y-81093000D03*
X35065000Y-65555002D03*
X53340000Y-83185000D03*
X38735000Y-86995000D03*
%TO.N,VBAT*%
X33268500Y-111125000D03*
X35089000Y-115246000D03*
%TO.N,Net-(J2-CC1)*%
X42545000Y-40640000D03*
X41062735Y-40942000D03*
%TO.N,SPK_P*%
X35616263Y-88248275D03*
X33669500Y-95250000D03*
%TO.N,SPK_N*%
X36830000Y-87630000D03*
X36896186Y-92075000D03*
%TO.N,I2S_MIC_SD*%
X50800000Y-81131000D03*
X45720000Y-80010000D03*
%TO.N,Net-(X1-EN)*%
X37605000Y-63320000D03*
%TO.N,LED_RED_CTRL*%
X53863938Y-63955000D03*
%TO.N,SWITCH_BUTTON*%
X50165000Y-43180000D03*
X47300000Y-43335000D03*
%TO.N,AMP_SHUTDOWN*%
X39370000Y-77289998D03*
X32232500Y-88900000D03*
%TO.N,I2S_AMP_BCLK*%
X37465000Y-82550000D03*
X35560000Y-82550000D03*
%TO.N,I2S_AMP_DIN*%
X33020000Y-82550000D03*
X34925000Y-79375000D03*
%TO.N,I2S_AMP_LRC*%
X35560000Y-83350003D03*
X33669500Y-79410000D03*
%TO.N,SWITCH_STATE*%
X37605000Y-64590000D03*
X39705002Y-64770000D03*
%TO.N,USB_N*%
X37834834Y-51700166D03*
X38800000Y-49665000D03*
X42545000Y-43180000D03*
%TO.N,USB_P*%
X41289141Y-48909141D03*
X40005000Y-43518250D03*
X41275000Y-43180000D03*
%TD*%
D18*
%TO.N,GND*%
X34925000Y-51435000D02*
X34925000Y-52070000D01*
X41523943Y-42579000D02*
X40094307Y-42579000D01*
X35560000Y-53340000D02*
X34925000Y-52705000D01*
X38956000Y-43717307D02*
X38956000Y-47237192D01*
X33655000Y-36748250D02*
X37655000Y-36748250D01*
X41876000Y-45754000D02*
X41876000Y-42931057D01*
X38204942Y-47988250D02*
X37655000Y-47988250D01*
X38956000Y-47237192D02*
X38204942Y-47988250D01*
X34925000Y-52705000D02*
X34925000Y-51435000D01*
X41876000Y-42931057D02*
X41523943Y-42579000D01*
X38735000Y-53340000D02*
X35560000Y-53340000D01*
X37465000Y-60960000D02*
X38100000Y-60960000D01*
X40094307Y-42579000D02*
X38956000Y-43717307D01*
X46990000Y-46990000D02*
X47625000Y-46990000D01*
X41275000Y-46355000D02*
X41876000Y-45754000D01*
X36723235Y-85831765D02*
X36830000Y-85725000D01*
X37655000Y-47988250D02*
X38451939Y-47988250D01*
%TO.N,+3V3*%
X37450000Y-49515000D02*
X37357287Y-49515000D01*
X34615002Y-65555002D02*
X35065000Y-65555002D01*
X51700000Y-82180000D02*
X51700000Y-81093000D01*
X35665372Y-86995000D02*
X34641135Y-88019237D01*
X37931000Y-49064000D02*
X37465000Y-49530000D01*
X39914974Y-49494378D02*
X39580901Y-49494378D01*
X52705000Y-83185000D02*
X51700000Y-82180000D01*
X39580901Y-49494378D02*
X39150523Y-49064000D01*
X33650000Y-64590000D02*
X34615002Y-65555002D01*
X38735000Y-86995000D02*
X35665372Y-86995000D01*
X53340000Y-83185000D02*
X52705000Y-83185000D01*
X39150523Y-49064000D02*
X37931000Y-49064000D01*
X37465000Y-49530000D02*
X37450000Y-49515000D01*
%TO.N,VBAT*%
X33020000Y-114300000D02*
X33020000Y-111373500D01*
X38465000Y-122470000D02*
X34925000Y-118930000D01*
X34925000Y-115410000D02*
X35089000Y-115246000D01*
X35089000Y-115246000D02*
X33966000Y-115246000D01*
X34925000Y-118930000D02*
X34925000Y-115410000D01*
X33966000Y-115246000D02*
X33020000Y-114300000D01*
X33020000Y-111373500D02*
X33268500Y-111125000D01*
%TO.N,Net-(D1-Pad2)*%
X54783938Y-61875000D02*
X54783938Y-63955000D01*
X53688938Y-60780000D02*
X54783938Y-61875000D01*
%TO.N,Net-(J2-CC1)*%
X41062735Y-40942000D02*
X41062735Y-41062735D01*
X41275000Y-41275000D02*
X41910000Y-41275000D01*
X41910000Y-41275000D02*
X42545000Y-40640000D01*
X41062735Y-41062735D02*
X41275000Y-41275000D01*
%TO.N,SPK_P*%
X33669500Y-95250000D02*
X36296186Y-92623314D01*
X36296186Y-92623314D02*
X36296186Y-88928198D01*
X36296186Y-88928198D02*
X35616263Y-88248275D01*
%TO.N,SPK_N*%
X36896186Y-92075000D02*
X36830000Y-92008814D01*
X36830000Y-92008814D02*
X36830000Y-87630000D01*
%TO.N,I2S_MIC_SD*%
X50800000Y-80010000D02*
X50800000Y-81131000D01*
X45720000Y-80010000D02*
X50800000Y-80010000D01*
%TO.N,Net-(X1-EN)*%
X36335000Y-64590000D02*
X37605000Y-63320000D01*
X35210000Y-64590000D02*
X36335000Y-64590000D01*
%TO.N,SWITCH_BUTTON*%
X50165000Y-43180000D02*
X47455000Y-43180000D01*
X47455000Y-43180000D02*
X47300000Y-43335000D01*
%TO.N,AMP_SHUTDOWN*%
X33020000Y-76200000D02*
X32033500Y-77186500D01*
X32033500Y-81081000D02*
X32232500Y-81280000D01*
X32033500Y-77470000D02*
X32033500Y-81081000D01*
X32033500Y-77186500D02*
X32033500Y-77470000D01*
X39370000Y-76200000D02*
X33020000Y-76200000D01*
X32232500Y-81280000D02*
X32232500Y-88900000D01*
X39370000Y-77289998D02*
X39370000Y-76200000D01*
%TO.N,I2S_AMP_BCLK*%
X37465000Y-82550000D02*
X35560000Y-82550000D01*
%TO.N,I2S_AMP_DIN*%
X33020000Y-79209557D02*
X33020000Y-82550000D01*
X33420557Y-78809000D02*
X33020000Y-79209557D01*
X34359000Y-78809000D02*
X33420557Y-78809000D01*
X34925000Y-79375000D02*
X34359000Y-78809000D01*
%TO.N,I2S_AMP_LRC*%
X33669500Y-79410000D02*
X33669500Y-81509443D01*
X35510060Y-83350003D02*
X35560000Y-83350003D01*
X33669500Y-81509443D02*
X35510060Y-83350003D01*
%TO.N,SWITCH_STATE*%
X37785000Y-64770000D02*
X37605000Y-64590000D01*
X39705002Y-64770000D02*
X37785000Y-64770000D01*
%TO.N,USB_N*%
X38735000Y-50230000D02*
X38800000Y-50165000D01*
X41910000Y-48680057D02*
X41910000Y-49138225D01*
X41910000Y-49138225D02*
X40883225Y-50165000D01*
X38800000Y-50165000D02*
X38800000Y-49665000D01*
X40883225Y-50165000D02*
X38800000Y-50165000D01*
X40854943Y-47625000D02*
X41910000Y-48680057D01*
X43180000Y-45299943D02*
X43180000Y-43815000D01*
X38735000Y-50800000D02*
X38735000Y-50230000D01*
X40854943Y-47625000D02*
X43180000Y-45299943D01*
X37834834Y-51700166D02*
X38735000Y-50800000D01*
X43180000Y-43815000D02*
X42545000Y-43180000D01*
%TO.N,USB_P*%
X40005000Y-46355000D02*
X40005000Y-43518250D01*
X41275000Y-45085000D02*
X41275000Y-43180000D01*
X40005000Y-46355000D02*
X41275000Y-45085000D01*
X40005000Y-47625000D02*
X40005000Y-46355000D01*
X41289141Y-48909141D02*
X40005000Y-47625000D01*
%TD*%
%TA.AperFunction,Conductor*%
%TO.N,GND*%
G36*
X59767539Y-35445185D02*
G01*
X59813294Y-35497989D01*
X59824500Y-35549500D01*
X59824500Y-124470500D01*
X59804815Y-124537539D01*
X59752011Y-124583294D01*
X59700500Y-124594500D01*
X31739500Y-124594500D01*
X31672461Y-124574815D01*
X31626706Y-124522011D01*
X31615500Y-124470500D01*
X31615500Y-114379054D01*
X32419498Y-114379054D01*
X32419499Y-114379057D01*
X32460423Y-114531785D01*
X32463206Y-114536606D01*
X32489358Y-114581900D01*
X32489359Y-114581904D01*
X32489360Y-114581904D01*
X32526076Y-114645500D01*
X32539479Y-114668714D01*
X32539481Y-114668717D01*
X32658349Y-114787585D01*
X32658355Y-114787590D01*
X33481139Y-115610374D01*
X33481149Y-115610385D01*
X33485479Y-115614715D01*
X33485480Y-115614716D01*
X33597284Y-115726520D01*
X33648845Y-115756288D01*
X33684095Y-115776639D01*
X33684097Y-115776641D01*
X33722151Y-115798611D01*
X33734215Y-115805577D01*
X33886943Y-115846501D01*
X33886946Y-115846501D01*
X34052653Y-115846501D01*
X34052669Y-115846500D01*
X34200500Y-115846500D01*
X34267539Y-115866185D01*
X34313294Y-115918989D01*
X34324500Y-115970500D01*
X34324500Y-118843330D01*
X34324499Y-118843348D01*
X34324499Y-119009054D01*
X34324498Y-119009054D01*
X34365423Y-119161785D01*
X34394358Y-119211900D01*
X34394359Y-119211904D01*
X34394360Y-119211904D01*
X34444479Y-119298714D01*
X34444481Y-119298717D01*
X34563349Y-119417585D01*
X34563355Y-119417590D01*
X36277706Y-121131941D01*
X36311191Y-121193264D01*
X36306207Y-121262956D01*
X36264335Y-121318889D01*
X36209424Y-121342095D01*
X36194773Y-121344415D01*
X36022015Y-121400548D01*
X35860170Y-121483012D01*
X35860161Y-121483018D01*
X35843603Y-121495048D01*
X35843602Y-121495049D01*
X36418554Y-122070000D01*
X36412339Y-122070000D01*
X36310606Y-122097259D01*
X36219394Y-122149920D01*
X36144920Y-122224394D01*
X36092259Y-122315606D01*
X36065000Y-122417339D01*
X36065000Y-122423553D01*
X35490049Y-121848602D01*
X35490048Y-121848603D01*
X35478018Y-121865161D01*
X35478012Y-121865170D01*
X35395548Y-122027015D01*
X35339415Y-122199774D01*
X35311000Y-122379178D01*
X35311000Y-122560821D01*
X35339415Y-122740225D01*
X35395548Y-122912984D01*
X35478012Y-123074830D01*
X35478014Y-123074834D01*
X35490048Y-123091395D01*
X35490049Y-123091396D01*
X36065000Y-122516445D01*
X36065000Y-122522661D01*
X36092259Y-122624394D01*
X36144920Y-122715606D01*
X36219394Y-122790080D01*
X36310606Y-122842741D01*
X36412339Y-122870000D01*
X36418554Y-122870000D01*
X35843602Y-123444949D01*
X35843603Y-123444950D01*
X35860165Y-123456985D01*
X35860179Y-123456993D01*
X36022012Y-123539450D01*
X36194774Y-123595584D01*
X36374179Y-123624000D01*
X36555821Y-123624000D01*
X36735225Y-123595584D01*
X36907984Y-123539451D01*
X37069831Y-123456986D01*
X37086396Y-123444949D01*
X36511447Y-122870000D01*
X36517661Y-122870000D01*
X36619394Y-122842741D01*
X36710606Y-122790080D01*
X36785080Y-122715606D01*
X36837741Y-122624394D01*
X36865000Y-122522661D01*
X36865000Y-122516446D01*
X37274181Y-122925627D01*
X37307666Y-122986950D01*
X37310500Y-123013307D01*
X37310500Y-123171869D01*
X37310501Y-123171876D01*
X37316908Y-123231483D01*
X37367202Y-123366328D01*
X37367206Y-123366335D01*
X37453452Y-123481544D01*
X37453455Y-123481547D01*
X37568664Y-123567793D01*
X37568671Y-123567797D01*
X37703517Y-123618091D01*
X37703516Y-123618091D01*
X37710444Y-123618835D01*
X37763127Y-123624500D01*
X39166872Y-123624499D01*
X39226483Y-123618091D01*
X39361331Y-123567796D01*
X39476546Y-123481546D01*
X39562796Y-123366331D01*
X39613091Y-123231483D01*
X39619500Y-123171873D01*
X39619499Y-121768128D01*
X39613091Y-121708517D01*
X39562796Y-121573669D01*
X39562795Y-121573668D01*
X39562793Y-121573664D01*
X39476547Y-121458455D01*
X39476544Y-121458452D01*
X39361335Y-121372206D01*
X39361328Y-121372202D01*
X39226482Y-121321908D01*
X39226483Y-121321908D01*
X39166883Y-121315501D01*
X39166881Y-121315500D01*
X39166873Y-121315500D01*
X39166865Y-121315500D01*
X38211097Y-121315500D01*
X38144058Y-121295815D01*
X38123416Y-121279181D01*
X35561819Y-118717584D01*
X35528334Y-118656261D01*
X35525500Y-118629903D01*
X35525500Y-115983372D01*
X35545185Y-115916333D01*
X35580610Y-115880269D01*
X35599289Y-115867789D01*
X35710789Y-115756289D01*
X35798394Y-115625179D01*
X35858737Y-115479497D01*
X35889500Y-115324842D01*
X35889500Y-115167158D01*
X35889500Y-115167155D01*
X35889499Y-115167153D01*
X35858738Y-115012510D01*
X35858737Y-115012503D01*
X35858735Y-115012498D01*
X35798397Y-114866827D01*
X35798390Y-114866814D01*
X35710789Y-114735711D01*
X35710786Y-114735707D01*
X35599292Y-114624213D01*
X35599288Y-114624210D01*
X35468185Y-114536609D01*
X35468172Y-114536602D01*
X35322501Y-114476264D01*
X35322489Y-114476261D01*
X35167845Y-114445500D01*
X35167842Y-114445500D01*
X35010158Y-114445500D01*
X35010155Y-114445500D01*
X34855510Y-114476261D01*
X34855498Y-114476264D01*
X34709827Y-114536602D01*
X34709814Y-114536609D01*
X34578125Y-114624602D01*
X34560078Y-114630252D01*
X34544169Y-114640477D01*
X34513207Y-114644928D01*
X34511447Y-114645480D01*
X34509234Y-114645500D01*
X34266097Y-114645500D01*
X34199058Y-114625815D01*
X34178416Y-114609181D01*
X33656819Y-114087584D01*
X33623334Y-114026261D01*
X33620500Y-113999903D01*
X33620500Y-111918833D01*
X33640185Y-111851794D01*
X33675606Y-111815733D01*
X33778789Y-111746789D01*
X33890289Y-111635289D01*
X33977894Y-111504179D01*
X34038237Y-111358497D01*
X34069000Y-111203842D01*
X34069000Y-111046158D01*
X34069000Y-111046155D01*
X34068999Y-111046153D01*
X34038238Y-110891510D01*
X34038237Y-110891503D01*
X34038235Y-110891498D01*
X33977897Y-110745827D01*
X33977890Y-110745814D01*
X33890289Y-110614711D01*
X33890286Y-110614707D01*
X33778792Y-110503213D01*
X33778788Y-110503210D01*
X33647685Y-110415609D01*
X33647672Y-110415602D01*
X33502001Y-110355264D01*
X33501989Y-110355261D01*
X33347345Y-110324500D01*
X33347342Y-110324500D01*
X33189658Y-110324500D01*
X33189655Y-110324500D01*
X33035010Y-110355261D01*
X33034998Y-110355264D01*
X32889327Y-110415602D01*
X32889314Y-110415609D01*
X32758211Y-110503210D01*
X32758207Y-110503213D01*
X32646713Y-110614707D01*
X32646710Y-110614711D01*
X32559109Y-110745814D01*
X32559102Y-110745827D01*
X32498764Y-110891498D01*
X32498761Y-110891510D01*
X32468000Y-111046153D01*
X32468000Y-111098757D01*
X32461095Y-111133481D01*
X32462527Y-111133865D01*
X32460424Y-111141713D01*
X32460423Y-111141715D01*
X32419499Y-111294443D01*
X32419499Y-111452557D01*
X32419499Y-111452559D01*
X32419500Y-111462553D01*
X32419500Y-114213330D01*
X32419499Y-114213348D01*
X32419499Y-114379054D01*
X32419498Y-114379054D01*
X31615500Y-114379054D01*
X31615500Y-95171153D01*
X32869000Y-95171153D01*
X32869000Y-95328846D01*
X32899761Y-95483489D01*
X32899764Y-95483501D01*
X32960102Y-95629172D01*
X32960109Y-95629185D01*
X33047710Y-95760288D01*
X33047713Y-95760292D01*
X33159207Y-95871786D01*
X33159211Y-95871789D01*
X33290314Y-95959390D01*
X33290327Y-95959397D01*
X33435998Y-96019735D01*
X33436003Y-96019737D01*
X33590653Y-96050499D01*
X33590656Y-96050500D01*
X33590658Y-96050500D01*
X33748344Y-96050500D01*
X33748345Y-96050499D01*
X33902997Y-96019737D01*
X34048679Y-95959394D01*
X34179789Y-95871789D01*
X34291289Y-95760289D01*
X34378894Y-95629179D01*
X34439237Y-95483497D01*
X34458613Y-95386085D01*
X34470138Y-95328150D01*
X34502523Y-95266239D01*
X34504019Y-95264715D01*
X36654692Y-93114041D01*
X36654697Y-93114038D01*
X36664900Y-93103834D01*
X36664902Y-93103834D01*
X36776706Y-92992030D01*
X36808189Y-92937500D01*
X36858756Y-92889285D01*
X36915576Y-92875500D01*
X36975030Y-92875500D01*
X36975031Y-92875499D01*
X37129683Y-92844737D01*
X37275365Y-92784394D01*
X37406475Y-92696789D01*
X37517975Y-92585289D01*
X37605580Y-92454179D01*
X37665923Y-92308497D01*
X37696686Y-92153842D01*
X37696686Y-91996158D01*
X37696686Y-91996155D01*
X37696685Y-91996153D01*
X37665924Y-91841510D01*
X37665923Y-91841503D01*
X37665921Y-91841498D01*
X37605583Y-91695827D01*
X37605576Y-91695814D01*
X37517975Y-91564711D01*
X37517972Y-91564707D01*
X37466819Y-91513554D01*
X37433334Y-91452231D01*
X37430500Y-91425873D01*
X37430500Y-88209765D01*
X37450185Y-88142726D01*
X37451398Y-88140874D01*
X37539390Y-88009185D01*
X37539390Y-88009184D01*
X37539394Y-88009179D01*
X37599737Y-87863497D01*
X37630500Y-87708842D01*
X37630500Y-87708832D01*
X37630646Y-87707354D01*
X37630942Y-87706618D01*
X37631689Y-87702868D01*
X37632400Y-87703009D01*
X37656803Y-87642565D01*
X37713835Y-87602202D01*
X37754050Y-87595500D01*
X38155234Y-87595500D01*
X38222273Y-87615185D01*
X38224125Y-87616398D01*
X38355814Y-87704390D01*
X38355827Y-87704397D01*
X38501498Y-87764735D01*
X38501503Y-87764737D01*
X38607127Y-87785747D01*
X38656153Y-87795499D01*
X38656156Y-87795500D01*
X38656158Y-87795500D01*
X38813844Y-87795500D01*
X38813845Y-87795499D01*
X38968497Y-87764737D01*
X39103414Y-87708853D01*
X39114172Y-87704397D01*
X39114172Y-87704396D01*
X39114179Y-87704394D01*
X39245289Y-87616789D01*
X39356789Y-87505289D01*
X39444394Y-87374179D01*
X39504737Y-87228497D01*
X39535500Y-87073842D01*
X39535500Y-86916158D01*
X39535500Y-86916155D01*
X39535499Y-86916153D01*
X39504738Y-86761510D01*
X39504737Y-86761503D01*
X39448728Y-86626284D01*
X39444397Y-86615827D01*
X39444390Y-86615814D01*
X39356789Y-86484711D01*
X39356786Y-86484707D01*
X39245292Y-86373213D01*
X39245288Y-86373210D01*
X39114185Y-86285609D01*
X39114172Y-86285602D01*
X38968501Y-86225264D01*
X38968489Y-86225261D01*
X38813845Y-86194500D01*
X38813842Y-86194500D01*
X38656158Y-86194500D01*
X38656155Y-86194500D01*
X38501510Y-86225261D01*
X38501498Y-86225264D01*
X38355827Y-86285602D01*
X38355814Y-86285609D01*
X38224125Y-86373602D01*
X38157447Y-86394480D01*
X38155234Y-86394500D01*
X35752041Y-86394500D01*
X35752025Y-86394499D01*
X35744429Y-86394499D01*
X35586315Y-86394499D01*
X35478959Y-86423265D01*
X35433582Y-86435424D01*
X35433581Y-86435425D01*
X35383468Y-86464359D01*
X35383467Y-86464360D01*
X35348225Y-86484707D01*
X35296657Y-86514479D01*
X35296654Y-86514481D01*
X34626474Y-87184662D01*
X34565151Y-87218147D01*
X34562985Y-87218598D01*
X34407643Y-87249498D01*
X34407633Y-87249501D01*
X34261962Y-87309839D01*
X34261949Y-87309846D01*
X34130846Y-87397447D01*
X34130842Y-87397450D01*
X34019348Y-87508944D01*
X34019345Y-87508948D01*
X33931744Y-87640051D01*
X33931737Y-87640064D01*
X33871399Y-87785735D01*
X33871396Y-87785747D01*
X33840635Y-87940390D01*
X33840635Y-88098083D01*
X33871396Y-88252726D01*
X33871399Y-88252738D01*
X33931737Y-88398409D01*
X33931744Y-88398422D01*
X34019345Y-88529525D01*
X34019348Y-88529529D01*
X34130842Y-88641023D01*
X34130846Y-88641026D01*
X34261949Y-88728627D01*
X34261962Y-88728634D01*
X34407633Y-88788972D01*
X34407638Y-88788974D01*
X34562288Y-88819736D01*
X34562291Y-88819737D01*
X34562293Y-88819737D01*
X34719979Y-88819737D01*
X34719980Y-88819736D01*
X34874632Y-88788974D01*
X34904329Y-88776672D01*
X34973797Y-88769204D01*
X35036276Y-88800478D01*
X35039462Y-88803553D01*
X35105970Y-88870061D01*
X35105974Y-88870064D01*
X35237077Y-88957665D01*
X35237090Y-88957672D01*
X35382761Y-89018010D01*
X35382766Y-89018012D01*
X35447410Y-89030870D01*
X35538112Y-89048913D01*
X35554868Y-89057677D01*
X35573348Y-89061698D01*
X35598386Y-89080442D01*
X35600023Y-89081298D01*
X35601602Y-89082849D01*
X35659367Y-89140614D01*
X35692852Y-89201937D01*
X35695686Y-89228295D01*
X35695686Y-92323217D01*
X35676001Y-92390256D01*
X35659367Y-92410898D01*
X33654839Y-94415425D01*
X33593516Y-94448910D01*
X33591350Y-94449361D01*
X33436008Y-94480261D01*
X33435998Y-94480264D01*
X33290327Y-94540602D01*
X33290314Y-94540609D01*
X33159211Y-94628210D01*
X33159207Y-94628213D01*
X33047713Y-94739707D01*
X33047710Y-94739711D01*
X32960109Y-94870814D01*
X32960102Y-94870827D01*
X32899764Y-95016498D01*
X32899761Y-95016510D01*
X32869000Y-95171153D01*
X31615500Y-95171153D01*
X31615500Y-89682475D01*
X31635185Y-89615436D01*
X31687989Y-89569681D01*
X31757147Y-89559737D01*
X31808392Y-89579373D01*
X31853321Y-89609394D01*
X31853323Y-89609395D01*
X31853327Y-89609397D01*
X31998998Y-89669735D01*
X31999003Y-89669737D01*
X32153653Y-89700499D01*
X32153656Y-89700500D01*
X32153658Y-89700500D01*
X32311344Y-89700500D01*
X32311345Y-89700499D01*
X32465997Y-89669737D01*
X32611679Y-89609394D01*
X32742789Y-89521789D01*
X32854289Y-89410289D01*
X32941894Y-89279179D01*
X33002237Y-89133497D01*
X33033000Y-88978842D01*
X33033000Y-88821158D01*
X33033000Y-88821155D01*
X33032999Y-88821153D01*
X33017553Y-88743502D01*
X33002237Y-88666503D01*
X32945500Y-88529526D01*
X32941897Y-88520827D01*
X32941890Y-88520814D01*
X32853898Y-88389125D01*
X32833020Y-88322447D01*
X32833000Y-88320234D01*
X32833000Y-83474500D01*
X32852685Y-83407461D01*
X32905489Y-83361706D01*
X32957000Y-83350500D01*
X33098844Y-83350500D01*
X33098845Y-83350499D01*
X33253497Y-83319737D01*
X33388436Y-83263844D01*
X33399172Y-83259397D01*
X33399172Y-83259396D01*
X33399179Y-83259394D01*
X33530289Y-83171789D01*
X33641789Y-83060289D01*
X33729394Y-82929179D01*
X33789737Y-82783497D01*
X33795012Y-82756976D01*
X33827396Y-82695068D01*
X33888111Y-82660493D01*
X33957880Y-82664232D01*
X34004310Y-82693488D01*
X34737826Y-83427004D01*
X34771311Y-83488327D01*
X34771762Y-83490493D01*
X34790261Y-83583494D01*
X34790264Y-83583504D01*
X34850602Y-83729175D01*
X34850609Y-83729188D01*
X34938210Y-83860291D01*
X34938213Y-83860295D01*
X35049707Y-83971789D01*
X35049711Y-83971792D01*
X35180814Y-84059393D01*
X35180827Y-84059400D01*
X35326498Y-84119738D01*
X35326503Y-84119740D01*
X35481153Y-84150502D01*
X35481156Y-84150503D01*
X35481158Y-84150503D01*
X35638844Y-84150503D01*
X35638845Y-84150502D01*
X35793497Y-84119740D01*
X35939179Y-84059397D01*
X36070289Y-83971792D01*
X36181789Y-83860292D01*
X36269394Y-83729182D01*
X36329737Y-83583500D01*
X36360500Y-83428845D01*
X36360500Y-83274500D01*
X36380185Y-83207461D01*
X36432989Y-83161706D01*
X36484500Y-83150500D01*
X36885234Y-83150500D01*
X36952273Y-83170185D01*
X36954125Y-83171398D01*
X37085814Y-83259390D01*
X37085827Y-83259397D01*
X37231498Y-83319735D01*
X37231503Y-83319737D01*
X37386153Y-83350499D01*
X37386156Y-83350500D01*
X37386158Y-83350500D01*
X37543844Y-83350500D01*
X37543845Y-83350499D01*
X37698497Y-83319737D01*
X37833436Y-83263844D01*
X37844172Y-83259397D01*
X37844172Y-83259396D01*
X37844179Y-83259394D01*
X37975289Y-83171789D01*
X38086789Y-83060289D01*
X38174394Y-82929179D01*
X38234737Y-82783497D01*
X38265500Y-82628842D01*
X38265500Y-82471158D01*
X38265500Y-82471155D01*
X38265499Y-82471153D01*
X38253690Y-82411785D01*
X38234737Y-82316503D01*
X38234735Y-82316498D01*
X38174397Y-82170827D01*
X38174390Y-82170814D01*
X38086789Y-82039711D01*
X38086786Y-82039707D01*
X37975292Y-81928213D01*
X37975288Y-81928210D01*
X37844185Y-81840609D01*
X37844172Y-81840602D01*
X37698501Y-81780264D01*
X37698489Y-81780261D01*
X37543845Y-81749500D01*
X37543842Y-81749500D01*
X37386158Y-81749500D01*
X37386155Y-81749500D01*
X37231510Y-81780261D01*
X37231498Y-81780264D01*
X37085827Y-81840602D01*
X37085814Y-81840609D01*
X36954125Y-81928602D01*
X36887447Y-81949480D01*
X36885234Y-81949500D01*
X36139766Y-81949500D01*
X36072727Y-81929815D01*
X36070875Y-81928602D01*
X35939185Y-81840609D01*
X35939172Y-81840602D01*
X35793501Y-81780264D01*
X35793489Y-81780261D01*
X35638845Y-81749500D01*
X35638842Y-81749500D01*
X35481158Y-81749500D01*
X35481155Y-81749500D01*
X35326510Y-81780261D01*
X35326498Y-81780264D01*
X35180827Y-81840602D01*
X35180816Y-81840608D01*
X35067059Y-81916618D01*
X35000382Y-81937495D01*
X34933002Y-81919010D01*
X34910488Y-81901196D01*
X34306319Y-81297027D01*
X34272834Y-81235704D01*
X34270000Y-81209346D01*
X34270000Y-80132084D01*
X34289685Y-80065045D01*
X34342489Y-80019290D01*
X34411647Y-80009346D01*
X34462891Y-80028982D01*
X34545814Y-80084390D01*
X34545827Y-80084397D01*
X34691498Y-80144735D01*
X34691503Y-80144737D01*
X34846153Y-80175499D01*
X34846156Y-80175500D01*
X34846158Y-80175500D01*
X35003844Y-80175500D01*
X35003845Y-80175499D01*
X35158497Y-80144737D01*
X35293431Y-80088846D01*
X35304172Y-80084397D01*
X35304172Y-80084396D01*
X35304179Y-80084394D01*
X35435289Y-79996789D01*
X35500925Y-79931153D01*
X44919500Y-79931153D01*
X44919500Y-80088846D01*
X44950261Y-80243489D01*
X44950264Y-80243501D01*
X45010602Y-80389172D01*
X45010609Y-80389185D01*
X45098210Y-80520288D01*
X45098213Y-80520292D01*
X45209707Y-80631786D01*
X45209711Y-80631789D01*
X45340814Y-80719390D01*
X45340827Y-80719397D01*
X45419107Y-80751821D01*
X45486503Y-80779737D01*
X45641153Y-80810499D01*
X45641156Y-80810500D01*
X45641158Y-80810500D01*
X45798844Y-80810500D01*
X45798845Y-80810499D01*
X45953497Y-80779737D01*
X46099179Y-80719394D01*
X46153663Y-80682989D01*
X46230875Y-80631398D01*
X46297553Y-80610520D01*
X46299766Y-80610500D01*
X49963564Y-80610500D01*
X50030603Y-80630185D01*
X50076358Y-80682989D01*
X50086302Y-80752147D01*
X50078125Y-80781952D01*
X50030264Y-80897498D01*
X50030261Y-80897510D01*
X49999500Y-81052153D01*
X49999500Y-81209846D01*
X50030261Y-81364489D01*
X50030264Y-81364501D01*
X50090602Y-81510172D01*
X50090609Y-81510185D01*
X50178210Y-81641288D01*
X50178213Y-81641292D01*
X50289707Y-81752786D01*
X50289711Y-81752789D01*
X50420814Y-81840390D01*
X50420827Y-81840397D01*
X50516202Y-81879902D01*
X50566503Y-81900737D01*
X50704618Y-81928210D01*
X50721153Y-81931499D01*
X50721156Y-81931500D01*
X50721158Y-81931500D01*
X50878843Y-81931500D01*
X50895382Y-81928210D01*
X50951309Y-81917085D01*
X50972291Y-81918962D01*
X50993147Y-81915964D01*
X51006395Y-81922014D01*
X51020899Y-81923312D01*
X51037536Y-81936236D01*
X51056703Y-81944989D01*
X51064576Y-81957240D01*
X51076077Y-81966174D01*
X51083086Y-81986043D01*
X51094477Y-82003767D01*
X51098011Y-82028347D01*
X51099322Y-82032063D01*
X51099500Y-82038702D01*
X51099500Y-82093330D01*
X51099499Y-82093348D01*
X51099499Y-82259054D01*
X51099498Y-82259054D01*
X51114892Y-82316503D01*
X51140423Y-82411785D01*
X51169360Y-82461904D01*
X51219480Y-82548716D01*
X51231840Y-82561076D01*
X51239263Y-82572878D01*
X51245134Y-82593620D01*
X51255464Y-82612538D01*
X51254460Y-82626569D01*
X51258292Y-82640106D01*
X51252017Y-82660727D01*
X51250480Y-82682230D01*
X51242048Y-82693492D01*
X51237954Y-82706950D01*
X51221526Y-82720906D01*
X51208608Y-82738163D01*
X51195427Y-82743078D01*
X51184706Y-82752188D01*
X51163339Y-82755047D01*
X51143144Y-82762580D01*
X51129398Y-82759589D01*
X51115454Y-82761456D01*
X51095933Y-82752309D01*
X51074871Y-82747728D01*
X51072298Y-82746283D01*
X50993189Y-82700609D01*
X50993186Y-82700608D01*
X50865892Y-82666500D01*
X50734108Y-82666500D01*
X50606812Y-82700608D01*
X50492686Y-82766500D01*
X50492683Y-82766502D01*
X50399502Y-82859683D01*
X50399500Y-82859686D01*
X50333608Y-82973812D01*
X50299500Y-83101108D01*
X50299500Y-83232892D01*
X50307794Y-83263846D01*
X50333608Y-83360187D01*
X50360902Y-83407461D01*
X50399500Y-83474314D01*
X50492686Y-83567500D01*
X50606814Y-83633392D01*
X50734108Y-83667500D01*
X50734110Y-83667500D01*
X50865890Y-83667500D01*
X50865892Y-83667500D01*
X50993186Y-83633392D01*
X51107314Y-83567500D01*
X51200500Y-83474314D01*
X51266392Y-83360186D01*
X51300500Y-83232892D01*
X51300500Y-83101108D01*
X51266392Y-82973814D01*
X51220714Y-82894698D01*
X51204242Y-82826799D01*
X51227094Y-82760772D01*
X51282015Y-82717582D01*
X51351569Y-82710940D01*
X51413671Y-82742956D01*
X51415779Y-82745014D01*
X52336284Y-83665520D01*
X52336286Y-83665521D01*
X52336290Y-83665524D01*
X52446551Y-83729182D01*
X52473216Y-83744577D01*
X52625943Y-83785501D01*
X52625945Y-83785501D01*
X52760236Y-83785501D01*
X52827275Y-83805186D01*
X52829127Y-83806399D01*
X52960814Y-83894390D01*
X52960827Y-83894397D01*
X53106498Y-83954735D01*
X53106503Y-83954737D01*
X53261153Y-83985499D01*
X53261156Y-83985500D01*
X53261158Y-83985500D01*
X53418844Y-83985500D01*
X53418845Y-83985499D01*
X53573497Y-83954737D01*
X53719179Y-83894394D01*
X53850289Y-83806789D01*
X53961789Y-83695289D01*
X54049394Y-83564179D01*
X54109737Y-83418497D01*
X54140500Y-83263842D01*
X54140500Y-83106158D01*
X54140500Y-83106155D01*
X54140499Y-83106153D01*
X54114175Y-82973814D01*
X54109737Y-82951503D01*
X54086209Y-82894700D01*
X54049397Y-82805827D01*
X54049390Y-82805814D01*
X53961789Y-82674711D01*
X53961786Y-82674707D01*
X53850292Y-82563213D01*
X53850288Y-82563210D01*
X53719185Y-82475609D01*
X53719172Y-82475602D01*
X53573501Y-82415264D01*
X53573489Y-82415261D01*
X53418845Y-82384500D01*
X53418842Y-82384500D01*
X53261158Y-82384500D01*
X53261155Y-82384500D01*
X53106510Y-82415261D01*
X53106498Y-82415264D01*
X52955357Y-82477868D01*
X52885887Y-82485337D01*
X52823408Y-82454061D01*
X52820224Y-82450988D01*
X52336819Y-81967583D01*
X52322115Y-81940655D01*
X52305523Y-81914837D01*
X52304631Y-81908636D01*
X52303334Y-81906260D01*
X52300500Y-81879902D01*
X52300500Y-81672765D01*
X52320185Y-81605726D01*
X52321398Y-81603874D01*
X52409390Y-81472185D01*
X52409390Y-81472184D01*
X52409394Y-81472179D01*
X52469737Y-81326497D01*
X52500500Y-81171842D01*
X52500500Y-81014158D01*
X52500500Y-81014155D01*
X52500499Y-81014153D01*
X52477297Y-80897510D01*
X52469737Y-80859503D01*
X52469735Y-80859498D01*
X52409397Y-80713827D01*
X52409390Y-80713814D01*
X52321789Y-80582711D01*
X52321786Y-80582707D01*
X52210292Y-80471213D01*
X52210288Y-80471210D01*
X52079185Y-80383609D01*
X52079172Y-80383602D01*
X51933501Y-80323264D01*
X51933489Y-80323261D01*
X51778845Y-80292500D01*
X51778842Y-80292500D01*
X51621158Y-80292500D01*
X51621155Y-80292500D01*
X51548691Y-80306914D01*
X51479100Y-80300687D01*
X51423922Y-80257824D01*
X51400678Y-80191934D01*
X51400500Y-80185297D01*
X51400500Y-79930945D01*
X51400500Y-79930943D01*
X51359577Y-79778216D01*
X51345695Y-79754172D01*
X51280524Y-79641290D01*
X51280518Y-79641282D01*
X51168717Y-79529481D01*
X51168709Y-79529475D01*
X51031790Y-79450426D01*
X51031786Y-79450424D01*
X51031784Y-79450423D01*
X50879057Y-79409500D01*
X50879056Y-79409500D01*
X46299766Y-79409500D01*
X46232727Y-79389815D01*
X46230875Y-79388602D01*
X46099185Y-79300609D01*
X46099172Y-79300602D01*
X45953501Y-79240264D01*
X45953489Y-79240261D01*
X45798845Y-79209500D01*
X45798842Y-79209500D01*
X45641158Y-79209500D01*
X45641155Y-79209500D01*
X45486510Y-79240261D01*
X45486498Y-79240264D01*
X45340827Y-79300602D01*
X45340814Y-79300609D01*
X45209711Y-79388210D01*
X45209707Y-79388213D01*
X45098213Y-79499707D01*
X45098210Y-79499711D01*
X45010609Y-79630814D01*
X45010602Y-79630827D01*
X44950264Y-79776498D01*
X44950261Y-79776510D01*
X44919500Y-79931153D01*
X35500925Y-79931153D01*
X35546789Y-79885289D01*
X35556839Y-79870247D01*
X35566243Y-79856175D01*
X35634390Y-79754185D01*
X35634390Y-79754184D01*
X35634394Y-79754179D01*
X35694737Y-79608497D01*
X35725500Y-79453842D01*
X35725500Y-79296158D01*
X35725500Y-79296155D01*
X35725499Y-79296153D01*
X35714381Y-79240261D01*
X35694737Y-79141503D01*
X35694735Y-79141498D01*
X35634397Y-78995827D01*
X35634390Y-78995814D01*
X35546789Y-78864711D01*
X35546786Y-78864707D01*
X35435292Y-78753213D01*
X35435288Y-78753210D01*
X35304185Y-78665609D01*
X35304172Y-78665602D01*
X35158501Y-78605264D01*
X35158491Y-78605261D01*
X35003149Y-78574361D01*
X34986392Y-78565595D01*
X34967914Y-78561576D01*
X34942877Y-78542833D01*
X34941238Y-78541976D01*
X34939660Y-78540425D01*
X34846590Y-78447355D01*
X34846588Y-78447352D01*
X34727717Y-78328481D01*
X34727716Y-78328480D01*
X34640904Y-78278360D01*
X34640904Y-78278359D01*
X34640900Y-78278358D01*
X34590785Y-78249423D01*
X34438057Y-78208499D01*
X34279943Y-78208499D01*
X34272347Y-78208499D01*
X34272331Y-78208500D01*
X33499614Y-78208500D01*
X33341500Y-78208500D01*
X33188772Y-78249423D01*
X33188771Y-78249423D01*
X33188769Y-78249424D01*
X33188766Y-78249425D01*
X33138653Y-78278359D01*
X33138652Y-78278360D01*
X33095246Y-78303420D01*
X33051842Y-78328479D01*
X33051839Y-78328481D01*
X32845681Y-78534640D01*
X32784358Y-78568125D01*
X32714666Y-78563141D01*
X32658733Y-78521269D01*
X32634316Y-78455805D01*
X32634000Y-78446959D01*
X32634000Y-77486597D01*
X32653685Y-77419558D01*
X32670319Y-77398916D01*
X33232417Y-76836819D01*
X33293740Y-76803334D01*
X33320098Y-76800500D01*
X38520723Y-76800500D01*
X38587762Y-76820185D01*
X38633517Y-76872989D01*
X38643461Y-76942147D01*
X38635284Y-76971953D01*
X38600263Y-77056500D01*
X38600261Y-77056508D01*
X38569500Y-77211151D01*
X38569500Y-77368844D01*
X38600261Y-77523487D01*
X38600264Y-77523499D01*
X38660602Y-77669170D01*
X38660609Y-77669183D01*
X38748210Y-77800286D01*
X38748213Y-77800290D01*
X38859707Y-77911784D01*
X38859711Y-77911787D01*
X38990814Y-77999388D01*
X38990827Y-77999395D01*
X39136498Y-78059733D01*
X39136503Y-78059735D01*
X39291153Y-78090497D01*
X39291156Y-78090498D01*
X39291158Y-78090498D01*
X39448844Y-78090498D01*
X39448845Y-78090497D01*
X39603497Y-78059735D01*
X39749179Y-77999392D01*
X39880289Y-77911787D01*
X39991789Y-77800287D01*
X40079394Y-77669177D01*
X40139737Y-77523495D01*
X40170500Y-77368840D01*
X40170500Y-77211156D01*
X40170500Y-77211153D01*
X40170499Y-77211151D01*
X40139738Y-77056508D01*
X40139737Y-77056501D01*
X40139735Y-77056496D01*
X40079397Y-76910825D01*
X40079390Y-76910812D01*
X39991398Y-76779123D01*
X39970520Y-76712445D01*
X39970500Y-76710232D01*
X39970500Y-76120945D01*
X39970500Y-76120943D01*
X39929577Y-75968216D01*
X39929573Y-75968209D01*
X39850524Y-75831290D01*
X39850518Y-75831282D01*
X39738717Y-75719481D01*
X39738709Y-75719475D01*
X39601790Y-75640426D01*
X39601786Y-75640424D01*
X39601784Y-75640423D01*
X39449057Y-75599500D01*
X39449056Y-75599500D01*
X33106670Y-75599500D01*
X33106654Y-75599499D01*
X33099058Y-75599499D01*
X32940943Y-75599499D01*
X32864579Y-75619961D01*
X32788214Y-75640423D01*
X32788209Y-75640426D01*
X32651290Y-75719475D01*
X32651282Y-75719481D01*
X31827181Y-76543583D01*
X31765858Y-76577068D01*
X31696166Y-76572084D01*
X31640233Y-76530212D01*
X31615816Y-76464748D01*
X31615500Y-76455902D01*
X31615500Y-64077135D01*
X32714500Y-64077135D01*
X32714501Y-65102869D01*
X32720908Y-65162483D01*
X32771202Y-65297328D01*
X32771206Y-65297335D01*
X32857452Y-65412544D01*
X32857455Y-65412547D01*
X32972664Y-65498793D01*
X32972671Y-65498797D01*
X33017618Y-65515561D01*
X33107517Y-65549091D01*
X33167127Y-65555500D01*
X33714902Y-65555499D01*
X33781941Y-65575183D01*
X33802583Y-65591818D01*
X34130141Y-65919376D01*
X34130151Y-65919387D01*
X34134481Y-65923717D01*
X34134482Y-65923718D01*
X34246286Y-66035522D01*
X34333097Y-66085641D01*
X34383217Y-66114579D01*
X34505894Y-66147450D01*
X34511214Y-66149412D01*
X34528184Y-66162018D01*
X34549061Y-66174071D01*
X34550001Y-66172926D01*
X34554711Y-66176791D01*
X34685814Y-66264392D01*
X34685827Y-66264399D01*
X34831498Y-66324737D01*
X34831503Y-66324739D01*
X34986153Y-66355501D01*
X34986156Y-66355502D01*
X34986158Y-66355502D01*
X35143844Y-66355502D01*
X35143845Y-66355501D01*
X35298497Y-66324739D01*
X35444179Y-66264396D01*
X35575289Y-66176791D01*
X35686789Y-66065291D01*
X35774394Y-65934181D01*
X35834737Y-65788499D01*
X35865500Y-65633844D01*
X35865500Y-65577208D01*
X35885185Y-65510169D01*
X35915187Y-65477942D01*
X36002546Y-65412546D01*
X36088796Y-65297331D01*
X36095151Y-65280292D01*
X36098555Y-65271167D01*
X36111824Y-65253440D01*
X36121024Y-65233297D01*
X36132354Y-65226015D01*
X36140426Y-65215233D01*
X36161173Y-65207494D01*
X36179802Y-65195523D01*
X36201720Y-65192371D01*
X36205891Y-65190816D01*
X36214737Y-65190500D01*
X36248331Y-65190500D01*
X36248347Y-65190501D01*
X36255943Y-65190501D01*
X36414054Y-65190501D01*
X36414057Y-65190501D01*
X36566785Y-65149577D01*
X36647680Y-65102872D01*
X36703716Y-65070520D01*
X36758102Y-65016133D01*
X36764359Y-65011299D01*
X36789825Y-65001354D01*
X36813819Y-64988253D01*
X36821898Y-64988830D01*
X36829443Y-64985885D01*
X36856242Y-64991286D01*
X36883510Y-64993237D01*
X36889993Y-64998090D01*
X36897935Y-64999691D01*
X36917562Y-65018728D01*
X36939444Y-65035108D01*
X36943280Y-65040529D01*
X36983207Y-65100284D01*
X36983213Y-65100292D01*
X37094707Y-65211786D01*
X37094711Y-65211789D01*
X37225814Y-65299390D01*
X37225827Y-65299397D01*
X37371498Y-65359735D01*
X37371503Y-65359737D01*
X37524574Y-65390185D01*
X37526153Y-65390499D01*
X37526156Y-65390500D01*
X37526158Y-65390500D01*
X37683843Y-65390500D01*
X37729398Y-65381438D01*
X37772408Y-65372882D01*
X37796599Y-65370500D01*
X39125236Y-65370500D01*
X39192275Y-65390185D01*
X39194127Y-65391398D01*
X39325816Y-65479390D01*
X39325829Y-65479397D01*
X39471500Y-65539735D01*
X39471505Y-65539737D01*
X39626155Y-65570499D01*
X39626158Y-65570500D01*
X39626160Y-65570500D01*
X39783846Y-65570500D01*
X39783847Y-65570499D01*
X39938499Y-65539737D01*
X40084181Y-65479394D01*
X40215291Y-65391789D01*
X40326791Y-65280289D01*
X40414396Y-65149179D01*
X40474739Y-65003497D01*
X40505502Y-64848842D01*
X40505502Y-64691158D01*
X40505502Y-64691155D01*
X40505501Y-64691153D01*
X40474740Y-64536510D01*
X40474739Y-64536503D01*
X40474737Y-64536498D01*
X40414399Y-64390827D01*
X40414392Y-64390814D01*
X40326791Y-64259711D01*
X40326788Y-64259707D01*
X40215294Y-64148213D01*
X40215290Y-64148210D01*
X40084187Y-64060609D01*
X40084174Y-64060602D01*
X39938503Y-64000264D01*
X39938491Y-64000261D01*
X39783847Y-63969500D01*
X39783844Y-63969500D01*
X39626160Y-63969500D01*
X39626157Y-63969500D01*
X39471512Y-64000261D01*
X39471500Y-64000264D01*
X39325829Y-64060602D01*
X39325816Y-64060609D01*
X39194127Y-64148602D01*
X39127449Y-64169480D01*
X39125236Y-64169500D01*
X38353064Y-64169500D01*
X38351956Y-64169174D01*
X38350843Y-64169480D01*
X38318501Y-64159351D01*
X38286025Y-64149815D01*
X38284909Y-64148830D01*
X38284166Y-64148598D01*
X38280574Y-64145006D01*
X38257911Y-64125011D01*
X38253651Y-64119913D01*
X38226789Y-64079711D01*
X38185841Y-64038763D01*
X38182288Y-64034511D01*
X38170467Y-64007350D01*
X38156275Y-63981358D01*
X38156681Y-63975671D01*
X38154407Y-63970445D01*
X38159145Y-63941213D01*
X38161259Y-63911666D01*
X38164839Y-63906095D01*
X38165588Y-63901476D01*
X38173388Y-63892793D01*
X38189760Y-63867319D01*
X38226786Y-63830292D01*
X38226789Y-63830289D01*
X38314394Y-63699179D01*
X38374737Y-63553497D01*
X38405500Y-63398842D01*
X38405500Y-63241158D01*
X38405500Y-63241155D01*
X38405499Y-63241153D01*
X38374738Y-63086510D01*
X38374738Y-63086508D01*
X38374737Y-63086503D01*
X38374735Y-63086498D01*
X38314397Y-62940827D01*
X38314390Y-62940814D01*
X38226789Y-62809711D01*
X38226786Y-62809707D01*
X38115292Y-62698213D01*
X38115288Y-62698210D01*
X37984185Y-62610609D01*
X37984172Y-62610602D01*
X37838501Y-62550264D01*
X37838489Y-62550261D01*
X37683845Y-62519500D01*
X37683842Y-62519500D01*
X37526158Y-62519500D01*
X37526155Y-62519500D01*
X37371510Y-62550261D01*
X37371498Y-62550264D01*
X37225827Y-62610602D01*
X37225814Y-62610609D01*
X37094711Y-62698210D01*
X37094707Y-62698213D01*
X36983213Y-62809707D01*
X36983210Y-62809711D01*
X36895609Y-62940814D01*
X36895602Y-62940827D01*
X36835264Y-63086498D01*
X36835261Y-63086508D01*
X36804361Y-63241850D01*
X36771976Y-63303761D01*
X36770425Y-63305339D01*
X36234636Y-63841127D01*
X36173313Y-63874612D01*
X36103621Y-63869628D01*
X36047689Y-63827758D01*
X36002546Y-63767454D01*
X35948305Y-63726849D01*
X35887335Y-63681206D01*
X35887328Y-63681202D01*
X35752482Y-63630908D01*
X35752483Y-63630908D01*
X35692883Y-63624501D01*
X35692881Y-63624500D01*
X35692873Y-63624500D01*
X35692864Y-63624500D01*
X34727129Y-63624500D01*
X34727123Y-63624501D01*
X34667516Y-63630908D01*
X34532671Y-63681202D01*
X34532665Y-63681205D01*
X34504309Y-63702433D01*
X34438845Y-63726849D01*
X34370572Y-63711997D01*
X34355691Y-63702433D01*
X34327334Y-63681205D01*
X34327328Y-63681202D01*
X34192482Y-63630908D01*
X34192483Y-63630908D01*
X34132883Y-63624501D01*
X34132881Y-63624500D01*
X34132873Y-63624500D01*
X34132864Y-63624500D01*
X33167129Y-63624500D01*
X33167123Y-63624501D01*
X33107516Y-63630908D01*
X32972671Y-63681202D01*
X32972664Y-63681206D01*
X32857455Y-63767452D01*
X32857452Y-63767455D01*
X32771206Y-63882664D01*
X32771202Y-63882671D01*
X32720908Y-64017517D01*
X32714501Y-64077116D01*
X32714500Y-64077135D01*
X31615500Y-64077135D01*
X31615500Y-60232135D01*
X52638438Y-60232135D01*
X52638438Y-61327870D01*
X52638439Y-61327876D01*
X52644846Y-61387483D01*
X52695140Y-61522328D01*
X52695144Y-61522335D01*
X52781390Y-61637544D01*
X52781393Y-61637547D01*
X52896602Y-61723793D01*
X52896609Y-61723797D01*
X52941556Y-61740561D01*
X53031455Y-61774091D01*
X53091065Y-61780500D01*
X53788840Y-61780499D01*
X53855879Y-61800183D01*
X53876521Y-61816818D01*
X54147119Y-62087416D01*
X54180604Y-62148739D01*
X54183438Y-62175097D01*
X54183438Y-62465500D01*
X54163753Y-62532539D01*
X54110949Y-62578294D01*
X54059438Y-62589500D01*
X53461067Y-62589500D01*
X53461061Y-62589501D01*
X53401454Y-62595908D01*
X53266609Y-62646202D01*
X53266602Y-62646206D01*
X53151393Y-62732452D01*
X53151390Y-62732455D01*
X53065144Y-62847664D01*
X53065140Y-62847671D01*
X53014846Y-62982517D01*
X53008439Y-63042116D01*
X53008439Y-63042123D01*
X53008438Y-63042135D01*
X53008438Y-64867870D01*
X53008439Y-64867876D01*
X53014846Y-64927483D01*
X53065140Y-65062328D01*
X53065144Y-65062335D01*
X53151390Y-65177544D01*
X53151393Y-65177547D01*
X53266602Y-65263793D01*
X53266609Y-65263797D01*
X53401455Y-65314091D01*
X53401454Y-65314091D01*
X53408382Y-65314835D01*
X53461065Y-65320500D01*
X54266810Y-65320499D01*
X54310683Y-65315782D01*
X54337189Y-65315782D01*
X54381065Y-65320500D01*
X55186810Y-65320499D01*
X55246421Y-65314091D01*
X55381269Y-65263796D01*
X55496484Y-65177546D01*
X55582734Y-65062331D01*
X55633029Y-64927483D01*
X55639438Y-64867873D01*
X55639437Y-63042128D01*
X55633029Y-62982517D01*
X55617477Y-62940821D01*
X55582735Y-62847671D01*
X55582731Y-62847664D01*
X55496486Y-62732457D01*
X55496484Y-62732454D01*
X55496480Y-62732451D01*
X55496477Y-62732448D01*
X55434127Y-62685772D01*
X55392256Y-62629838D01*
X55384438Y-62586506D01*
X55384438Y-61964059D01*
X55384439Y-61964046D01*
X55384439Y-61795945D01*
X55384439Y-61795943D01*
X55380167Y-61780000D01*
X55638938Y-61780000D01*
X55986766Y-61780000D01*
X55986782Y-61779999D01*
X56046310Y-61773598D01*
X56046317Y-61773596D01*
X56181024Y-61723354D01*
X56181031Y-61723350D01*
X56296125Y-61637190D01*
X56296128Y-61637187D01*
X56382288Y-61522093D01*
X56382292Y-61522086D01*
X56432534Y-61387379D01*
X56432536Y-61387372D01*
X56438937Y-61327844D01*
X56438938Y-61327827D01*
X56438938Y-61030000D01*
X55638938Y-61030000D01*
X55638938Y-61780000D01*
X55380167Y-61780000D01*
X55343515Y-61643215D01*
X55314577Y-61593095D01*
X55264458Y-61506284D01*
X55175256Y-61417082D01*
X55141772Y-61355758D01*
X55138938Y-61329401D01*
X55138938Y-60530000D01*
X55638938Y-60530000D01*
X56438938Y-60530000D01*
X56438938Y-60232172D01*
X56438937Y-60232155D01*
X56432536Y-60172627D01*
X56432534Y-60172620D01*
X56382292Y-60037913D01*
X56382288Y-60037906D01*
X56296128Y-59922812D01*
X56296125Y-59922809D01*
X56181031Y-59836649D01*
X56181024Y-59836645D01*
X56046317Y-59786403D01*
X56046310Y-59786401D01*
X55986782Y-59780000D01*
X55638938Y-59780000D01*
X55638938Y-60530000D01*
X55138938Y-60530000D01*
X55138938Y-59780000D01*
X54791093Y-59780000D01*
X54731565Y-59786401D01*
X54731558Y-59786403D01*
X54588539Y-59839746D01*
X54587862Y-59837931D01*
X54530612Y-59850383D01*
X54489905Y-59838428D01*
X54489579Y-59839303D01*
X54346420Y-59785908D01*
X54346421Y-59785908D01*
X54286821Y-59779501D01*
X54286819Y-59779500D01*
X54286811Y-59779500D01*
X54286802Y-59779500D01*
X53091067Y-59779500D01*
X53091061Y-59779501D01*
X53031454Y-59785908D01*
X52896609Y-59836202D01*
X52896602Y-59836206D01*
X52781393Y-59922452D01*
X52781390Y-59922455D01*
X52695144Y-60037664D01*
X52695140Y-60037671D01*
X52644846Y-60172517D01*
X52638439Y-60232116D01*
X52638438Y-60232135D01*
X31615500Y-60232135D01*
X31615500Y-48915446D01*
X31635185Y-48848407D01*
X31687989Y-48802652D01*
X31757147Y-48792708D01*
X31808391Y-48812344D01*
X31934473Y-48896590D01*
X31934486Y-48896597D01*
X32121016Y-48973859D01*
X32121025Y-48973862D01*
X32319041Y-49013249D01*
X32319045Y-49013250D01*
X32770000Y-49013250D01*
X32770000Y-48313250D01*
X33270000Y-48313250D01*
X33270000Y-49013250D01*
X33720955Y-49013250D01*
X33720958Y-49013249D01*
X33918974Y-48973862D01*
X33918983Y-48973859D01*
X34105513Y-48896597D01*
X34105526Y-48896590D01*
X34273399Y-48784420D01*
X34273403Y-48784417D01*
X34416167Y-48641653D01*
X34416170Y-48641649D01*
X34528340Y-48473776D01*
X34528347Y-48473763D01*
X34605609Y-48287233D01*
X34605612Y-48287224D01*
X34615353Y-48238250D01*
X33829618Y-48238250D01*
X33880064Y-48187804D01*
X33922851Y-48113695D01*
X33945000Y-48031037D01*
X33945000Y-47945463D01*
X33922851Y-47862805D01*
X33880064Y-47788696D01*
X33829618Y-47738250D01*
X34615353Y-47738250D01*
X34605612Y-47689275D01*
X34605611Y-47689274D01*
X34593570Y-47660204D01*
X34586101Y-47590734D01*
X34617376Y-47528255D01*
X34677464Y-47492602D01*
X34708131Y-47488750D01*
X35531869Y-47488750D01*
X35598908Y-47508435D01*
X35644663Y-47561239D01*
X35654607Y-47630397D01*
X35646430Y-47660204D01*
X35634388Y-47689274D01*
X35634387Y-47689275D01*
X35624647Y-47738250D01*
X36410382Y-47738250D01*
X36359936Y-47788696D01*
X36317149Y-47862805D01*
X36295000Y-47945463D01*
X36295000Y-48031037D01*
X36317149Y-48113695D01*
X36359936Y-48187804D01*
X36410382Y-48238250D01*
X35624647Y-48238250D01*
X35634387Y-48287224D01*
X35634390Y-48287233D01*
X35711652Y-48473763D01*
X35711659Y-48473776D01*
X35823829Y-48641649D01*
X35823832Y-48641653D01*
X35966596Y-48784417D01*
X35966600Y-48784420D01*
X36134473Y-48896590D01*
X36134486Y-48896597D01*
X36321016Y-48973859D01*
X36321025Y-48973862D01*
X36519041Y-49013249D01*
X36525107Y-49013847D01*
X36524826Y-49016697D01*
X36580124Y-49032935D01*
X36625879Y-49085739D01*
X36635823Y-49154897D01*
X36627646Y-49184699D01*
X36614151Y-49217282D01*
X36587550Y-49281502D01*
X36587548Y-49281510D01*
X36556787Y-49436153D01*
X36556787Y-49593846D01*
X36587548Y-49748489D01*
X36587551Y-49748501D01*
X36647889Y-49894172D01*
X36647896Y-49894185D01*
X36735497Y-50025288D01*
X36735500Y-50025292D01*
X36846994Y-50136786D01*
X36846998Y-50136789D01*
X36978101Y-50224390D01*
X36978114Y-50224397D01*
X37123785Y-50284735D01*
X37123790Y-50284737D01*
X37278440Y-50315499D01*
X37278443Y-50315500D01*
X37278445Y-50315500D01*
X37436131Y-50315500D01*
X37436132Y-50315499D01*
X37590784Y-50284737D01*
X37736466Y-50224394D01*
X37867576Y-50136789D01*
X37888701Y-50115664D01*
X37922818Y-50081548D01*
X37942251Y-50070936D01*
X37958987Y-50056435D01*
X37972319Y-50054517D01*
X37984141Y-50048063D01*
X38006227Y-50049642D01*
X38028145Y-50046491D01*
X38040396Y-50052086D01*
X38053833Y-50053047D01*
X38071561Y-50066318D01*
X38091701Y-50075516D01*
X38098983Y-50086846D01*
X38109766Y-50094919D01*
X38117503Y-50115664D01*
X38129476Y-50134293D01*
X38132627Y-50156212D01*
X38134183Y-50160383D01*
X38134499Y-50169228D01*
X38134499Y-50309057D01*
X38134499Y-50309059D01*
X38134500Y-50319053D01*
X38134500Y-50499903D01*
X38114815Y-50566942D01*
X38098181Y-50587584D01*
X37820173Y-50865591D01*
X37758850Y-50899076D01*
X37756684Y-50899527D01*
X37601342Y-50930427D01*
X37601332Y-50930430D01*
X37455661Y-50990768D01*
X37455648Y-50990775D01*
X37324545Y-51078376D01*
X37324541Y-51078379D01*
X37213047Y-51189873D01*
X37213044Y-51189877D01*
X37125443Y-51320980D01*
X37125436Y-51320993D01*
X37065098Y-51466664D01*
X37065095Y-51466676D01*
X37034334Y-51621319D01*
X37034334Y-51779012D01*
X37065095Y-51933655D01*
X37065098Y-51933667D01*
X37125436Y-52079338D01*
X37125443Y-52079351D01*
X37213044Y-52210454D01*
X37213047Y-52210458D01*
X37324541Y-52321952D01*
X37324545Y-52321955D01*
X37455648Y-52409556D01*
X37455661Y-52409563D01*
X37601332Y-52469901D01*
X37601337Y-52469903D01*
X37755987Y-52500665D01*
X37755990Y-52500666D01*
X37755992Y-52500666D01*
X37913678Y-52500666D01*
X37913679Y-52500665D01*
X38068331Y-52469903D01*
X38214013Y-52409560D01*
X38345123Y-52321955D01*
X38456623Y-52210455D01*
X38544228Y-52079345D01*
X38604571Y-51933663D01*
X38623947Y-51836251D01*
X38635472Y-51778316D01*
X38667857Y-51716405D01*
X38669356Y-51714878D01*
X39093506Y-51290727D01*
X39093511Y-51290724D01*
X39103714Y-51280520D01*
X39103716Y-51280520D01*
X39215520Y-51168716D01*
X39284253Y-51049666D01*
X39294577Y-51031785D01*
X39335501Y-50879057D01*
X39335501Y-50870061D01*
X39340560Y-50853425D01*
X39354354Y-50832406D01*
X39364525Y-50809417D01*
X39373195Y-50803698D01*
X39378896Y-50795012D01*
X39401866Y-50784787D01*
X39422849Y-50770947D01*
X39438088Y-50768663D01*
X39442728Y-50766598D01*
X39447242Y-50767291D01*
X39459196Y-50765500D01*
X40796556Y-50765500D01*
X40796572Y-50765501D01*
X40804168Y-50765501D01*
X40962279Y-50765501D01*
X40962282Y-50765501D01*
X41115010Y-50724577D01*
X41165129Y-50695639D01*
X41251941Y-50645520D01*
X41363745Y-50533716D01*
X41363745Y-50533714D01*
X41373953Y-50523507D01*
X41373955Y-50523504D01*
X42268506Y-49628953D01*
X42268511Y-49628949D01*
X42278714Y-49618745D01*
X42278716Y-49618745D01*
X42390520Y-49506941D01*
X42413261Y-49467552D01*
X42458230Y-49389664D01*
X42458231Y-49389661D01*
X42469577Y-49370010D01*
X42510500Y-49217282D01*
X42510500Y-49059168D01*
X42510500Y-48769116D01*
X42510501Y-48769103D01*
X42510501Y-48601002D01*
X42510501Y-48601000D01*
X42469577Y-48448272D01*
X42440639Y-48398152D01*
X42390520Y-48311341D01*
X42278716Y-48199537D01*
X42278715Y-48199536D01*
X42274385Y-48195206D01*
X42274374Y-48195196D01*
X41791858Y-47712680D01*
X41758373Y-47651357D01*
X41763357Y-47581665D01*
X41791854Y-47537323D01*
X43538506Y-45790670D01*
X43538511Y-45790667D01*
X43548714Y-45780463D01*
X43548716Y-45780463D01*
X43660520Y-45668659D01*
X43664510Y-45661746D01*
X43720067Y-45565521D01*
X43720068Y-45565518D01*
X43739576Y-45531730D01*
X43739577Y-45531728D01*
X43780500Y-45379000D01*
X43780500Y-45220886D01*
X43780500Y-43904060D01*
X43780501Y-43904047D01*
X43780501Y-43735944D01*
X43773972Y-43711578D01*
X43739577Y-43583216D01*
X43731079Y-43568497D01*
X43660524Y-43446290D01*
X43660518Y-43446282D01*
X43470389Y-43256153D01*
X46499500Y-43256153D01*
X46499500Y-43413846D01*
X46530261Y-43568489D01*
X46530264Y-43568501D01*
X46590602Y-43714172D01*
X46590609Y-43714185D01*
X46678210Y-43845288D01*
X46678213Y-43845292D01*
X46789707Y-43956786D01*
X46789711Y-43956789D01*
X46920814Y-44044390D01*
X46920827Y-44044397D01*
X47066498Y-44104735D01*
X47066503Y-44104737D01*
X47221153Y-44135499D01*
X47221156Y-44135500D01*
X47221158Y-44135500D01*
X47378844Y-44135500D01*
X47378845Y-44135499D01*
X47533497Y-44104737D01*
X47679179Y-44044394D01*
X47810289Y-43956789D01*
X47921789Y-43845289D01*
X47928256Y-43835611D01*
X47981867Y-43790805D01*
X48031359Y-43780500D01*
X49585234Y-43780500D01*
X49652273Y-43800185D01*
X49654125Y-43801398D01*
X49785814Y-43889390D01*
X49785827Y-43889397D01*
X49877564Y-43927395D01*
X49931503Y-43949737D01*
X50086153Y-43980499D01*
X50086156Y-43980500D01*
X50086158Y-43980500D01*
X50243844Y-43980500D01*
X50243845Y-43980499D01*
X50398497Y-43949737D01*
X50544179Y-43889394D01*
X50675289Y-43801789D01*
X50786789Y-43690289D01*
X50874394Y-43559179D01*
X50934737Y-43413497D01*
X50965500Y-43258842D01*
X50965500Y-43101158D01*
X50965500Y-43101155D01*
X50965499Y-43101153D01*
X50946961Y-43007957D01*
X50934737Y-42946503D01*
X50934735Y-42946498D01*
X50874397Y-42800827D01*
X50874390Y-42800814D01*
X50786789Y-42669711D01*
X50786786Y-42669707D01*
X50675292Y-42558213D01*
X50675288Y-42558210D01*
X50544185Y-42470609D01*
X50544172Y-42470602D01*
X50398501Y-42410264D01*
X50398489Y-42410261D01*
X50243845Y-42379500D01*
X50243842Y-42379500D01*
X50086158Y-42379500D01*
X50086155Y-42379500D01*
X49931510Y-42410261D01*
X49931498Y-42410264D01*
X49785827Y-42470602D01*
X49785814Y-42470609D01*
X49654125Y-42558602D01*
X49587447Y-42579480D01*
X49585234Y-42579500D01*
X47592533Y-42579500D01*
X47545080Y-42570061D01*
X47533497Y-42565263D01*
X47533489Y-42565261D01*
X47378845Y-42534500D01*
X47378842Y-42534500D01*
X47221158Y-42534500D01*
X47221155Y-42534500D01*
X47066510Y-42565261D01*
X47066498Y-42565264D01*
X46920827Y-42625602D01*
X46920814Y-42625609D01*
X46789711Y-42713210D01*
X46789707Y-42713213D01*
X46678213Y-42824707D01*
X46678210Y-42824711D01*
X46590609Y-42955814D01*
X46590602Y-42955827D01*
X46530264Y-43101498D01*
X46530261Y-43101510D01*
X46499500Y-43256153D01*
X43470389Y-43256153D01*
X43379573Y-43165337D01*
X43346088Y-43104014D01*
X43345637Y-43101847D01*
X43326961Y-43007957D01*
X43314737Y-42946503D01*
X43314735Y-42946498D01*
X43254397Y-42800827D01*
X43254390Y-42800814D01*
X43166789Y-42669711D01*
X43166786Y-42669707D01*
X43055292Y-42558213D01*
X43055288Y-42558210D01*
X42924185Y-42470609D01*
X42924172Y-42470602D01*
X42778501Y-42410264D01*
X42778489Y-42410261D01*
X42623845Y-42379500D01*
X42623842Y-42379500D01*
X42466158Y-42379500D01*
X42466155Y-42379500D01*
X42311510Y-42410261D01*
X42311498Y-42410264D01*
X42165827Y-42470602D01*
X42165814Y-42470609D01*
X42034711Y-42558210D01*
X42034707Y-42558213D01*
X41997681Y-42595240D01*
X41936358Y-42628725D01*
X41866666Y-42623741D01*
X41822319Y-42595240D01*
X41785292Y-42558213D01*
X41785288Y-42558210D01*
X41654185Y-42470609D01*
X41654172Y-42470602D01*
X41508501Y-42410264D01*
X41508489Y-42410261D01*
X41353845Y-42379500D01*
X41353842Y-42379500D01*
X41196158Y-42379500D01*
X41196155Y-42379500D01*
X41041510Y-42410261D01*
X41041498Y-42410264D01*
X40895827Y-42470602D01*
X40895814Y-42470609D01*
X40764711Y-42558210D01*
X40764707Y-42558213D01*
X40653213Y-42669707D01*
X40574785Y-42787082D01*
X40521172Y-42831886D01*
X40451847Y-42840593D01*
X40402793Y-42821293D01*
X40384183Y-42808858D01*
X40384172Y-42808852D01*
X40238501Y-42748514D01*
X40238489Y-42748511D01*
X40083845Y-42717750D01*
X40083842Y-42717750D01*
X39926158Y-42717750D01*
X39926155Y-42717750D01*
X39771510Y-42748511D01*
X39771498Y-42748514D01*
X39625827Y-42808852D01*
X39625814Y-42808859D01*
X39494711Y-42896460D01*
X39494707Y-42896463D01*
X39383213Y-43007957D01*
X39383210Y-43007961D01*
X39295609Y-43139064D01*
X39295602Y-43139077D01*
X39235264Y-43284748D01*
X39235261Y-43284760D01*
X39204500Y-43439403D01*
X39204500Y-43597096D01*
X39235261Y-43751739D01*
X39235264Y-43751751D01*
X39295602Y-43897422D01*
X39295609Y-43897435D01*
X39383602Y-44029124D01*
X39404480Y-44095801D01*
X39404500Y-44098015D01*
X39404500Y-46275939D01*
X39404499Y-46275943D01*
X39404499Y-46434057D01*
X39404500Y-46434060D01*
X39404500Y-47538330D01*
X39404499Y-47538348D01*
X39404499Y-47704054D01*
X39404498Y-47704054D01*
X39445423Y-47856785D01*
X39474358Y-47906900D01*
X39474359Y-47906904D01*
X39474360Y-47906904D01*
X39524479Y-47993714D01*
X39524481Y-47993717D01*
X39643351Y-48112587D01*
X39643355Y-48112590D01*
X40012961Y-48482197D01*
X40046446Y-48543520D01*
X40041462Y-48613212D01*
X39999590Y-48669145D01*
X39934126Y-48693562D01*
X39925280Y-48693878D01*
X39836130Y-48693878D01*
X39728903Y-48715207D01*
X39659311Y-48708980D01*
X39617030Y-48681271D01*
X39519240Y-48583481D01*
X39519239Y-48583480D01*
X39426542Y-48529962D01*
X39426541Y-48529961D01*
X39382306Y-48504422D01*
X39326404Y-48489443D01*
X39229580Y-48463499D01*
X39071466Y-48463499D01*
X39063870Y-48463499D01*
X39063854Y-48463500D01*
X38518176Y-48463500D01*
X38451137Y-48443815D01*
X38405382Y-48391011D01*
X38395438Y-48321853D01*
X38403615Y-48292048D01*
X38405609Y-48287233D01*
X38405612Y-48287224D01*
X38415353Y-48238250D01*
X37629618Y-48238250D01*
X37680064Y-48187804D01*
X37722851Y-48113695D01*
X37745000Y-48031037D01*
X37745000Y-47945463D01*
X37722851Y-47862805D01*
X37680064Y-47788696D01*
X37629618Y-47738250D01*
X38415353Y-47738250D01*
X38405612Y-47689275D01*
X38405609Y-47689266D01*
X38328347Y-47502736D01*
X38328340Y-47502723D01*
X38216171Y-47334852D01*
X38208421Y-47327102D01*
X38174934Y-47265780D01*
X38179915Y-47196088D01*
X38183285Y-47188935D01*
X38186387Y-47181443D01*
X38186392Y-47181436D01*
X38220500Y-47054142D01*
X38220500Y-40863153D01*
X40262235Y-40863153D01*
X40262235Y-41020846D01*
X40292996Y-41175489D01*
X40292999Y-41175501D01*
X40353337Y-41321172D01*
X40353344Y-41321185D01*
X40440945Y-41452288D01*
X40440948Y-41452292D01*
X40552442Y-41563786D01*
X40552446Y-41563789D01*
X40683549Y-41651390D01*
X40683562Y-41651397D01*
X40770965Y-41687599D01*
X40829238Y-41711737D01*
X40833866Y-41712657D01*
X40877153Y-41730241D01*
X40888114Y-41737350D01*
X40906284Y-41755520D01*
X40993095Y-41805639D01*
X40995881Y-41807247D01*
X40995891Y-41807254D01*
X41029571Y-41826699D01*
X41043215Y-41834577D01*
X41195943Y-41875501D01*
X41195946Y-41875501D01*
X41361653Y-41875501D01*
X41361669Y-41875500D01*
X41823331Y-41875500D01*
X41823347Y-41875501D01*
X41830943Y-41875501D01*
X41989054Y-41875501D01*
X41989057Y-41875501D01*
X42141785Y-41834577D01*
X42191904Y-41805639D01*
X42278716Y-41755520D01*
X42390520Y-41643716D01*
X42390521Y-41643713D01*
X42460239Y-41573995D01*
X57719499Y-41573995D01*
X57746418Y-41709322D01*
X57746421Y-41709332D01*
X57799221Y-41836804D01*
X57799228Y-41836817D01*
X57875885Y-41951541D01*
X57875888Y-41951545D01*
X57973454Y-42049111D01*
X57973458Y-42049114D01*
X58088182Y-42125771D01*
X58088195Y-42125778D01*
X58215667Y-42178578D01*
X58215672Y-42178580D01*
X58215676Y-42178580D01*
X58215677Y-42178581D01*
X58351004Y-42205500D01*
X58351007Y-42205500D01*
X58488995Y-42205500D01*
X58580041Y-42187389D01*
X58624328Y-42178580D01*
X58751811Y-42125775D01*
X58866542Y-42049114D01*
X58964114Y-41951542D01*
X59040775Y-41836811D01*
X59093580Y-41709328D01*
X59120500Y-41573993D01*
X59120500Y-41436007D01*
X59120500Y-41436004D01*
X59093581Y-41300677D01*
X59093580Y-41300676D01*
X59093580Y-41300672D01*
X59041733Y-41175501D01*
X59040778Y-41173195D01*
X59040771Y-41173182D01*
X58964114Y-41058458D01*
X58964111Y-41058454D01*
X58866545Y-40960888D01*
X58866541Y-40960885D01*
X58751817Y-40884228D01*
X58751804Y-40884221D01*
X58624332Y-40831421D01*
X58624322Y-40831418D01*
X58488995Y-40804500D01*
X58488993Y-40804500D01*
X58351007Y-40804500D01*
X58351005Y-40804500D01*
X58215677Y-40831418D01*
X58215667Y-40831421D01*
X58088195Y-40884221D01*
X58088182Y-40884228D01*
X57973458Y-40960885D01*
X57973454Y-40960888D01*
X57875888Y-41058454D01*
X57875885Y-41058458D01*
X57799228Y-41173182D01*
X57799221Y-41173195D01*
X57746421Y-41300667D01*
X57746418Y-41300677D01*
X57719500Y-41436004D01*
X57719500Y-41436007D01*
X57719500Y-41573993D01*
X57719500Y-41573995D01*
X57719499Y-41573995D01*
X42460239Y-41573995D01*
X42559664Y-41474570D01*
X42620983Y-41441089D01*
X42623150Y-41440638D01*
X42681085Y-41429113D01*
X42778497Y-41409737D01*
X42924179Y-41349394D01*
X42924185Y-41349390D01*
X42957975Y-41326813D01*
X43010718Y-41291570D01*
X43055289Y-41261789D01*
X43166789Y-41150289D01*
X43254394Y-41019179D01*
X43314737Y-40873497D01*
X43345500Y-40718842D01*
X43345500Y-40561158D01*
X43345500Y-40561155D01*
X43345499Y-40561153D01*
X43314738Y-40406510D01*
X43314737Y-40406503D01*
X43278994Y-40320210D01*
X43254397Y-40260827D01*
X43254390Y-40260814D01*
X43166789Y-40129711D01*
X43166786Y-40129707D01*
X43055292Y-40018213D01*
X43055288Y-40018210D01*
X42924185Y-39930609D01*
X42924172Y-39930602D01*
X42778501Y-39870264D01*
X42778489Y-39870261D01*
X42623845Y-39839500D01*
X42623842Y-39839500D01*
X42466158Y-39839500D01*
X42466155Y-39839500D01*
X42311510Y-39870261D01*
X42311498Y-39870264D01*
X42165827Y-39930602D01*
X42165814Y-39930609D01*
X42034711Y-40018210D01*
X42034707Y-40018213D01*
X41923213Y-40129707D01*
X41923210Y-40129711D01*
X41835609Y-40260814D01*
X41835606Y-40260821D01*
X41812320Y-40317037D01*
X41768478Y-40371440D01*
X41702183Y-40393504D01*
X41634484Y-40376224D01*
X41610078Y-40357264D01*
X41573027Y-40320213D01*
X41573023Y-40320210D01*
X41441920Y-40232609D01*
X41441907Y-40232602D01*
X41296236Y-40172264D01*
X41296224Y-40172261D01*
X41141580Y-40141500D01*
X41141577Y-40141500D01*
X40983893Y-40141500D01*
X40983890Y-40141500D01*
X40829245Y-40172261D01*
X40829233Y-40172264D01*
X40683562Y-40232602D01*
X40683549Y-40232609D01*
X40552446Y-40320210D01*
X40552442Y-40320213D01*
X40440948Y-40431707D01*
X40440945Y-40431711D01*
X40353344Y-40562814D01*
X40353337Y-40562827D01*
X40292999Y-40708498D01*
X40292996Y-40708510D01*
X40262235Y-40863153D01*
X38220500Y-40863153D01*
X38220500Y-38573995D01*
X57719499Y-38573995D01*
X57746418Y-38709322D01*
X57746421Y-38709332D01*
X57799221Y-38836804D01*
X57799228Y-38836817D01*
X57875885Y-38951541D01*
X57875888Y-38951545D01*
X57973454Y-39049111D01*
X57973458Y-39049114D01*
X58088182Y-39125771D01*
X58088195Y-39125778D01*
X58215667Y-39178578D01*
X58215672Y-39178580D01*
X58215676Y-39178580D01*
X58215677Y-39178581D01*
X58351004Y-39205500D01*
X58351007Y-39205500D01*
X58488995Y-39205500D01*
X58580041Y-39187389D01*
X58624328Y-39178580D01*
X58751811Y-39125775D01*
X58866542Y-39049114D01*
X58964114Y-38951542D01*
X59040775Y-38836811D01*
X59093580Y-38709328D01*
X59120500Y-38573993D01*
X59120500Y-38436007D01*
X59120500Y-38436004D01*
X59093581Y-38300677D01*
X59093580Y-38300676D01*
X59093580Y-38300672D01*
X59093578Y-38300667D01*
X59040778Y-38173195D01*
X59040771Y-38173182D01*
X58964114Y-38058458D01*
X58964111Y-38058454D01*
X58866545Y-37960888D01*
X58866541Y-37960885D01*
X58751817Y-37884228D01*
X58751804Y-37884221D01*
X58624332Y-37831421D01*
X58624322Y-37831418D01*
X58488995Y-37804500D01*
X58488993Y-37804500D01*
X58351007Y-37804500D01*
X58351005Y-37804500D01*
X58215677Y-37831418D01*
X58215667Y-37831421D01*
X58088195Y-37884221D01*
X58088182Y-37884228D01*
X57973458Y-37960885D01*
X57973454Y-37960888D01*
X57875888Y-38058454D01*
X57875885Y-38058458D01*
X57799228Y-38173182D01*
X57799221Y-38173195D01*
X57746421Y-38300667D01*
X57746418Y-38300677D01*
X57719500Y-38436004D01*
X57719500Y-38436007D01*
X57719500Y-38573993D01*
X57719500Y-38573995D01*
X57719499Y-38573995D01*
X38220500Y-38573995D01*
X38220500Y-37682358D01*
X38186392Y-37555064D01*
X38186388Y-37555057D01*
X38183281Y-37547554D01*
X38185673Y-37546562D01*
X38172240Y-37491176D01*
X38195095Y-37425151D01*
X38208421Y-37409397D01*
X38216173Y-37401644D01*
X38328340Y-37233776D01*
X38328347Y-37233763D01*
X38405609Y-37047233D01*
X38405612Y-37047224D01*
X38415353Y-36998250D01*
X37629618Y-36998250D01*
X37680064Y-36947804D01*
X37722851Y-36873695D01*
X37745000Y-36791037D01*
X37745000Y-36705463D01*
X37722851Y-36622805D01*
X37680064Y-36548696D01*
X37629618Y-36498250D01*
X38415353Y-36498250D01*
X38405612Y-36449275D01*
X38405609Y-36449266D01*
X38328347Y-36262736D01*
X38328340Y-36262723D01*
X38216170Y-36094850D01*
X38216167Y-36094846D01*
X38073403Y-35952082D01*
X38073399Y-35952079D01*
X37905526Y-35839909D01*
X37905513Y-35839902D01*
X37718983Y-35762640D01*
X37718974Y-35762637D01*
X37520958Y-35723250D01*
X37270000Y-35723250D01*
X37270000Y-36423250D01*
X36770000Y-36423250D01*
X36770000Y-35723250D01*
X36519041Y-35723250D01*
X36321025Y-35762637D01*
X36321016Y-35762640D01*
X36134486Y-35839902D01*
X36134473Y-35839909D01*
X35966600Y-35952079D01*
X35966596Y-35952082D01*
X35823832Y-36094846D01*
X35823829Y-36094850D01*
X35711659Y-36262723D01*
X35711652Y-36262736D01*
X35634390Y-36449266D01*
X35634387Y-36449275D01*
X35624647Y-36498250D01*
X36410382Y-36498250D01*
X36359936Y-36548696D01*
X36317149Y-36622805D01*
X36295000Y-36705463D01*
X36295000Y-36791037D01*
X36317149Y-36873695D01*
X36359936Y-36947804D01*
X36410382Y-36998250D01*
X35624647Y-36998250D01*
X35634387Y-37047224D01*
X35634388Y-37047225D01*
X35646430Y-37076296D01*
X35653899Y-37145766D01*
X35622624Y-37208245D01*
X35562536Y-37243898D01*
X35531869Y-37247750D01*
X34708131Y-37247750D01*
X34641092Y-37228065D01*
X34595337Y-37175261D01*
X34585393Y-37106103D01*
X34593570Y-37076296D01*
X34605611Y-37047225D01*
X34605612Y-37047224D01*
X34615353Y-36998250D01*
X33829618Y-36998250D01*
X33880064Y-36947804D01*
X33922851Y-36873695D01*
X33945000Y-36791037D01*
X33945000Y-36705463D01*
X33922851Y-36622805D01*
X33880064Y-36548696D01*
X33829618Y-36498250D01*
X34615353Y-36498250D01*
X34605612Y-36449275D01*
X34605609Y-36449266D01*
X34528347Y-36262736D01*
X34528340Y-36262723D01*
X34416170Y-36094850D01*
X34416167Y-36094846D01*
X34273403Y-35952082D01*
X34273399Y-35952079D01*
X34105526Y-35839909D01*
X34105513Y-35839902D01*
X33918983Y-35762640D01*
X33918974Y-35762637D01*
X33720958Y-35723250D01*
X33270000Y-35723250D01*
X33270000Y-36423250D01*
X32770000Y-36423250D01*
X32770000Y-35723250D01*
X32319041Y-35723250D01*
X32121025Y-35762637D01*
X32121016Y-35762640D01*
X31934486Y-35839902D01*
X31934473Y-35839909D01*
X31808391Y-35924155D01*
X31741713Y-35945033D01*
X31674333Y-35926548D01*
X31627643Y-35874569D01*
X31615500Y-35821053D01*
X31615500Y-35549500D01*
X31635185Y-35482461D01*
X31687989Y-35436706D01*
X31739500Y-35425500D01*
X59700500Y-35425500D01*
X59767539Y-35445185D01*
G37*
%TD.AperFunction*%
%TA.AperFunction,Conductor*%
G36*
X42068390Y-43824292D02*
G01*
X42165821Y-43889394D01*
X42165823Y-43889395D01*
X42165827Y-43889397D01*
X42257564Y-43927395D01*
X42311503Y-43949737D01*
X42466158Y-43980500D01*
X42466847Y-43980637D01*
X42483603Y-43989401D01*
X42502083Y-43993422D01*
X42527121Y-44012166D01*
X42528758Y-44013022D01*
X42530337Y-44014573D01*
X42543181Y-44027417D01*
X42576666Y-44088740D01*
X42579500Y-44115098D01*
X42579500Y-44999846D01*
X42559815Y-45066885D01*
X42543181Y-45087527D01*
X40817181Y-46813527D01*
X40755858Y-46847012D01*
X40686166Y-46842028D01*
X40630233Y-46800156D01*
X40605816Y-46734692D01*
X40605500Y-46725846D01*
X40605500Y-46655096D01*
X40625185Y-46588057D01*
X40641814Y-46567419D01*
X41643713Y-45565521D01*
X41643716Y-45565520D01*
X41755520Y-45453716D01*
X41805639Y-45366904D01*
X41834577Y-45316785D01*
X41875500Y-45164058D01*
X41875500Y-45005943D01*
X41875500Y-43927395D01*
X41895185Y-43860356D01*
X41947989Y-43814601D01*
X42017147Y-43804657D01*
X42068390Y-43824292D01*
G37*
%TD.AperFunction*%
%TD*%
M02*
