%TF.GenerationSoftware,KiCad,Pcbnew,9.0.2*%
%TF.CreationDate,2025-07-20T12:07:01-04:00*%
%TF.ProjectId,Glasses_V0.1,476c6173-7365-4735-9f56-302e312e6b69,rev?*%
%TF.SameCoordinates,Original*%
%TF.FileFunction,Legend,Bot*%
%TF.FilePolarity,Positive*%
%FSLAX46Y46*%
G04 Gerber Fmt 4.6, Leading zero omitted, Abs format (unit mm)*
G04 Created by KiCad (PCBNEW 9.0.2) date 2025-07-20 12:07:01*
%MOMM*%
%LPD*%
G01*
G04 APERTURE LIST*
%ADD10C,0.150000*%
%ADD11C,0.098425*%
G04 APERTURE END LIST*
D10*
X52733996Y-59963459D02*
X52733996Y-58961774D01*
X52733996Y-58961774D02*
X52495500Y-58961774D01*
X52495500Y-58961774D02*
X52352402Y-59009473D01*
X52352402Y-59009473D02*
X52257003Y-59104872D01*
X52257003Y-59104872D02*
X52209304Y-59200270D01*
X52209304Y-59200270D02*
X52161605Y-59391067D01*
X52161605Y-59391067D02*
X52161605Y-59534165D01*
X52161605Y-59534165D02*
X52209304Y-59724962D01*
X52209304Y-59724962D02*
X52257003Y-59820361D01*
X52257003Y-59820361D02*
X52352402Y-59915760D01*
X52352402Y-59915760D02*
X52495500Y-59963459D01*
X52495500Y-59963459D02*
X52733996Y-59963459D01*
X51207619Y-59963459D02*
X51780010Y-59963459D01*
X51493815Y-59963459D02*
X51493815Y-58961774D01*
X51493815Y-58961774D02*
X51589213Y-59104872D01*
X51589213Y-59104872D02*
X51684612Y-59200270D01*
X51684612Y-59200270D02*
X51780010Y-59247970D01*
D11*
X34705616Y-63717014D02*
X34836850Y-63529538D01*
X34930588Y-63717014D02*
X34930588Y-63323313D01*
X34930588Y-63323313D02*
X34780607Y-63323313D01*
X34780607Y-63323313D02*
X34743112Y-63342061D01*
X34743112Y-63342061D02*
X34724364Y-63360809D01*
X34724364Y-63360809D02*
X34705616Y-63398304D01*
X34705616Y-63398304D02*
X34705616Y-63454547D01*
X34705616Y-63454547D02*
X34724364Y-63492042D01*
X34724364Y-63492042D02*
X34743112Y-63510790D01*
X34743112Y-63510790D02*
X34780607Y-63529538D01*
X34780607Y-63529538D02*
X34930588Y-63529538D01*
X34368158Y-63454547D02*
X34368158Y-63717014D01*
X34461897Y-63304566D02*
X34555635Y-63585781D01*
X34555635Y-63585781D02*
X34311915Y-63585781D01*
X54199554Y-62682014D02*
X54330788Y-62494538D01*
X54424526Y-62682014D02*
X54424526Y-62288313D01*
X54424526Y-62288313D02*
X54274545Y-62288313D01*
X54274545Y-62288313D02*
X54237050Y-62307061D01*
X54237050Y-62307061D02*
X54218302Y-62325809D01*
X54218302Y-62325809D02*
X54199554Y-62363304D01*
X54199554Y-62363304D02*
X54199554Y-62419547D01*
X54199554Y-62419547D02*
X54218302Y-62457042D01*
X54218302Y-62457042D02*
X54237050Y-62475790D01*
X54237050Y-62475790D02*
X54274545Y-62494538D01*
X54274545Y-62494538D02*
X54424526Y-62494538D01*
X53862096Y-62288313D02*
X53937087Y-62288313D01*
X53937087Y-62288313D02*
X53974582Y-62307061D01*
X53974582Y-62307061D02*
X53993330Y-62325809D01*
X53993330Y-62325809D02*
X54030825Y-62382052D01*
X54030825Y-62382052D02*
X54049573Y-62457042D01*
X54049573Y-62457042D02*
X54049573Y-62607024D01*
X54049573Y-62607024D02*
X54030825Y-62644519D01*
X54030825Y-62644519D02*
X54012078Y-62663267D01*
X54012078Y-62663267D02*
X53974582Y-62682014D01*
X53974582Y-62682014D02*
X53899592Y-62682014D01*
X53899592Y-62682014D02*
X53862096Y-62663267D01*
X53862096Y-62663267D02*
X53843349Y-62644519D01*
X53843349Y-62644519D02*
X53824601Y-62607024D01*
X53824601Y-62607024D02*
X53824601Y-62513285D01*
X53824601Y-62513285D02*
X53843349Y-62475790D01*
X53843349Y-62475790D02*
X53862096Y-62457042D01*
X53862096Y-62457042D02*
X53899592Y-62438295D01*
X53899592Y-62438295D02*
X53974582Y-62438295D01*
X53974582Y-62438295D02*
X54012078Y-62457042D01*
X54012078Y-62457042D02*
X54030825Y-62475790D01*
X54030825Y-62475790D02*
X54049573Y-62513285D01*
M02*
