%TF.GenerationSoftware,KiCad,Pcbnew,9.0.2*%
%TF.CreationDate,2025-07-20T12:07:01-04:00*%
%TF.ProjectId,Glasses_V0.1,476c6173-7365-4735-9f56-302e312e6b69,rev?*%
%TF.SameCoordinates,Original*%
%TF.FileFunction,Copper,L1,Top*%
%TF.FilePolarity,Positive*%
%FSLAX46Y46*%
G04 Gerber Fmt 4.6, Leading zero omitted, Abs format (unit mm)*
G04 Created by KiCad (PCBNEW 9.0.2) date 2025-07-20 12:07:01*
%MOMM*%
%LPD*%
G01*
G04 APERTURE LIST*
G04 Aperture macros list*
%AMRoundRect*
0 Rectangle with rounded corners*
0 $1 Rounding radius*
0 $2 $3 $4 $5 $6 $7 $8 $9 X,Y pos of 4 corners*
0 Add a 4 corners polygon primitive as box body*
4,1,4,$2,$3,$4,$5,$6,$7,$8,$9,$2,$3,0*
0 Add four circle primitives for the rounded corners*
1,1,$1+$1,$2,$3*
1,1,$1+$1,$4,$5*
1,1,$1+$1,$6,$7*
1,1,$1+$1,$8,$9*
0 Add four rect primitives between the rounded corners*
20,1,$1+$1,$2,$3,$4,$5,0*
20,1,$1+$1,$4,$5,$6,$7,0*
20,1,$1+$1,$6,$7,$8,$9,0*
20,1,$1+$1,$8,$9,$2,$3,0*%
%AMFreePoly0*
4,1,21,-0.141464,0.553536,-0.140000,0.550000,-0.140000,0.355000,0.355000,0.355000,0.358536,0.353536,0.360000,0.350000,0.360000,-0.350000,0.358536,-0.353536,0.355000,-0.355000,-0.140000,-0.355000,-0.140000,-0.550000,-0.141464,-0.553536,-0.145000,-0.555000,-0.345000,-0.555000,-0.348536,-0.553536,-0.350000,-0.550000,-0.350000,0.550000,-0.348536,0.553536,-0.345000,0.555000,-0.145000,0.555000,
-0.141464,0.553536,-0.141464,0.553536,$1*%
%AMFreePoly1*
4,1,21,0.348536,0.553536,0.350000,0.550000,0.350000,-0.550000,0.348536,-0.553536,0.345000,-0.555000,0.145000,-0.555000,0.141464,-0.553536,0.140000,-0.550000,0.140000,-0.355000,-0.355000,-0.355000,-0.358536,-0.353536,-0.360000,-0.350000,-0.360000,0.350000,-0.358536,0.353536,-0.355000,0.355000,0.140000,0.355000,0.140000,0.550000,0.141464,0.553536,0.145000,0.555000,0.345000,0.555000,
0.348536,0.553536,0.348536,0.553536,$1*%
%AMFreePoly2*
4,1,296,0.076512,1.482500,0.076536,1.482499,0.118536,1.479499,0.118572,1.479495,0.159586,1.473493,0.199586,1.466493,0.199621,1.466485,0.239644,1.456479,0.279644,1.444479,0.318658,1.431474,0.318694,1.431461,0.356714,1.415452,0.394714,1.397452,0.394743,1.397437,0.430757,1.377429,0.465757,1.356429,0.465788,1.356408,0.499788,1.332408,0.499802,1.332399,0.532802,1.307399,
0.564841,1.280366,0.594841,1.252366,0.594866,1.252341,0.622866,1.222341,0.649899,1.190302,0.674899,1.157302,0.674908,1.157288,0.698908,1.123288,0.698929,1.123257,0.719937,1.088243,0.739937,1.052243,0.739952,1.052214,0.757961,1.014194,0.773961,0.976194,0.773974,0.976158,0.786979,0.937144,0.798979,0.897144,0.808985,0.857121,0.808993,0.857086,0.815995,0.817072,
0.821995,0.776072,0.821999,0.776036,0.824999,0.734036,0.826000,0.693012,0.826000,0.662988,0.824999,0.620965,0.821999,0.577965,0.821995,0.577929,0.815991,0.535904,0.807991,0.494904,0.797979,0.452856,0.785972,0.412835,0.771963,0.372810,0.755963,0.333810,0.737954,0.294790,0.737935,0.294753,0.716927,0.257739,0.694927,0.221739,0.670897,0.186696,0.644897,0.152696,
0.617865,0.120658,0.588865,0.089658,0.588842,0.089635,0.557842,0.060635,0.525804,0.033603,0.491804,0.007603,0.456761,-0.016427,0.420747,-0.038435,0.383747,-0.059435,0.383710,-0.059454,0.344690,-0.077463,0.305690,-0.093463,0.265644,-0.107479,0.225644,-0.119479,0.183596,-0.129491,0.142596,-0.137491,0.100571,-0.143495,0.100535,-0.143499,0.057512,-0.146500,0.015512,-0.147500,
0.005488,-0.147500,-0.036536,-0.146499,-0.078536,-0.143499,-0.078572,-0.143495,-0.119584,-0.137493,-0.160584,-0.130493,-0.160618,-0.130486,-0.201644,-0.120479,-0.241665,-0.108472,-0.281665,-0.094472,-0.281694,-0.094461,-0.319714,-0.078452,-0.357738,-0.060440,-0.394761,-0.040427,-0.430761,-0.018427,-0.464788,0.005592,-0.464802,0.005601,-0.497802,0.030601,-0.529842,0.057635,-0.560842,0.086635,
-0.560865,0.086658,-0.589865,0.117658,-0.616899,0.149698,-0.641899,0.182698,-0.641908,0.182712,-0.665927,0.216739,-0.687927,0.252739,-0.707940,0.289762,-0.725961,0.327806,-0.741961,0.365806,-0.741972,0.365835,-0.755979,0.405856,-0.767979,0.445856,-0.777986,0.486882,-0.777993,0.486916,-0.784995,0.527928,-0.790995,0.568928,-0.790999,0.568964,-0.793999,0.610964,-0.795000,0.652988,
-0.795000,0.683012,-0.793999,0.725036,-0.790999,0.767036,-0.790995,0.767072,-0.784993,0.808084,-0.777993,0.849084,-0.777986,0.849118,-0.767979,0.890144,-0.755972,0.930165,-0.741972,0.970165,-0.741961,0.970194,-0.725952,1.008214,-0.707940,1.046238,-0.687927,1.083261,-0.665927,1.119261,-0.641908,1.153288,-0.641899,1.153302,-0.616899,1.186302,-0.589865,1.218342,-0.560865,1.249342,
-0.560842,1.249365,-0.529842,1.278365,-0.497802,1.305399,-0.464802,1.330399,-0.464788,1.330408,-0.430761,1.354427,-0.394761,1.376427,-0.357738,1.396440,-0.319694,1.414461,-0.281694,1.430461,-0.281665,1.430472,-0.241644,1.444479,-0.201644,1.456479,-0.160618,1.466486,-0.160584,1.466493,-0.119572,1.473495,-0.078572,1.479495,-0.078536,1.479499,-0.036536,1.482499,0.005488,1.483500,
0.005845,1.483362,0.006000,1.483012,0.006000,1.183000,0.005854,1.182646,0.005519,1.182500,-0.020469,1.181500,-0.046457,1.179501,-0.072428,1.176504,-0.098395,1.171511,-0.123370,1.165517,-0.149348,1.158522,-0.173308,1.149538,-0.197300,1.139541,-0.221278,1.128551,-0.244239,1.115572,-0.266232,1.101578,-0.288210,1.087591,-0.309187,1.071609,-0.329166,1.054627,-0.348146,1.036646,
-0.366127,1.017666,-0.383109,0.997687,-0.399091,0.976710,-0.413078,0.954732,-0.427072,0.932739,-0.440051,0.909778,-0.451045,0.885792,-0.461038,0.861808,-0.470022,0.837848,-0.477017,0.811870,-0.483011,0.786895,-0.488004,0.760928,-0.491001,0.734962,-0.493001,0.708962,-0.494000,0.682981,-0.494000,0.663019,-0.493001,0.636038,-0.491001,0.610038,-0.488005,0.583073,-0.483009,0.557098,
-0.477018,0.531135,-0.469022,0.505147,-0.460038,0.480192,-0.450041,0.456200,-0.438049,0.431216,-0.426066,0.408250,-0.412081,0.385273,-0.397101,0.363303,-0.380111,0.342315,-0.363119,0.322324,-0.345146,0.302354,-0.325176,0.284381,-0.305185,0.267389,-0.284196,0.250398,-0.262226,0.235418,-0.239250,0.221433,-0.216284,0.209451,-0.191299,0.197458,-0.167308,0.187462,-0.167308,0.187461,
-0.142353,0.178478,-0.116365,0.170481,-0.090402,0.164490,-0.064426,0.159494,-0.037462,0.156498,-0.037462,0.156499,-0.011469,0.154499,0.015519,0.153500,0.025481,0.153500,0.051469,0.154499,0.077457,0.156498,0.103428,0.159495,0.129395,0.164488,0.154370,0.170482,0.154370,0.170483,0.180348,0.177477,0.204308,0.186462,0.228300,0.196458,0.252278,0.207448,0.275239,0.220427,
0.319210,0.248408,0.340187,0.264390,0.360166,0.281372,0.379146,0.299353,0.397127,0.318333,0.414109,0.338312,0.430091,0.359289,0.458072,0.403260,0.471051,0.426221,0.482045,0.450208,0.492038,0.474192,0.501022,0.498151,0.508017,0.524130,0.514011,0.549104,0.519004,0.575071,0.522001,0.601043,0.524001,0.627038,0.525000,0.653019,0.525000,0.682981,0.524001,0.708962,
0.522001,0.734962,0.519004,0.760928,0.514011,0.786895,0.508017,0.811870,0.501022,0.837848,0.492038,0.861808,0.482045,0.885792,0.471051,0.909778,0.458072,0.932739,0.444078,0.954732,0.430091,0.976710,0.414109,0.997687,0.397127,1.017666,0.379146,1.036646,0.360166,1.054627,0.340187,1.071609,0.319210,1.087591,0.297232,1.101578,0.275239,1.115572,0.252278,1.128551,
0.228300,1.139541,0.204308,1.149538,0.180348,1.158522,0.154370,1.165517,0.129395,1.171511,0.103428,1.176504,0.077457,1.179501,0.051469,1.181500,0.025481,1.182500,0.025133,1.182660,0.025000,1.183000,0.025000,1.483000,0.025146,1.483354,0.025500,1.483500,0.035512,1.483500,0.076512,1.482500,0.076512,1.482500,$1*%
G04 Aperture macros list end*
%TA.AperFunction,SMDPad,CuDef*%
%ADD10RoundRect,0.037500X-0.292500X-0.112500X0.292500X-0.112500X0.292500X0.112500X-0.292500X0.112500X0*%
%TD*%
%TA.AperFunction,SMDPad,CuDef*%
%ADD11R,0.960000X0.970000*%
%TD*%
%TA.AperFunction,SMDPad,CuDef*%
%ADD12R,0.870000X0.930000*%
%TD*%
%TA.AperFunction,SMDPad,CuDef*%
%ADD13R,0.800000X0.800000*%
%TD*%
%TA.AperFunction,SMDPad,CuDef*%
%ADD14R,0.650000X0.900000*%
%TD*%
%TA.AperFunction,SMDPad,CuDef*%
%ADD15R,2.220000X1.240000*%
%TD*%
%TA.AperFunction,SMDPad,CuDef*%
%ADD16R,0.710000X1.730000*%
%TD*%
%TA.AperFunction,SMDPad,CuDef*%
%ADD17RoundRect,0.113750X-0.341250X-0.351250X0.341250X-0.351250X0.341250X0.351250X-0.341250X0.351250X0*%
%TD*%
%TA.AperFunction,SMDPad,CuDef*%
%ADD18R,1.500000X0.700000*%
%TD*%
%TA.AperFunction,SMDPad,CuDef*%
%ADD19R,0.800000X1.000000*%
%TD*%
%TA.AperFunction,SMDPad,CuDef*%
%ADD20R,1.020000X1.040000*%
%TD*%
%TA.AperFunction,ComponentPad*%
%ADD21R,1.308000X1.308000*%
%TD*%
%TA.AperFunction,ComponentPad*%
%ADD22C,1.308000*%
%TD*%
%TA.AperFunction,SMDPad,CuDef*%
%ADD23FreePoly0,0.000000*%
%TD*%
%TA.AperFunction,SMDPad,CuDef*%
%ADD24FreePoly1,0.000000*%
%TD*%
%TA.AperFunction,SMDPad,CuDef*%
%ADD25R,1.150000X0.600000*%
%TD*%
%TA.AperFunction,SMDPad,CuDef*%
%ADD26R,1.150000X0.300000*%
%TD*%
%TA.AperFunction,ComponentPad*%
%ADD27O,1.850000X1.050000*%
%TD*%
%TA.AperFunction,ComponentPad*%
%ADD28O,2.250000X1.050000*%
%TD*%
%TA.AperFunction,SMDPad,CuDef*%
%ADD29R,0.600000X0.522000*%
%TD*%
%TA.AperFunction,SMDPad,CuDef*%
%ADD30FreePoly2,0.000000*%
%TD*%
%TA.AperFunction,SMDPad,CuDef*%
%ADD31RoundRect,0.033750X-0.386250X-0.101250X0.386250X-0.101250X0.386250X0.101250X-0.386250X0.101250X0*%
%TD*%
%TA.AperFunction,SMDPad,CuDef*%
%ADD32RoundRect,0.033750X-0.101250X-0.386250X0.101250X-0.386250X0.101250X0.386250X-0.101250X0.386250X0*%
%TD*%
%TA.AperFunction,SMDPad,CuDef*%
%ADD33R,1.100000X1.100000*%
%TD*%
%TA.AperFunction,SMDPad,CuDef*%
%ADD34R,3.500000X3.500000*%
%TD*%
%TA.AperFunction,SMDPad,CuDef*%
%ADD35R,3.000000X2.500000*%
%TD*%
%TA.AperFunction,SMDPad,CuDef*%
%ADD36RoundRect,0.147500X-0.457500X-0.147500X0.457500X-0.147500X0.457500X0.147500X-0.457500X0.147500X0*%
%TD*%
%TA.AperFunction,SMDPad,CuDef*%
%ADD37R,1.040000X1.020000*%
%TD*%
%TA.AperFunction,SMDPad,CuDef*%
%ADD38R,1.500000X0.900000*%
%TD*%
%TA.AperFunction,SMDPad,CuDef*%
%ADD39R,0.900000X1.500000*%
%TD*%
%TA.AperFunction,SMDPad,CuDef*%
%ADD40R,0.900000X0.900000*%
%TD*%
%TA.AperFunction,ViaPad*%
%ADD41C,0.600000*%
%TD*%
%TA.AperFunction,Conductor*%
%ADD42C,0.200000*%
%TD*%
G04 APERTURE END LIST*
D10*
%TO.P,U1,1*%
%TO.N,+3V3*%
X37330000Y-49665000D03*
%TO.P,U1,2,NC*%
%TO.N,unconnected-(U1-NC-Pad2)*%
X37330000Y-50165000D03*
%TO.P,U1,3*%
%TO.N,USB_P*%
X37330000Y-50665000D03*
%TO.P,U1,4*%
%TO.N,GND*%
X38800000Y-50665000D03*
%TO.P,U1,5*%
%TO.N,USB_N*%
X38800000Y-49665000D03*
%TD*%
D11*
%TO.P,C8,1*%
%TO.N,VBAT*%
X43300000Y-92710000D03*
%TO.P,C8,2*%
%TO.N,GND*%
X41790000Y-92710000D03*
%TD*%
D12*
%TO.P,R5,1*%
%TO.N,Net-(X1-IO0)*%
X53830000Y-81819000D03*
%TO.P,R5,2*%
%TO.N,+3V3*%
X55390000Y-81819000D03*
%TD*%
D13*
%TO.P,C2,1*%
%TO.N,GND*%
X33565000Y-59510000D03*
%TO.P,C2,2*%
%TO.N,+3V3*%
X35065000Y-59510000D03*
%TD*%
D14*
%TO.P,R3,1*%
%TO.N,Net-(J2-CC2)*%
X40715000Y-44820000D03*
%TO.P,R3,2*%
%TO.N,GND*%
X42165000Y-44820000D03*
%TD*%
D15*
%TO.P,L1,1,1*%
%TO.N,Net-(U5-SW)*%
X39370000Y-90445000D03*
%TO.P,L1,2,2*%
%TO.N,+3V3*%
X39370000Y-88265000D03*
%TD*%
D16*
%TO.P,R7,1*%
%TO.N,Net-(D2-PadA)*%
X41450000Y-83185000D03*
%TO.P,R7,2*%
%TO.N,LED_BLUE_CTRL*%
X42370000Y-83185000D03*
%TD*%
D17*
%TO.P,D2,A,A*%
%TO.N,Net-(D2-PadA)*%
X40270000Y-81100000D03*
%TO.P,D2,C,C*%
%TO.N,GND*%
X38750000Y-81100000D03*
%TD*%
D13*
%TO.P,C6,1*%
%TO.N,+3V3*%
X53225000Y-84359000D03*
%TO.P,C6,2*%
%TO.N,GND*%
X54725000Y-84359000D03*
%TD*%
D18*
%TO.P,U4,P$1,P$1*%
%TO.N,GND*%
X56670000Y-42255000D03*
%TO.P,U4,P$2,P$2*%
%TO.N,+3V3*%
X56670000Y-39255000D03*
%TO.P,U4,P$3,P$3*%
%TO.N,SWITCH_STATE*%
X56670000Y-37755000D03*
D19*
%TO.P,U4,P$4*%
%TO.N,N/C*%
X57455000Y-43655000D03*
%TO.P,U4,P$5*%
X59385000Y-43655000D03*
%TO.P,U4,P$6*%
X59385000Y-36355000D03*
%TO.P,U4,P$7*%
X57455000Y-36355000D03*
%TD*%
D20*
%TO.P,C7,1*%
%TO.N,+3V3*%
X42545000Y-85725000D03*
%TO.P,C7,2*%
%TO.N,GND*%
X42545000Y-87293000D03*
%TD*%
D21*
%TO.P,J1,1,1*%
%TO.N,VBAT*%
X38465000Y-122470000D03*
D22*
%TO.P,J1,2,2*%
%TO.N,GND*%
X36465000Y-122470000D03*
%TD*%
D13*
%TO.P,C4,1*%
%TO.N,GND*%
X33565000Y-63320000D03*
%TO.P,C4,2*%
%TO.N,+3V3*%
X35065000Y-63320000D03*
%TD*%
D23*
%TO.P,S1,1*%
%TO.N,SWITCH_BUTTON*%
X47300000Y-43335000D03*
D24*
%TO.P,S1,2*%
X51760000Y-43335000D03*
D23*
%TO.P,S1,3*%
%TO.N,GND*%
X47300000Y-46835000D03*
D24*
%TO.P,S1,4*%
X51760000Y-46835000D03*
%TD*%
D25*
%TO.P,J2,A1/B12,GND_A*%
%TO.N,GND*%
X38295000Y-39168250D03*
%TO.P,J2,A4/B9,VBUS_A*%
%TO.N,+5V*%
X38295000Y-39968250D03*
D26*
%TO.P,J2,A5,CC1*%
%TO.N,Net-(J2-CC1)*%
X38295000Y-41118250D03*
%TO.P,J2,A6,DP1*%
%TO.N,USB_P*%
X38295000Y-42118250D03*
%TO.P,J2,A7,DN1*%
%TO.N,USB_N*%
X38295000Y-42618250D03*
%TO.P,J2,A8,SBU1*%
%TO.N,unconnected-(J2-SBU1-PadA8)*%
X38295000Y-43618250D03*
D25*
%TO.P,J2,B1/A12,GND_B*%
%TO.N,GND*%
X38295000Y-45568250D03*
%TO.P,J2,B4/AP,VBUS_B*%
%TO.N,+5V*%
X38295000Y-44768250D03*
D26*
%TO.P,J2,B5,CC2*%
%TO.N,Net-(J2-CC2)*%
X38295000Y-44118250D03*
%TO.P,J2,B6,DP2*%
%TO.N,USB_P*%
X38295000Y-43118250D03*
%TO.P,J2,B7,DN2*%
%TO.N,USB_N*%
X38295000Y-41618250D03*
%TO.P,J2,B8,SBU2*%
%TO.N,unconnected-(J2-SBU2-PadB8)*%
X38295000Y-40618250D03*
D27*
%TO.P,J2,SH1,SHIELD*%
%TO.N,GND*%
X37020000Y-36748250D03*
%TO.P,J2,SH2,SHIELD*%
X37020000Y-47988250D03*
D28*
%TO.P,J2,SH3,SHIELD*%
X33020000Y-36748250D03*
%TO.P,J2,SH4,SHIELD*%
X33020000Y-47988250D03*
%TD*%
D13*
%TO.P,1uCapacitor1,1*%
%TO.N,GND*%
X37985000Y-83655000D03*
%TO.P,1uCapacitor1,2*%
%TO.N,+3V3*%
X39485000Y-83655000D03*
%TD*%
%TO.P,C3,1*%
%TO.N,GND*%
X33565000Y-61415000D03*
%TO.P,C3,2*%
%TO.N,+3V3*%
X35065000Y-61415000D03*
%TD*%
D29*
%TO.P,MK1,1,WS*%
%TO.N,I2S_MIC_WS*%
X49900000Y-81093000D03*
%TO.P,MK1,2,LR*%
%TO.N,GND*%
X49900000Y-81915000D03*
D30*
%TO.P,MK1,3,GND*%
X50784500Y-83837000D03*
D29*
%TO.P,MK1,4,SCK*%
%TO.N,I2S_MIC_SCK*%
X51700000Y-81915000D03*
%TO.P,MK1,5,VDD*%
%TO.N,+3V3*%
X51700000Y-81093000D03*
%TO.P,MK1,6,SD*%
%TO.N,I2S_MIC_SD*%
X50800000Y-81093000D03*
%TD*%
D31*
%TO.P,U3,1,DIN*%
%TO.N,I2S_AMP_DIN*%
X32456135Y-84823865D03*
%TO.P,U3,2,GAIN_SLOT*%
%TO.N,GND*%
X32456135Y-85323865D03*
%TO.P,U3,3,GND*%
X32456135Y-85823865D03*
%TO.P,U3,4,SD_MODE*%
%TO.N,AMP_SHUTDOWN*%
X32456135Y-86323865D03*
D32*
%TO.P,U3,5*%
%TO.N,N/C*%
X33141135Y-87008865D03*
%TO.P,U3,6*%
X33641135Y-87008865D03*
%TO.P,U3,7,VDD*%
%TO.N,+3V3*%
X34141135Y-87008865D03*
%TO.P,U3,8,VDD*%
X34641135Y-87008865D03*
D31*
%TO.P,U3,9,OUTP*%
%TO.N,SPK_P*%
X35326135Y-86323865D03*
%TO.P,U3,10,OUTN*%
%TO.N,SPK_N*%
X35326135Y-85823865D03*
%TO.P,U3,11,GND*%
%TO.N,GND*%
X35326135Y-85323865D03*
%TO.P,U3,12*%
%TO.N,N/C*%
X35326135Y-84823865D03*
D32*
%TO.P,U3,13*%
X34641135Y-84138865D03*
%TO.P,U3,14,LRCLK*%
%TO.N,I2S_AMP_LRC*%
X34141135Y-84138865D03*
%TO.P,U3,15,GND*%
%TO.N,GND*%
X33641135Y-84138865D03*
%TO.P,U3,16,BCLK*%
%TO.N,I2S_AMP_BCLK*%
X33141135Y-84138865D03*
D33*
%TO.P,U3,17,EP*%
%TO.N,GND*%
X33891135Y-85573865D03*
%TD*%
D34*
%TO.P,LS1,N*%
%TO.N,SPK_N*%
X57050000Y-108485000D03*
%TO.P,LS1,P*%
%TO.N,SPK_P*%
X44550000Y-108485000D03*
D35*
%TO.P,LS1,S1*%
%TO.N,N/C*%
X46300000Y-95485000D03*
%TO.P,LS1,S2*%
X55300000Y-95485000D03*
%TD*%
D13*
%TO.P,C5,1*%
%TO.N,GND*%
X33565000Y-65225000D03*
%TO.P,C5,2*%
%TO.N,+3V3*%
X35065000Y-65225000D03*
%TD*%
D11*
%TO.P,10ucapaitor1,1*%
%TO.N,+3V3*%
X35041135Y-89383865D03*
%TO.P,10ucapaitor1,2*%
%TO.N,GND*%
X36551135Y-89383865D03*
%TD*%
D14*
%TO.P,R1,1*%
%TO.N,GND*%
X41185000Y-39370000D03*
%TO.P,R1,2*%
%TO.N,Net-(J2-CC1)*%
X42635000Y-39370000D03*
%TD*%
%TO.P,R2,1*%
%TO.N,GND*%
X40064000Y-113030000D03*
%TO.P,R2,2*%
%TO.N,Net-(U2-PROG)*%
X41514000Y-113030000D03*
%TD*%
D36*
%TO.P,U5,1,EN*%
%TO.N,VBAT*%
X41910000Y-88900000D03*
%TO.P,U5,2,GND*%
%TO.N,GND*%
X41910000Y-89850000D03*
%TO.P,U5,3,SW*%
%TO.N,Net-(U5-SW)*%
X41910000Y-90800000D03*
%TO.P,U5,4,VIN*%
%TO.N,VBAT*%
X44420000Y-90800000D03*
%TO.P,U5,5,FB*%
%TO.N,+3V3*%
X44420000Y-88900000D03*
%TD*%
%TO.P,U2,1,STAT*%
%TO.N,unconnected-(U2-STAT-Pad1)*%
X35089000Y-113350000D03*
%TO.P,U2,2,VSS*%
%TO.N,GND*%
X35089000Y-114300000D03*
%TO.P,U2,3,VBAT*%
%TO.N,VBAT*%
X35089000Y-115250000D03*
%TO.P,U2,4,VDD*%
%TO.N,+5V*%
X37599000Y-115250000D03*
%TO.P,U2,5,PROG*%
%TO.N,Net-(U2-PROG)*%
X37599000Y-113350000D03*
%TD*%
D37*
%TO.P,C1,1*%
%TO.N,GND*%
X40640000Y-116840000D03*
%TO.P,C1,2*%
%TO.N,+5V*%
X42208000Y-116840000D03*
%TD*%
D38*
%TO.P,X1,1,GND*%
%TO.N,GND*%
X37605000Y-60780000D03*
%TO.P,X1,2,3V3*%
%TO.N,+3V3*%
X37605000Y-62050000D03*
%TO.P,X1,3,EN*%
%TO.N,Net-(X1-EN)*%
X37605000Y-63320000D03*
%TO.P,X1,4,IO4*%
%TO.N,SWITCH_STATE*%
X37605000Y-64590000D03*
%TO.P,X1,5,IO5*%
%TO.N,I2S_AMP_LRC*%
X37605000Y-65860000D03*
%TO.P,X1,6,IO6*%
%TO.N,I2S_AMP_DIN*%
X37605000Y-67130000D03*
%TO.P,X1,7,IO7*%
%TO.N,I2S_AMP_BCLK*%
X37605000Y-68400000D03*
%TO.P,X1,8,IO15*%
%TO.N,unconnected-(X1-IO15-Pad8)*%
X37605000Y-69670000D03*
%TO.P,X1,9,IO16*%
%TO.N,unconnected-(X1-IO16-Pad9)*%
X37605000Y-70940000D03*
%TO.P,X1,10,IO17*%
%TO.N,unconnected-(X1-IO17-Pad10)*%
X37605000Y-72210000D03*
%TO.P,X1,11,IO18*%
%TO.N,unconnected-(X1-IO18-Pad11)*%
X37605000Y-73480000D03*
%TO.P,X1,12,IO8*%
%TO.N,unconnected-(X1-IO8-Pad12)*%
X37605000Y-74750000D03*
%TO.P,X1,13,IO19*%
%TO.N,USB_N*%
X37605000Y-76020000D03*
%TO.P,X1,14,IO20*%
%TO.N,USB_P*%
X37605000Y-77290000D03*
D39*
%TO.P,X1,15,IO3*%
%TO.N,LED_BLUE_CTRL*%
X39370000Y-78540000D03*
%TO.P,X1,16,IO46*%
%TO.N,unconnected-(X1-IO46-Pad16)*%
X40640000Y-78540000D03*
%TO.P,X1,17,IO9*%
%TO.N,unconnected-(X1-IO9-Pad17)*%
X41910000Y-78540000D03*
%TO.P,X1,18,IO10*%
%TO.N,unconnected-(X1-IO10-Pad18)*%
X43180000Y-78540000D03*
%TO.P,X1,19,IO11*%
%TO.N,unconnected-(X1-IO11-Pad19)*%
X44450000Y-78540000D03*
%TO.P,X1,20,IO12*%
%TO.N,I2S_MIC_SD*%
X45720000Y-78540000D03*
%TO.P,X1,21,IO13*%
%TO.N,I2S_MIC_SCK*%
X46990000Y-78540000D03*
%TO.P,X1,22,IO14*%
%TO.N,I2S_MIC_WS*%
X48260000Y-78540000D03*
%TO.P,X1,23,IO21*%
%TO.N,AMP_SHUTDOWN*%
X49530000Y-78540000D03*
%TO.P,X1,24,IO47*%
%TO.N,unconnected-(X1-IO47-Pad24)*%
X50800000Y-78540000D03*
%TO.P,X1,25,IO48*%
%TO.N,unconnected-(X1-IO48-Pad25)*%
X52070000Y-78540000D03*
%TO.P,X1,26,IO45*%
%TO.N,unconnected-(X1-IO45-Pad26)*%
X53340000Y-78540000D03*
D38*
%TO.P,X1,27,IO0*%
%TO.N,Net-(X1-IO0)*%
X55105000Y-77290000D03*
%TO.P,X1,28,IO35*%
%TO.N,unconnected-(X1-IO35-Pad28)*%
X55105000Y-76020000D03*
%TO.P,X1,29,IO36*%
%TO.N,unconnected-(X1-IO36-Pad29)*%
X55105000Y-74750000D03*
%TO.P,X1,30,IO37*%
%TO.N,unconnected-(X1-IO37-Pad30)*%
X55105000Y-73480000D03*
%TO.P,X1,31,IO38*%
%TO.N,unconnected-(X1-IO38-Pad31)*%
X55105000Y-72210000D03*
%TO.P,X1,32,IO39*%
%TO.N,unconnected-(X1-IO39-Pad32)*%
X55105000Y-70940000D03*
%TO.P,X1,33,IO40*%
%TO.N,unconnected-(X1-IO40-Pad33)*%
X55105000Y-69670000D03*
%TO.P,X1,34,IO41*%
%TO.N,unconnected-(X1-IO41-Pad34)*%
X55105000Y-68400000D03*
%TO.P,X1,35,IO42*%
%TO.N,unconnected-(X1-IO42-Pad35)*%
X55105000Y-67130000D03*
%TO.P,X1,36,RXD0*%
%TO.N,unconnected-(X1-RXD0-Pad36)*%
X55105000Y-65860000D03*
%TO.P,X1,37,TXD0*%
%TO.N,unconnected-(X1-TXD0-Pad37)*%
X55105000Y-64590000D03*
%TO.P,X1,38,IO2*%
%TO.N,LED_RED_CTRL*%
X55105000Y-63320000D03*
%TO.P,X1,39,IO1*%
%TO.N,SWITCH_BUTTON*%
X55105000Y-62050000D03*
%TO.P,X1,40,GND*%
%TO.N,GND*%
X55105000Y-60780000D03*
D40*
%TO.P,X1,41,GND*%
X44855000Y-68500000D03*
%TO.P,X1,42,GND*%
X44855000Y-67100000D03*
%TO.P,X1,43,GND*%
X43455000Y-67100000D03*
%TO.P,X1,44,GND*%
X43455000Y-68500000D03*
%TO.P,X1,45,GND*%
X43455000Y-69900000D03*
%TO.P,X1,46,GND*%
X44855000Y-69900000D03*
%TO.P,X1,47,GND*%
X46255000Y-69900000D03*
%TO.P,X1,48,GND*%
X46255000Y-68500000D03*
%TO.P,X1,49,GND*%
X46255000Y-67100000D03*
%TD*%
D41*
%TO.N,GND*%
X46990000Y-46990000D03*
X51435000Y-46990000D03*
X36195000Y-114300000D03*
X55880000Y-59055000D03*
X34925000Y-122555000D03*
X41910000Y-87630000D03*
X36723235Y-85831765D03*
X51598228Y-83113769D03*
X54610000Y-85090000D03*
X54610000Y-41910000D03*
X37465000Y-48260000D03*
X40640000Y-92710000D03*
X37993235Y-84348235D03*
X38735000Y-53340000D03*
X33655000Y-58420000D03*
X37465000Y-60960000D03*
X42604086Y-90046709D03*
X41275000Y-46355000D03*
X43180000Y-66675000D03*
X39476765Y-116733235D03*
%TO.N,+3V3*%
X39914974Y-49494378D03*
X34641135Y-88019237D03*
X37357287Y-49515000D03*
X51700000Y-81093000D03*
X35065000Y-65555002D03*
X53340000Y-83185000D03*
X38735000Y-86995000D03*
%TO.N,VBAT*%
X33268500Y-111125000D03*
X35089000Y-115246000D03*
%TO.N,Net-(J2-CC1)*%
X42545000Y-40640000D03*
X41062735Y-40942000D03*
%TO.N,SPK_P*%
X35616263Y-88248275D03*
X33669500Y-95250000D03*
%TO.N,SPK_N*%
X36830000Y-87630000D03*
X36896186Y-92075000D03*
%TO.N,I2S_MIC_SD*%
X50800000Y-81131000D03*
X45720000Y-80010000D03*
%TO.N,Net-(X1-EN)*%
X37605000Y-63320000D03*
%TO.N,LED_RED_CTRL*%
X53863938Y-63955000D03*
%TO.N,SWITCH_BUTTON*%
X50165000Y-43180000D03*
X47300000Y-43335000D03*
%TO.N,AMP_SHUTDOWN*%
X39370000Y-77289998D03*
X32232500Y-88900000D03*
%TO.N,I2S_AMP_BCLK*%
X37465000Y-82550000D03*
X35560000Y-82550000D03*
%TO.N,I2S_AMP_DIN*%
X33020000Y-82550000D03*
X34925000Y-79375000D03*
%TO.N,I2S_AMP_LRC*%
X35560000Y-83350003D03*
X33669500Y-79410000D03*
%TO.N,SWITCH_STATE*%
X37605000Y-64590000D03*
X39705002Y-64770000D03*
%TO.N,USB_N*%
X37834834Y-51700166D03*
X38800000Y-49665000D03*
X42545000Y-43180000D03*
%TO.N,USB_P*%
X41289141Y-48909141D03*
X40005000Y-43518250D03*
X41275000Y-43180000D03*
%TD*%
D42*
%TO.N,GND*%
X37605000Y-60780000D02*
X37605000Y-60820000D01*
X33641135Y-84138865D02*
X33641135Y-85323865D01*
X41185000Y-39370000D02*
X40410000Y-39370000D01*
X38956000Y-37499308D02*
X38956000Y-39168250D01*
X34141135Y-85323865D02*
X33891135Y-85573865D01*
X35089000Y-114300000D02*
X36195000Y-114300000D01*
X37985000Y-84340000D02*
X37993235Y-84348235D01*
X43455000Y-67100000D02*
X43455000Y-66950000D01*
X56670000Y-42255000D02*
X54955000Y-42255000D01*
X38371750Y-47988250D02*
X38956000Y-47404000D01*
X50784500Y-83837000D02*
X50620058Y-83837000D01*
X51590000Y-46835000D02*
X51435000Y-46990000D01*
X38750000Y-81100000D02*
X38750000Y-82890000D01*
X37985000Y-83655000D02*
X37985000Y-84340000D01*
X51598228Y-83395196D02*
X51598228Y-83113769D01*
X51760000Y-46835000D02*
X51590000Y-46835000D01*
X36215335Y-85323865D02*
X36723235Y-85831765D01*
X33565000Y-58510000D02*
X33655000Y-58420000D01*
X33565000Y-59510000D02*
X33565000Y-58510000D01*
X39583530Y-116840000D02*
X39476765Y-116733235D01*
X32456135Y-85323865D02*
X33641135Y-85323865D01*
X35326135Y-85323865D02*
X34141135Y-85323865D01*
X40064000Y-113030000D02*
X40064000Y-116146000D01*
X35010000Y-122470000D02*
X34925000Y-122555000D01*
X46255000Y-68500000D02*
X43455000Y-68500000D01*
X41910000Y-89850000D02*
X42407377Y-89850000D01*
X43455000Y-66950000D02*
X43180000Y-66675000D01*
X42407377Y-89850000D02*
X42604086Y-90046709D01*
X43455000Y-69900000D02*
X46255000Y-69900000D01*
X55105000Y-59830000D02*
X55880000Y-59055000D01*
X54725000Y-84359000D02*
X54725000Y-84975000D01*
X32456135Y-85823865D02*
X33641135Y-85823865D01*
X33641135Y-85323865D02*
X33891135Y-85573865D01*
X42247000Y-87293000D02*
X41910000Y-87630000D01*
X41790000Y-92710000D02*
X40640000Y-92710000D01*
X37655000Y-47988250D02*
X38371750Y-47988250D01*
X36551135Y-89383865D02*
X37558000Y-88377000D01*
X40410000Y-39370000D02*
X40208250Y-39168250D01*
X38956000Y-47404000D02*
X38956000Y-45568250D01*
X35326135Y-85323865D02*
X36215335Y-85323865D01*
X38950000Y-50815000D02*
X38950000Y-53125000D01*
X37605000Y-60820000D02*
X37465000Y-60960000D01*
X44855000Y-69900000D02*
X44855000Y-67100000D01*
X51156424Y-83837000D02*
X51598228Y-83395196D01*
X37558000Y-86666530D02*
X36723235Y-85831765D01*
X40005000Y-116840000D02*
X39583530Y-116840000D01*
X43455000Y-67100000D02*
X46255000Y-67100000D01*
X42165000Y-45465000D02*
X41275000Y-46355000D01*
X37558000Y-88377000D02*
X37558000Y-86666530D01*
X40208250Y-39168250D02*
X38956000Y-39168250D01*
X41185000Y-38953308D02*
X41185000Y-39370000D01*
X42165000Y-44820000D02*
X42280000Y-44820000D01*
X38750000Y-82890000D02*
X37985000Y-83655000D01*
X47300000Y-46835000D02*
X47145000Y-46835000D01*
X47145000Y-46835000D02*
X46990000Y-46990000D01*
X33565000Y-65225000D02*
X33565000Y-59510000D01*
X36465000Y-122470000D02*
X35010000Y-122470000D01*
X42545000Y-87293000D02*
X42247000Y-87293000D01*
X50620058Y-83837000D02*
X49900000Y-83116942D01*
X38950000Y-53125000D02*
X38735000Y-53340000D01*
X42165000Y-44820000D02*
X42165000Y-45465000D01*
X49900000Y-83116942D02*
X49900000Y-81915000D01*
X37655000Y-36748250D02*
X38204942Y-36748250D01*
X38204942Y-36748250D02*
X38956000Y-37499308D01*
X37655000Y-47988250D02*
X37655000Y-48070000D01*
X54725000Y-84975000D02*
X54610000Y-85090000D01*
X38800000Y-50665000D02*
X38950000Y-50815000D01*
X37655000Y-48070000D02*
X37465000Y-48260000D01*
X40640000Y-116840000D02*
X40005000Y-116840000D01*
X50784500Y-83837000D02*
X51156424Y-83837000D01*
X33641135Y-85823865D02*
X33891135Y-85573865D01*
X54955000Y-42255000D02*
X54610000Y-41910000D01*
X40064000Y-116146000D02*
X39476765Y-116733235D01*
X55105000Y-60780000D02*
X55105000Y-59830000D01*
%TO.N,+3V3*%
X55390000Y-81819000D02*
X54024000Y-83185000D01*
X34641135Y-87008865D02*
X34641135Y-88019237D01*
X58156000Y-37094000D02*
X57785000Y-37465000D01*
X34141135Y-87008865D02*
X34141135Y-88483865D01*
X34141135Y-88483865D02*
X35041135Y-89383865D01*
X58512785Y-37465000D02*
X59221000Y-38173215D01*
X56754000Y-35554000D02*
X58156000Y-35554000D01*
X54024000Y-83185000D02*
X53340000Y-83185000D01*
X34641135Y-88019237D02*
X35041135Y-88419237D01*
X39914974Y-49434778D02*
X46629000Y-42720752D01*
X37314248Y-49296000D02*
X37546248Y-49296000D01*
X36015000Y-65225000D02*
X36195000Y-65405000D01*
X36195000Y-62865000D02*
X36195000Y-62510000D01*
X36015000Y-59510000D02*
X36195000Y-59690000D01*
X36655000Y-62050000D02*
X37605000Y-62050000D01*
X36596000Y-81113900D02*
X36596000Y-84221000D01*
X35065000Y-59510000D02*
X36015000Y-59510000D01*
X36195000Y-65405000D02*
X36195000Y-63500000D01*
X36015000Y-63320000D02*
X36195000Y-63500000D01*
X46629000Y-42720752D02*
X46629000Y-40933000D01*
X36195000Y-61595000D02*
X36195000Y-62865000D01*
X36015000Y-61415000D02*
X36195000Y-61595000D01*
X36195000Y-50415248D02*
X37314248Y-49296000D01*
X38985000Y-84205000D02*
X37782500Y-85407500D01*
X36195000Y-59690000D02*
X36195000Y-61595000D01*
X37546248Y-49296000D02*
X37622624Y-49372376D01*
X58156000Y-35554000D02*
X58156000Y-37094000D01*
X51700000Y-81093000D02*
X51700000Y-80632000D01*
X44420000Y-88900000D02*
X44420000Y-87600000D01*
X36195000Y-65405000D02*
X36195000Y-66040000D01*
X46629000Y-40933000D02*
X50458000Y-37104000D01*
X41910000Y-85725000D02*
X42545000Y-85725000D01*
X36195000Y-52070000D02*
X36195000Y-50415248D01*
X36195000Y-63500000D02*
X36195000Y-62865000D01*
X39914974Y-49494378D02*
X39914974Y-49434778D01*
X36195000Y-62510000D02*
X36655000Y-62050000D01*
X36945248Y-49665000D02*
X36195000Y-50415248D01*
X35065000Y-65225000D02*
X36015000Y-65225000D01*
X51599000Y-80531000D02*
X47739000Y-80531000D01*
X36195000Y-66040000D02*
X33069500Y-66040000D01*
X36195000Y-52070000D02*
X36195000Y-59690000D01*
X59221000Y-38836785D02*
X58687785Y-39370000D01*
X39370000Y-88265000D02*
X40640000Y-86995000D01*
X35065000Y-63320000D02*
X36015000Y-63320000D01*
X33069500Y-80010000D02*
X35492100Y-80010000D01*
X35492100Y-80010000D02*
X36596000Y-81113900D01*
X44420000Y-87600000D02*
X42545000Y-85725000D01*
X56515000Y-37104000D02*
X56515000Y-35793000D01*
X56785000Y-39370000D02*
X56670000Y-39255000D01*
X33069500Y-66040000D02*
X33069500Y-80010000D01*
X53225000Y-83300000D02*
X53340000Y-83185000D01*
X40640000Y-86995000D02*
X39370000Y-86995000D01*
X38985000Y-84205000D02*
X38985000Y-84155000D01*
X47739000Y-80531000D02*
X42545000Y-85725000D01*
X39370000Y-86995000D02*
X37782500Y-85407500D01*
X38985000Y-84155000D02*
X39485000Y-83655000D01*
X35065000Y-61415000D02*
X36015000Y-61415000D01*
X56515000Y-35793000D02*
X56754000Y-35554000D01*
X53225000Y-84359000D02*
X53225000Y-83300000D01*
X50458000Y-37104000D02*
X56515000Y-37104000D01*
X35041135Y-89383865D02*
X35041135Y-88419237D01*
X40640000Y-86995000D02*
X41910000Y-85725000D01*
X36596000Y-84221000D02*
X37782500Y-85407500D01*
X37330000Y-49665000D02*
X37622624Y-49372376D01*
X58687785Y-39370000D02*
X56785000Y-39370000D01*
X39370000Y-86995000D02*
X38735000Y-86995000D01*
X51700000Y-80632000D02*
X51599000Y-80531000D01*
X57785000Y-37465000D02*
X58512785Y-37465000D01*
X37330000Y-49665000D02*
X36945248Y-49665000D01*
X59221000Y-38173215D02*
X59221000Y-38836785D01*
%TO.N,+5V*%
X39887652Y-45048902D02*
X39607000Y-44768250D01*
X36195000Y-84455000D02*
X37959000Y-86219000D01*
X39887652Y-48895000D02*
X32668500Y-48895000D01*
X41397057Y-40342000D02*
X40005000Y-40342000D01*
X43180000Y-42756000D02*
X43604000Y-42756000D01*
X43180000Y-45602652D02*
X43180000Y-42756000D01*
X33464150Y-91063750D02*
X32668500Y-91859400D01*
X32668500Y-80645000D02*
X32902500Y-80411000D01*
X32902500Y-80411000D02*
X35326000Y-80411000D01*
X37959000Y-86219000D02*
X37959000Y-91063750D01*
X38966750Y-40005000D02*
X38956000Y-39994250D01*
X32668500Y-114300000D02*
X34214500Y-115846000D01*
X36195000Y-81280000D02*
X36195000Y-84455000D01*
X40005000Y-40005000D02*
X38966750Y-40005000D01*
X40938000Y-118110000D02*
X42208000Y-116840000D01*
X34214500Y-115846000D02*
X37003000Y-115846000D01*
X37003000Y-115846000D02*
X37599000Y-115250000D01*
X35326000Y-80411000D02*
X36195000Y-81280000D01*
X39607000Y-44768250D02*
X38956000Y-44768250D01*
X32668500Y-48895000D02*
X32668500Y-80645000D01*
X32668500Y-91859400D02*
X32668500Y-114300000D01*
X37599000Y-115250000D02*
X37599000Y-115704000D01*
X37959000Y-91063750D02*
X33464150Y-91063750D01*
X38956000Y-39994250D02*
X38956000Y-39968250D01*
X39887652Y-48895000D02*
X43180000Y-45602652D01*
X43146000Y-40888943D02*
X42793943Y-41241000D01*
X40005000Y-40342000D02*
X40005000Y-40005000D01*
X42793943Y-41241000D02*
X42296057Y-41241000D01*
X39887652Y-48895000D02*
X39887652Y-45048902D01*
X37599000Y-115704000D02*
X40005000Y-118110000D01*
X43604000Y-42756000D02*
X44450000Y-41910000D01*
X43428943Y-40888943D02*
X43146000Y-40888943D01*
X42296057Y-41241000D02*
X41397057Y-40342000D01*
X44450000Y-41910000D02*
X43428943Y-40888943D01*
X40005000Y-118110000D02*
X40938000Y-118110000D01*
%TO.N,VBAT*%
X42520000Y-88900000D02*
X44420000Y-90800000D01*
X43755250Y-91464750D02*
X33630250Y-91464750D01*
X41910000Y-88900000D02*
X42520000Y-88900000D01*
X44420000Y-91590000D02*
X43300000Y-92710000D01*
X44420000Y-90800000D02*
X44420000Y-91590000D01*
X33630250Y-91464750D02*
X33069500Y-92025500D01*
X33069500Y-92025500D02*
X33069500Y-110926000D01*
X44420000Y-90800000D02*
X43755250Y-91464750D01*
X33069500Y-110926000D02*
X33268500Y-111125000D01*
%TO.N,Net-(D2-PadA)*%
X40270000Y-82005000D02*
X41450000Y-83185000D01*
X40270000Y-81100000D02*
X40270000Y-82005000D01*
%TO.N,Net-(J2-CC1)*%
X39005000Y-41069250D02*
X38956000Y-41118250D01*
X42590000Y-40100000D02*
X42590000Y-40595000D01*
X41062735Y-40942000D02*
X39806000Y-40942000D01*
X39806000Y-40942000D02*
X39806000Y-41069250D01*
X42635000Y-40055000D02*
X42635000Y-39370000D01*
X39806000Y-41069250D02*
X39005000Y-41069250D01*
X42590000Y-40595000D02*
X42545000Y-40640000D01*
X42590000Y-40100000D02*
X42635000Y-40055000D01*
%TO.N,Net-(J2-CC2)*%
X40013250Y-44118250D02*
X38956000Y-44118250D01*
X40715000Y-44820000D02*
X40013250Y-44118250D01*
%TO.N,Net-(U5-SW)*%
X39370000Y-90445000D02*
X41555000Y-90445000D01*
X41555000Y-90445000D02*
X41910000Y-90800000D01*
%TO.N,SPK_P*%
X35560000Y-88192012D02*
X35560000Y-86557730D01*
X35560000Y-86557730D02*
X35326135Y-86323865D01*
X34205500Y-108485000D02*
X44550000Y-108485000D01*
X33470500Y-95449000D02*
X33470500Y-109220000D01*
X35616263Y-88248275D02*
X35560000Y-88192012D01*
X33669500Y-95250000D02*
X33470500Y-95449000D01*
X33470500Y-109220000D02*
X34205500Y-108485000D01*
%TO.N,SPK_N*%
X36830000Y-86865888D02*
X35787977Y-85823865D01*
X54510000Y-108485000D02*
X53340000Y-108485000D01*
X57050000Y-108485000D02*
X53340000Y-108485000D01*
X35787977Y-85823865D02*
X35326135Y-85823865D01*
X53340000Y-108485000D02*
X53306186Y-108485000D01*
X52560000Y-108485000D02*
X36896186Y-92821186D01*
X54510000Y-108485000D02*
X52560000Y-108485000D01*
X36830000Y-87630000D02*
X36830000Y-86865888D01*
X36896186Y-92821186D02*
X36896186Y-92075000D01*
%TO.N,I2S_MIC_SCK*%
X46990000Y-78540000D02*
X46990000Y-79490000D01*
X51780000Y-80010000D02*
X52301000Y-80531000D01*
X52301000Y-81814000D02*
X52200000Y-81915000D01*
X52301000Y-80531000D02*
X52301000Y-81814000D01*
X52200000Y-81915000D02*
X51700000Y-81915000D01*
X46990000Y-79490000D02*
X47510000Y-80010000D01*
X47510000Y-80010000D02*
X51780000Y-80010000D01*
%TO.N,I2S_MIC_WS*%
X51265024Y-84295500D02*
X50328976Y-84295500D01*
X52702000Y-82858524D02*
X51265024Y-84295500D01*
X52702000Y-80364900D02*
X52702000Y-82858524D01*
X48260000Y-79490000D02*
X48379000Y-79609000D01*
X51946100Y-79609000D02*
X52702000Y-80364900D01*
X50328976Y-84295500D02*
X49299000Y-83265524D01*
X48260000Y-78540000D02*
X48260000Y-79490000D01*
X49400000Y-81093000D02*
X49900000Y-81093000D01*
X49299000Y-83265524D02*
X49299000Y-81194000D01*
X49299000Y-81194000D02*
X49400000Y-81093000D01*
X48379000Y-79609000D02*
X51946100Y-79609000D01*
%TO.N,I2S_MIC_SD*%
X45720000Y-78540000D02*
X45720000Y-80010000D01*
%TO.N,Net-(U2-PROG)*%
X38670000Y-112279000D02*
X37599000Y-113350000D01*
X40763000Y-112279000D02*
X38670000Y-112279000D01*
X41514000Y-113030000D02*
X40763000Y-112279000D01*
%TO.N,Net-(X1-IO0)*%
X55105000Y-80544000D02*
X55105000Y-77290000D01*
X53830000Y-81819000D02*
X55105000Y-80544000D01*
%TO.N,LED_RED_CTRL*%
X54498938Y-63320000D02*
X53863938Y-63955000D01*
X55105000Y-63320000D02*
X54498938Y-63320000D01*
%TO.N,LED_BLUE_CTRL*%
X42370000Y-83185000D02*
X42370000Y-81917802D01*
X39370000Y-78917802D02*
X39370000Y-78540000D01*
X42370000Y-81917802D02*
X39370000Y-78917802D01*
%TO.N,SWITCH_BUTTON*%
X55880000Y-58420000D02*
X56515000Y-58420000D01*
X56866500Y-58771500D02*
X56866500Y-62230000D01*
X50320000Y-43335000D02*
X50165000Y-43180000D01*
X51760000Y-43335000D02*
X56035000Y-43335000D01*
X56035000Y-43335000D02*
X55880000Y-43490000D01*
X55880000Y-43490000D02*
X55880000Y-58420000D01*
X56686500Y-62050000D02*
X55105000Y-62050000D01*
X56515000Y-58420000D02*
X56866500Y-58771500D01*
X56866500Y-62230000D02*
X56686500Y-62050000D01*
X51760000Y-43335000D02*
X50320000Y-43335000D01*
%TO.N,AMP_SHUTDOWN*%
X32232500Y-88900000D02*
X32232500Y-86512500D01*
X49530000Y-77590000D02*
X49229998Y-77289998D01*
X32232500Y-86512500D02*
X32385000Y-86360000D01*
X49229998Y-77289998D02*
X39370000Y-77289998D01*
X49530000Y-78540000D02*
X49530000Y-77590000D01*
%TO.N,I2S_AMP_BCLK*%
X33141135Y-83677023D02*
X33141135Y-84138865D01*
X34890000Y-77470000D02*
X37465000Y-80045000D01*
X37465000Y-80045000D02*
X37465000Y-82550000D01*
X34691000Y-77271000D02*
X34890000Y-77470000D01*
X35560000Y-82550000D02*
X34268158Y-82550000D01*
X34691000Y-68580000D02*
X34691000Y-77271000D01*
X34268158Y-82550000D02*
X33141135Y-83677023D01*
X34871000Y-68400000D02*
X34691000Y-68580000D01*
X37605000Y-68400000D02*
X34871000Y-68400000D01*
%TO.N,I2S_AMP_DIN*%
X33020000Y-82550000D02*
X32456135Y-83113865D01*
X34290000Y-78740000D02*
X34290000Y-67310000D01*
X34470000Y-67130000D02*
X37605000Y-67130000D01*
X32456135Y-83113865D02*
X32456135Y-84823865D01*
X34925000Y-79375000D02*
X34290000Y-78740000D01*
X34290000Y-67310000D02*
X34470000Y-67130000D01*
%TO.N,I2S_AMP_LRC*%
X37605000Y-65860000D02*
X37010000Y-65860000D01*
X35560000Y-83350003D02*
X34468155Y-83350003D01*
X34141135Y-83677023D02*
X34141135Y-84138865D01*
X37010000Y-65860000D02*
X36195000Y-66675000D01*
X36195000Y-66675000D02*
X33655000Y-66675000D01*
X33655000Y-79395500D02*
X33669500Y-79410000D01*
X34468155Y-83350003D02*
X34141135Y-83677023D01*
X33655000Y-66675000D02*
X33655000Y-79395500D01*
%TO.N,SWITCH_STATE*%
X40005000Y-64470002D02*
X40005000Y-51435000D01*
X47971000Y-42216000D02*
X47030000Y-41275000D01*
X47971000Y-43815352D02*
X47971000Y-42216000D01*
X47336352Y-44450000D02*
X47971000Y-43815352D01*
X51145000Y-37755000D02*
X56670000Y-37755000D01*
X40005000Y-51435000D02*
X42100926Y-49339074D01*
X45466852Y-44450000D02*
X47336352Y-44450000D01*
X47030000Y-41235000D02*
X48260000Y-40005000D01*
X42100926Y-47815926D02*
X45466852Y-44450000D01*
X48895000Y-40005000D02*
X51145000Y-37755000D01*
X47030000Y-41275000D02*
X47030000Y-41235000D01*
X42100926Y-49339074D02*
X42100926Y-47815926D01*
X39705002Y-64770000D02*
X40005000Y-64470002D01*
X37605000Y-64590000D02*
X38254002Y-64590000D01*
X48260000Y-40005000D02*
X48895000Y-40005000D01*
%TO.N,USB_N*%
X41529000Y-44069000D02*
X40640000Y-44069000D01*
X41663735Y-41275000D02*
X42030735Y-41642000D01*
X40640000Y-44069000D02*
X40640000Y-43247900D01*
X40772000Y-41543000D02*
X41395735Y-41543000D01*
X43194943Y-41436986D02*
X43667957Y-41910000D01*
X38800000Y-49665000D02*
X38602301Y-49665000D01*
X36596000Y-52939000D02*
X37834834Y-51700166D01*
X40010350Y-42618250D02*
X38956000Y-42618250D01*
X40640000Y-43247900D02*
X40010350Y-42618250D01*
X42030735Y-41642000D02*
X42960043Y-41642000D01*
X42545000Y-42823900D02*
X42545000Y-43180000D01*
X43667957Y-41910000D02*
X43458900Y-41910000D01*
X38656000Y-75501000D02*
X38656000Y-60029000D01*
X38956000Y-41618250D02*
X40296750Y-41618250D01*
X43458900Y-41910000D02*
X42545000Y-42823900D01*
X40572000Y-41343000D02*
X40772000Y-41543000D01*
X42960043Y-41642000D02*
X43194943Y-41407100D01*
X41395735Y-41543000D02*
X41663735Y-41275000D01*
X38656000Y-60029000D02*
X36596000Y-60029000D01*
X37719603Y-75501000D02*
X38656000Y-75501000D01*
X36596000Y-60029000D02*
X36596000Y-52939000D01*
X37605000Y-76020000D02*
X38238603Y-76020000D01*
X38238603Y-76020000D02*
X37719603Y-75501000D01*
X40296750Y-41618250D02*
X40572000Y-41343000D01*
X41592500Y-44132500D02*
X41529000Y-44069000D01*
X42545000Y-43180000D02*
X41592500Y-44132500D01*
X43194943Y-41407100D02*
X43194943Y-41436986D01*
%TO.N,USB_P*%
X40412376Y-49937376D02*
X41289141Y-49060611D01*
X39370000Y-43118250D02*
X38956000Y-43118250D01*
X39057000Y-75667100D02*
X39057000Y-59862900D01*
X38083777Y-51099166D02*
X37585891Y-51099166D01*
X39604000Y-51268900D02*
X39604000Y-54111002D01*
X38656000Y-75902000D02*
X38822100Y-75902000D01*
X37605000Y-77290000D02*
X38124000Y-76771000D01*
X39605000Y-43118250D02*
X40005000Y-43518250D01*
X38822100Y-59628000D02*
X36997000Y-59628000D01*
X39105002Y-54610000D02*
X37557644Y-54610000D01*
X37233834Y-51451223D02*
X37233834Y-51734066D01*
X39634985Y-42118250D02*
X38956000Y-42118250D01*
X37800934Y-52301166D02*
X38083777Y-52301166D01*
X37233834Y-51734066D02*
X36830000Y-52137900D01*
X36830000Y-51483198D02*
X37648198Y-50665000D01*
X38435834Y-51451223D02*
X38083777Y-51099166D01*
X37159509Y-54610000D02*
X39105002Y-54610000D01*
X37585891Y-51099166D02*
X37233834Y-51451223D01*
X41100750Y-42118250D02*
X41275000Y-41944000D01*
X39370000Y-43118250D02*
X39605000Y-43118250D01*
X38124000Y-76771000D02*
X38656000Y-76771000D01*
X39604000Y-54111002D02*
X39105002Y-54610000D01*
X36997000Y-53105100D02*
X37800934Y-52301166D01*
X37648198Y-50665000D02*
X37330000Y-50665000D01*
X36997000Y-54049356D02*
X36997000Y-53105100D01*
X36997000Y-54772509D02*
X37159509Y-54610000D01*
X36997000Y-59628000D02*
X36997000Y-54772509D01*
X40412376Y-50460524D02*
X39604000Y-51268900D01*
X41275000Y-41944000D02*
X41275000Y-43180000D01*
X40412376Y-49937376D02*
X40412376Y-50460524D01*
X38822100Y-75902000D02*
X39057000Y-75667100D01*
X38435834Y-51949109D02*
X38435834Y-51451223D01*
X39057000Y-59862900D02*
X38822100Y-59628000D01*
X36830000Y-52137900D02*
X36830000Y-51483198D01*
X37557644Y-54610000D02*
X36997000Y-54049356D01*
X38083777Y-52301166D02*
X38435834Y-51949109D01*
X39634985Y-42118250D02*
X41100750Y-42118250D01*
X41289141Y-49060611D02*
X41289141Y-48909141D01*
X38656000Y-76771000D02*
X38656000Y-75902000D01*
%TD*%
M02*
