%TF.GenerationSoftware,KiCad,Pcbnew,9.0.2*%
%TF.CreationDate,2025-07-20T12:07:01-04:00*%
%TF.ProjectId,Glasses_V0.1,476c6173-7365-4735-9f56-302e312e6b69,rev?*%
%TF.SameCoordinates,Original*%
%TF.FileFunction,Soldermask,Top*%
%TF.FilePolarity,Negative*%
%FSLAX46Y46*%
G04 Gerber Fmt 4.6, Leading zero omitted, Abs format (unit mm)*
G04 Created by KiCad (PCBNEW 9.0.2) date 2025-07-20 12:07:01*
%MOMM*%
%LPD*%
G01*
G04 APERTURE LIST*
G04 Aperture macros list*
%AMRoundRect*
0 Rectangle with rounded corners*
0 $1 Rounding radius*
0 $2 $3 $4 $5 $6 $7 $8 $9 X,Y pos of 4 corners*
0 Add a 4 corners polygon primitive as box body*
4,1,4,$2,$3,$4,$5,$6,$7,$8,$9,$2,$3,0*
0 Add four circle primitives for the rounded corners*
1,1,$1+$1,$2,$3*
1,1,$1+$1,$4,$5*
1,1,$1+$1,$6,$7*
1,1,$1+$1,$8,$9*
0 Add four rect primitives between the rounded corners*
20,1,$1+$1,$2,$3,$4,$5,0*
20,1,$1+$1,$4,$5,$6,$7,0*
20,1,$1+$1,$6,$7,$8,$9,0*
20,1,$1+$1,$8,$9,$2,$3,0*%
G04 Aperture macros list end*
%ADD10C,0.010000*%
%ADD11C,0.500000*%
%ADD12RoundRect,0.063000X-0.369000X-0.189000X0.369000X-0.189000X0.369000X0.189000X-0.369000X0.189000X0*%
%ADD13RoundRect,0.102000X0.480000X0.485000X-0.480000X0.485000X-0.480000X-0.485000X0.480000X-0.485000X0*%
%ADD14RoundRect,0.102000X-0.435000X-0.465000X0.435000X-0.465000X0.435000X0.465000X-0.435000X0.465000X0*%
%ADD15RoundRect,0.102000X-0.400000X-0.400000X0.400000X-0.400000X0.400000X0.400000X-0.400000X0.400000X0*%
%ADD16RoundRect,0.102000X-0.325000X-0.450000X0.325000X-0.450000X0.325000X0.450000X-0.325000X0.450000X0*%
%ADD17RoundRect,0.102000X1.110000X-0.620000X1.110000X0.620000X-1.110000X0.620000X-1.110000X-0.620000X0*%
%ADD18RoundRect,0.102000X-0.355000X-0.865000X0.355000X-0.865000X0.355000X0.865000X-0.355000X0.865000X0*%
%ADD19RoundRect,0.139250X-0.417750X-0.427750X0.417750X-0.427750X0.417750X0.427750X-0.417750X0.427750X0*%
%ADD20C,0.900000*%
%ADD21RoundRect,0.102000X0.750000X-0.350000X0.750000X0.350000X-0.750000X0.350000X-0.750000X-0.350000X0*%
%ADD22RoundRect,0.102000X0.400000X-0.500000X0.400000X0.500000X-0.400000X0.500000X-0.400000X-0.500000X0*%
%ADD23RoundRect,0.102000X-0.510000X0.520000X-0.510000X-0.520000X0.510000X-0.520000X0.510000X0.520000X0*%
%ADD24RoundRect,0.102000X-0.654000X-0.654000X0.654000X-0.654000X0.654000X0.654000X-0.654000X0.654000X0*%
%ADD25C,1.512000*%
%ADD26RoundRect,0.102000X-0.575000X0.300000X-0.575000X-0.300000X0.575000X-0.300000X0.575000X0.300000X0*%
%ADD27RoundRect,0.102000X-0.575000X0.150000X-0.575000X-0.150000X0.575000X-0.150000X0.575000X0.150000X0*%
%ADD28O,2.054000X1.254000*%
%ADD29O,2.454000X1.254000*%
%ADD30C,0.500000*%
%ADD31RoundRect,0.102000X-0.300000X-0.261000X0.300000X-0.261000X0.300000X0.261000X-0.300000X0.261000X0*%
%ADD32RoundRect,0.059250X-0.462750X-0.177750X0.462750X-0.177750X0.462750X0.177750X-0.462750X0.177750X0*%
%ADD33RoundRect,0.059250X-0.177750X-0.462750X0.177750X-0.462750X0.177750X0.462750X-0.177750X0.462750X0*%
%ADD34RoundRect,0.102000X-0.550000X-0.550000X0.550000X-0.550000X0.550000X0.550000X-0.550000X0.550000X0*%
%ADD35RoundRect,0.102000X-1.750000X-1.750000X1.750000X-1.750000X1.750000X1.750000X-1.750000X1.750000X0*%
%ADD36RoundRect,0.102000X-1.500000X-1.250000X1.500000X-1.250000X1.500000X1.250000X-1.500000X1.250000X0*%
%ADD37RoundRect,0.102000X-0.480000X-0.485000X0.480000X-0.485000X0.480000X0.485000X-0.480000X0.485000X0*%
%ADD38RoundRect,0.198500X-0.508500X-0.198500X0.508500X-0.198500X0.508500X0.198500X-0.508500X0.198500X0*%
%ADD39RoundRect,0.102000X-0.520000X-0.510000X0.520000X-0.510000X0.520000X0.510000X-0.520000X0.510000X0*%
%ADD40RoundRect,0.102000X-0.750000X-0.450000X0.750000X-0.450000X0.750000X0.450000X-0.750000X0.450000X0*%
%ADD41RoundRect,0.102000X-0.450000X-0.750000X0.450000X-0.750000X0.450000X0.750000X-0.450000X0.750000X0*%
%ADD42RoundRect,0.102000X-0.450000X-0.450000X0.450000X-0.450000X0.450000X0.450000X-0.450000X0.450000X0*%
G04 APERTURE END LIST*
D10*
%TO.C,S1*%
X47255000Y-42885000D02*
X47755000Y-42885000D01*
X47755000Y-43785000D01*
X47255000Y-43785000D01*
X47255000Y-43985000D01*
X46855000Y-43985000D01*
X46855000Y-42685000D01*
X47255000Y-42685000D01*
X47255000Y-42885000D01*
G36*
X47255000Y-42885000D02*
G01*
X47755000Y-42885000D01*
X47755000Y-43785000D01*
X47255000Y-43785000D01*
X47255000Y-43985000D01*
X46855000Y-43985000D01*
X46855000Y-42685000D01*
X47255000Y-42685000D01*
X47255000Y-42885000D01*
G37*
X47255000Y-46385000D02*
X47755000Y-46385000D01*
X47755000Y-47285000D01*
X47255000Y-47285000D01*
X47255000Y-47485000D01*
X46855000Y-47485000D01*
X46855000Y-46185000D01*
X47255000Y-46185000D01*
X47255000Y-46385000D01*
G36*
X47255000Y-46385000D02*
G01*
X47755000Y-46385000D01*
X47755000Y-47285000D01*
X47255000Y-47285000D01*
X47255000Y-47485000D01*
X46855000Y-47485000D01*
X46855000Y-46185000D01*
X47255000Y-46185000D01*
X47255000Y-46385000D01*
G37*
X52205000Y-43985000D02*
X51805000Y-43985000D01*
X51805000Y-43785000D01*
X51305000Y-43785000D01*
X51305000Y-42885000D01*
X51805000Y-42885000D01*
X51805000Y-42685000D01*
X52205000Y-42685000D01*
X52205000Y-43985000D01*
G36*
X52205000Y-43985000D02*
G01*
X51805000Y-43985000D01*
X51805000Y-43785000D01*
X51305000Y-43785000D01*
X51305000Y-42885000D01*
X51805000Y-42885000D01*
X51805000Y-42685000D01*
X52205000Y-42685000D01*
X52205000Y-43985000D01*
G37*
X52205000Y-47485000D02*
X51805000Y-47485000D01*
X51805000Y-47285000D01*
X51305000Y-47285000D01*
X51305000Y-46385000D01*
X51805000Y-46385000D01*
X51805000Y-46185000D01*
X52205000Y-46185000D01*
X52205000Y-47485000D01*
G36*
X52205000Y-47485000D02*
G01*
X51805000Y-47485000D01*
X51805000Y-47285000D01*
X51305000Y-47285000D01*
X51305000Y-46385000D01*
X51805000Y-46385000D01*
X51805000Y-46185000D01*
X52205000Y-46185000D01*
X52205000Y-47485000D01*
G37*
D11*
%TO.C,MK1*%
X51465000Y-83167000D02*
G75*
G02*
X50135000Y-83167000I-665000J0D01*
G01*
X50135000Y-83167000D02*
G75*
G02*
X51465000Y-83167000I665000J0D01*
G01*
%TD*%
D12*
%TO.C,U1*%
X37330000Y-49665000D03*
X37330000Y-50165000D03*
X37330000Y-50665000D03*
X38800000Y-50665000D03*
X38800000Y-49665000D03*
%TD*%
D13*
%TO.C,C8*%
X43300000Y-92710000D03*
X41790000Y-92710000D03*
%TD*%
D14*
%TO.C,R5*%
X53830000Y-81819000D03*
X55390000Y-81819000D03*
%TD*%
D15*
%TO.C,C2*%
X33565000Y-59510000D03*
X35065000Y-59510000D03*
%TD*%
D16*
%TO.C,R3*%
X40715000Y-44820000D03*
X42165000Y-44820000D03*
%TD*%
D17*
%TO.C,L1*%
X39370000Y-90445000D03*
X39370000Y-88265000D03*
%TD*%
D18*
%TO.C,R7*%
X41450000Y-83185000D03*
X42370000Y-83185000D03*
%TD*%
D19*
%TO.C,D2*%
X40270000Y-81100000D03*
X38750000Y-81100000D03*
%TD*%
D15*
%TO.C,C6*%
X53225000Y-84359000D03*
X54725000Y-84359000D03*
%TD*%
D20*
%TO.C,U4*%
X58420000Y-41505000D03*
X58420000Y-38505000D03*
D21*
X56670000Y-42255000D03*
X56670000Y-39255000D03*
X56670000Y-37755000D03*
D22*
X57455000Y-43655000D03*
X59385000Y-43655000D03*
X59385000Y-36355000D03*
X57455000Y-36355000D03*
%TD*%
D23*
%TO.C,C7*%
X42545000Y-85725000D03*
X42545000Y-87293000D03*
%TD*%
D24*
%TO.C,J1*%
X38465000Y-122470000D03*
D25*
X36465000Y-122470000D03*
%TD*%
D15*
%TO.C,C4*%
X33565000Y-63320000D03*
X35065000Y-63320000D03*
%TD*%
D26*
%TO.C,J2*%
X38295000Y-39168250D03*
X38295000Y-39968250D03*
D27*
X38295000Y-41118250D03*
X38295000Y-42118250D03*
X38295000Y-42618250D03*
X38295000Y-43618250D03*
D26*
X38295000Y-45568250D03*
X38295000Y-44768250D03*
D27*
X38295000Y-44118250D03*
X38295000Y-43118250D03*
X38295000Y-41618250D03*
X38295000Y-40618250D03*
D28*
X37020000Y-36748250D03*
X37020000Y-47988250D03*
D29*
X33020000Y-36748250D03*
X33020000Y-47988250D03*
%TD*%
D15*
%TO.C,1uCapacitor1*%
X37985000Y-83655000D03*
X39485000Y-83655000D03*
%TD*%
%TO.C,C3*%
X33565000Y-61415000D03*
X35065000Y-61415000D03*
%TD*%
D30*
%TO.C,MK1*%
X50800000Y-83167000D03*
D31*
X49900000Y-81093000D03*
X49900000Y-81915000D03*
X51700000Y-81915000D03*
X51700000Y-81093000D03*
X50800000Y-81093000D03*
%TD*%
D32*
%TO.C,U3*%
X32456135Y-84823865D03*
X32456135Y-85323865D03*
X32456135Y-85823865D03*
X32456135Y-86323865D03*
D33*
X33141135Y-87008865D03*
X33641135Y-87008865D03*
X34141135Y-87008865D03*
X34641135Y-87008865D03*
D32*
X35326135Y-86323865D03*
X35326135Y-85823865D03*
X35326135Y-85323865D03*
X35326135Y-84823865D03*
D33*
X34641135Y-84138865D03*
X34141135Y-84138865D03*
X33641135Y-84138865D03*
X33141135Y-84138865D03*
D34*
X33891135Y-85573865D03*
%TD*%
D35*
%TO.C,LS1*%
X57050000Y-108485000D03*
X44550000Y-108485000D03*
D36*
X46300000Y-95485000D03*
X55300000Y-95485000D03*
%TD*%
D15*
%TO.C,C5*%
X33565000Y-65225000D03*
X35065000Y-65225000D03*
%TD*%
D37*
%TO.C,10ucapaitor1*%
X35041135Y-89383865D03*
X36551135Y-89383865D03*
%TD*%
D16*
%TO.C,R1*%
X41185000Y-39370000D03*
X42635000Y-39370000D03*
%TD*%
%TO.C,R2*%
X40064000Y-113030000D03*
X41514000Y-113030000D03*
%TD*%
D38*
%TO.C,U5*%
X41910000Y-88900000D03*
X41910000Y-89850000D03*
X41910000Y-90800000D03*
X44420000Y-90800000D03*
X44420000Y-88900000D03*
%TD*%
%TO.C,U2*%
X35089000Y-113350000D03*
X35089000Y-114300000D03*
X35089000Y-115250000D03*
X37599000Y-115250000D03*
X37599000Y-113350000D03*
%TD*%
D39*
%TO.C,C1*%
X40640000Y-116840000D03*
X42208000Y-116840000D03*
%TD*%
D40*
%TO.C,X1*%
X37605000Y-60780000D03*
X37605000Y-62050000D03*
X37605000Y-63320000D03*
X37605000Y-64590000D03*
X37605000Y-65860000D03*
X37605000Y-67130000D03*
X37605000Y-68400000D03*
X37605000Y-69670000D03*
X37605000Y-70940000D03*
X37605000Y-72210000D03*
X37605000Y-73480000D03*
X37605000Y-74750000D03*
X37605000Y-76020000D03*
X37605000Y-77290000D03*
D41*
X39370000Y-78540000D03*
X40640000Y-78540000D03*
X41910000Y-78540000D03*
X43180000Y-78540000D03*
X44450000Y-78540000D03*
X45720000Y-78540000D03*
X46990000Y-78540000D03*
X48260000Y-78540000D03*
X49530000Y-78540000D03*
X50800000Y-78540000D03*
X52070000Y-78540000D03*
X53340000Y-78540000D03*
D40*
X55105000Y-77290000D03*
X55105000Y-76020000D03*
X55105000Y-74750000D03*
X55105000Y-73480000D03*
X55105000Y-72210000D03*
X55105000Y-70940000D03*
X55105000Y-69670000D03*
X55105000Y-68400000D03*
X55105000Y-67130000D03*
X55105000Y-65860000D03*
X55105000Y-64590000D03*
X55105000Y-63320000D03*
X55105000Y-62050000D03*
X55105000Y-60780000D03*
D42*
X44855000Y-68500000D03*
X44855000Y-67100000D03*
X43455000Y-67100000D03*
X43455000Y-68500000D03*
X43455000Y-69900000D03*
X44855000Y-69900000D03*
X46255000Y-69900000D03*
X46255000Y-68500000D03*
X46255000Y-67100000D03*
%TD*%
M02*
