M48
; DRILL file {KiCad 9.0.2} date 2025-07-20T12:12:04-0400
; FORMAT={-:-/ absolute / metric / decimal}
; #@! TF.CreationDate,2025-07-20T12:12:04-04:00
; #@! TF.GenerationSoftware,Kicad,Pcbnew,9.0.2
; #@! TF.FileFunction,Plated,1,2,PTH
FMAT,2
METRIC
; #@! TA.AperFunction,Plated,PTH,ViaDrill
T1C0.300
; #@! TA.AperFunction,Plated,PTH,ComponentDrill
T2C0.650
; #@! TA.AperFunction,Plated,PTH,ComponentDrill
T3C0.800
%
G90
G05
T1
X32.233Y-88.9
X33.02Y-82.55
X33.268Y-111.125
X33.655Y-58.42
X33.669Y-79.41
X33.669Y-95.25
X34.641Y-88.019
X34.925Y-79.375
X34.925Y-122.555
X35.065Y-65.555
X35.089Y-115.246
X35.56Y-82.55
X35.56Y-83.35
X35.616Y-88.248
X36.195Y-114.3
X36.723Y-85.832
X36.83Y-87.63
X36.896Y-92.075
X37.357Y-49.515
X37.465Y-48.26
X37.465Y-60.96
X37.465Y-82.55
X37.605Y-63.32
X37.605Y-64.59
X37.835Y-51.7
X37.993Y-84.348
X38.735Y-53.34
X38.735Y-86.995
X38.8Y-49.665
X39.37Y-77.29
X39.477Y-116.733
X39.705Y-64.77
X39.915Y-49.494
X40.005Y-43.518
X40.64Y-92.71
X41.063Y-40.942
X41.275Y-43.18
X41.275Y-46.355
X41.289Y-48.909
X41.91Y-87.63
X42.545Y-40.64
X42.545Y-43.18
X42.604Y-90.047
X43.18Y-66.675
X45.72Y-80.01
X46.99Y-46.99
X47.3Y-43.335
X50.165Y-43.18
X50.8Y-81.131
X51.435Y-46.99
X51.598Y-83.114
X51.7Y-81.093
X53.34Y-83.185
X53.864Y-63.955
X54.61Y-41.91
X54.61Y-85.09
X55.88Y-59.055
T3
X36.465Y-122.47
X38.465Y-122.47
T2
G00X33.62Y-36.748
M15
G01X32.42Y-36.748
M16
G05
G00X33.62Y-47.988
M15
G01X32.42Y-47.988
M16
G05
G00X37.42Y-36.748
M15
G01X36.62Y-36.748
M16
G05
G00X37.42Y-47.988
M15
G01X36.62Y-47.988
M16
G05
M30
