%TF.GenerationSoftware,KiCad,Pcbnew,9.0.2*%
%TF.CreationDate,2025-07-20T12:07:01-04:00*%
%TF.ProjectId,Glasses_V0.1,476c6173-7365-4735-9f56-302e312e6b69,rev?*%
%TF.SameCoordinates,Original*%
%TF.FileFunction,Paste,Top*%
%TF.FilePolarity,Positive*%
%FSLAX46Y46*%
G04 Gerber Fmt 4.6, Leading zero omitted, Abs format (unit mm)*
G04 Created by KiCad (PCBNEW 9.0.2) date 2025-07-20 12:07:01*
%MOMM*%
%LPD*%
G01*
G04 APERTURE LIST*
G04 Aperture macros list*
%AMRoundRect*
0 Rectangle with rounded corners*
0 $1 Rounding radius*
0 $2 $3 $4 $5 $6 $7 $8 $9 X,Y pos of 4 corners*
0 Add a 4 corners polygon primitive as box body*
4,1,4,$2,$3,$4,$5,$6,$7,$8,$9,$2,$3,0*
0 Add four circle primitives for the rounded corners*
1,1,$1+$1,$2,$3*
1,1,$1+$1,$4,$5*
1,1,$1+$1,$6,$7*
1,1,$1+$1,$8,$9*
0 Add four rect primitives between the rounded corners*
20,1,$1+$1,$2,$3,$4,$5,0*
20,1,$1+$1,$4,$5,$6,$7,0*
20,1,$1+$1,$6,$7,$8,$9,0*
20,1,$1+$1,$8,$9,$2,$3,0*%
G04 Aperture macros list end*
%ADD10C,0.010000*%
%ADD11C,0.001000*%
%ADD12RoundRect,0.037500X-0.292500X-0.112500X0.292500X-0.112500X0.292500X0.112500X-0.292500X0.112500X0*%
%ADD13R,0.960000X0.970000*%
%ADD14R,0.870000X0.930000*%
%ADD15R,0.800000X0.800000*%
%ADD16R,0.650000X0.900000*%
%ADD17R,2.220000X1.240000*%
%ADD18R,0.710000X1.730000*%
%ADD19RoundRect,0.113750X-0.341250X-0.351250X0.341250X-0.351250X0.341250X0.351250X-0.341250X0.351250X0*%
%ADD20R,1.500000X0.700000*%
%ADD21R,0.800000X1.000000*%
%ADD22R,1.020000X1.040000*%
%ADD23R,1.150000X0.600000*%
%ADD24R,1.150000X0.300000*%
%ADD25RoundRect,0.033750X-0.386250X-0.101250X0.386250X-0.101250X0.386250X0.101250X-0.386250X0.101250X0*%
%ADD26RoundRect,0.033750X-0.101250X-0.386250X0.101250X-0.386250X0.101250X0.386250X-0.101250X0.386250X0*%
%ADD27R,3.500000X3.500000*%
%ADD28R,3.000000X2.500000*%
%ADD29RoundRect,0.147500X-0.457500X-0.147500X0.457500X-0.147500X0.457500X0.147500X-0.457500X0.147500X0*%
%ADD30R,1.040000X1.020000*%
%ADD31R,1.500000X0.900000*%
%ADD32R,0.900000X1.500000*%
%ADD33R,0.900000X0.900000*%
G04 APERTURE END LIST*
D10*
%TO.C,S1*%
X47155000Y-42985000D02*
X47655000Y-42985000D01*
X47655000Y-43685000D01*
X47155000Y-43685000D01*
X47155000Y-43885000D01*
X46955000Y-43885000D01*
X46955000Y-42785000D01*
X47155000Y-42785000D01*
X47155000Y-42985000D01*
G36*
X47155000Y-42985000D02*
G01*
X47655000Y-42985000D01*
X47655000Y-43685000D01*
X47155000Y-43685000D01*
X47155000Y-43885000D01*
X46955000Y-43885000D01*
X46955000Y-42785000D01*
X47155000Y-42785000D01*
X47155000Y-42985000D01*
G37*
X47155000Y-46485000D02*
X47655000Y-46485000D01*
X47655000Y-47185000D01*
X47155000Y-47185000D01*
X47155000Y-47385000D01*
X46955000Y-47385000D01*
X46955000Y-46285000D01*
X47155000Y-46285000D01*
X47155000Y-46485000D01*
G36*
X47155000Y-46485000D02*
G01*
X47655000Y-46485000D01*
X47655000Y-47185000D01*
X47155000Y-47185000D01*
X47155000Y-47385000D01*
X46955000Y-47385000D01*
X46955000Y-46285000D01*
X47155000Y-46285000D01*
X47155000Y-46485000D01*
G37*
X52105000Y-43885000D02*
X51905000Y-43885000D01*
X51905000Y-43685000D01*
X51405000Y-43685000D01*
X51405000Y-42985000D01*
X51905000Y-42985000D01*
X51905000Y-42785000D01*
X52105000Y-42785000D01*
X52105000Y-43885000D01*
G36*
X52105000Y-43885000D02*
G01*
X51905000Y-43885000D01*
X51905000Y-43685000D01*
X51405000Y-43685000D01*
X51405000Y-42985000D01*
X51905000Y-42985000D01*
X51905000Y-42785000D01*
X52105000Y-42785000D01*
X52105000Y-43885000D01*
G37*
X52105000Y-47385000D02*
X51905000Y-47385000D01*
X51905000Y-47185000D01*
X51405000Y-47185000D01*
X51405000Y-46485000D01*
X51905000Y-46485000D01*
X51905000Y-46285000D01*
X52105000Y-46285000D01*
X52105000Y-47385000D01*
G36*
X52105000Y-47385000D02*
G01*
X51905000Y-47385000D01*
X51905000Y-47185000D01*
X51405000Y-47185000D01*
X51405000Y-46485000D01*
X51905000Y-46485000D01*
X51905000Y-46285000D01*
X52105000Y-46285000D01*
X52105000Y-47385000D01*
G37*
D11*
%TO.C,MK1*%
X50150000Y-81304000D02*
X49650000Y-81304000D01*
X49650000Y-80882000D01*
X50150000Y-80882000D01*
X50150000Y-81304000D01*
G36*
X50150000Y-81304000D02*
G01*
X49650000Y-81304000D01*
X49650000Y-80882000D01*
X50150000Y-80882000D01*
X50150000Y-81304000D01*
G37*
X50150000Y-82126000D02*
X49650000Y-82126000D01*
X49650000Y-81704000D01*
X50150000Y-81704000D01*
X50150000Y-82126000D01*
G36*
X50150000Y-82126000D02*
G01*
X49650000Y-82126000D01*
X49650000Y-81704000D01*
X50150000Y-81704000D01*
X50150000Y-82126000D01*
G37*
X51050000Y-81304000D02*
X50550000Y-81304000D01*
X50550000Y-80882000D01*
X51050000Y-80882000D01*
X51050000Y-81304000D01*
G36*
X51050000Y-81304000D02*
G01*
X50550000Y-81304000D01*
X50550000Y-80882000D01*
X51050000Y-80882000D01*
X51050000Y-81304000D01*
G37*
X51950000Y-81304000D02*
X51450000Y-81304000D01*
X51450000Y-80882000D01*
X51950000Y-80882000D01*
X51950000Y-81304000D01*
G36*
X51950000Y-81304000D02*
G01*
X51450000Y-81304000D01*
X51450000Y-80882000D01*
X51950000Y-80882000D01*
X51950000Y-81304000D01*
G37*
X51950000Y-82126000D02*
X51450000Y-82126000D01*
X51450000Y-81704000D01*
X51950000Y-81704000D01*
X51950000Y-82126000D01*
G36*
X51950000Y-82126000D02*
G01*
X51450000Y-82126000D01*
X51450000Y-81704000D01*
X51950000Y-81704000D01*
X51950000Y-82126000D01*
G37*
X50750000Y-82657000D02*
X50729000Y-82659000D01*
X50705000Y-82663000D01*
X50682000Y-82668000D01*
X50659000Y-82674000D01*
X50637000Y-82681000D01*
X50614000Y-82689000D01*
X50592000Y-82698000D01*
X50571000Y-82708000D01*
X50550000Y-82719000D01*
X50530000Y-82731000D01*
X50510000Y-82744000D01*
X50490000Y-82757000D01*
X50472000Y-82772000D01*
X50454000Y-82788000D01*
X50437000Y-82804000D01*
X50421000Y-82821000D01*
X50405000Y-82839000D01*
X50390000Y-82857000D01*
X50377000Y-82877000D01*
X50364000Y-82897000D01*
X50352000Y-82917000D01*
X50341000Y-82938000D01*
X50331000Y-82959000D01*
X50322000Y-82981000D01*
X50314000Y-83004000D01*
X50307000Y-83026000D01*
X50301000Y-83049000D01*
X50296000Y-83072000D01*
X50292000Y-83096000D01*
X50290000Y-83117000D01*
X49990000Y-83117000D01*
X49993000Y-83078000D01*
X49998000Y-83040000D01*
X50005000Y-83001000D01*
X50013000Y-82963000D01*
X50024000Y-82925000D01*
X50036000Y-82887000D01*
X50051000Y-82851000D01*
X50067000Y-82815000D01*
X50084000Y-82780000D01*
X50104000Y-82746000D01*
X50125000Y-82713000D01*
X50147000Y-82680000D01*
X50172000Y-82649000D01*
X50197000Y-82620000D01*
X50224000Y-82591000D01*
X50253000Y-82564000D01*
X50282000Y-82539000D01*
X50313000Y-82514000D01*
X50346000Y-82492000D01*
X50379000Y-82471000D01*
X50413000Y-82451000D01*
X50448000Y-82434000D01*
X50484000Y-82418000D01*
X50520000Y-82403000D01*
X50558000Y-82391000D01*
X50596000Y-82380000D01*
X50634000Y-82372000D01*
X50673000Y-82365000D01*
X50711000Y-82360000D01*
X50750000Y-82357000D01*
X50750000Y-82657000D01*
G36*
X50750000Y-82657000D02*
G01*
X50729000Y-82659000D01*
X50705000Y-82663000D01*
X50682000Y-82668000D01*
X50659000Y-82674000D01*
X50637000Y-82681000D01*
X50614000Y-82689000D01*
X50592000Y-82698000D01*
X50571000Y-82708000D01*
X50550000Y-82719000D01*
X50530000Y-82731000D01*
X50510000Y-82744000D01*
X50490000Y-82757000D01*
X50472000Y-82772000D01*
X50454000Y-82788000D01*
X50437000Y-82804000D01*
X50421000Y-82821000D01*
X50405000Y-82839000D01*
X50390000Y-82857000D01*
X50377000Y-82877000D01*
X50364000Y-82897000D01*
X50352000Y-82917000D01*
X50341000Y-82938000D01*
X50331000Y-82959000D01*
X50322000Y-82981000D01*
X50314000Y-83004000D01*
X50307000Y-83026000D01*
X50301000Y-83049000D01*
X50296000Y-83072000D01*
X50292000Y-83096000D01*
X50290000Y-83117000D01*
X49990000Y-83117000D01*
X49993000Y-83078000D01*
X49998000Y-83040000D01*
X50005000Y-83001000D01*
X50013000Y-82963000D01*
X50024000Y-82925000D01*
X50036000Y-82887000D01*
X50051000Y-82851000D01*
X50067000Y-82815000D01*
X50084000Y-82780000D01*
X50104000Y-82746000D01*
X50125000Y-82713000D01*
X50147000Y-82680000D01*
X50172000Y-82649000D01*
X50197000Y-82620000D01*
X50224000Y-82591000D01*
X50253000Y-82564000D01*
X50282000Y-82539000D01*
X50313000Y-82514000D01*
X50346000Y-82492000D01*
X50379000Y-82471000D01*
X50413000Y-82451000D01*
X50448000Y-82434000D01*
X50484000Y-82418000D01*
X50520000Y-82403000D01*
X50558000Y-82391000D01*
X50596000Y-82380000D01*
X50634000Y-82372000D01*
X50673000Y-82365000D01*
X50711000Y-82360000D01*
X50750000Y-82357000D01*
X50750000Y-82657000D01*
G37*
X50292000Y-83238000D02*
X50296000Y-83262000D01*
X50301000Y-83285000D01*
X50307000Y-83308000D01*
X50314000Y-83330000D01*
X50322000Y-83353000D01*
X50331000Y-83375000D01*
X50341000Y-83396000D01*
X50352000Y-83417000D01*
X50364000Y-83437000D01*
X50377000Y-83457000D01*
X50390000Y-83477000D01*
X50405000Y-83495000D01*
X50421000Y-83513000D01*
X50437000Y-83530000D01*
X50454000Y-83546000D01*
X50472000Y-83562000D01*
X50490000Y-83577000D01*
X50510000Y-83590000D01*
X50530000Y-83603000D01*
X50550000Y-83615000D01*
X50571000Y-83626000D01*
X50592000Y-83636000D01*
X50614000Y-83645000D01*
X50637000Y-83653000D01*
X50659000Y-83660000D01*
X50682000Y-83666000D01*
X50705000Y-83671000D01*
X50729000Y-83675000D01*
X50750000Y-83677000D01*
X50750000Y-83977000D01*
X50711000Y-83974000D01*
X50673000Y-83969000D01*
X50634000Y-83962000D01*
X50596000Y-83954000D01*
X50558000Y-83943000D01*
X50520000Y-83931000D01*
X50484000Y-83916000D01*
X50448000Y-83900000D01*
X50413000Y-83883000D01*
X50379000Y-83863000D01*
X50346000Y-83842000D01*
X50313000Y-83820000D01*
X50282000Y-83795000D01*
X50253000Y-83770000D01*
X50224000Y-83743000D01*
X50197000Y-83714000D01*
X50172000Y-83685000D01*
X50147000Y-83654000D01*
X50125000Y-83621000D01*
X50104000Y-83588000D01*
X50084000Y-83554000D01*
X50067000Y-83519000D01*
X50051000Y-83483000D01*
X50036000Y-83447000D01*
X50024000Y-83409000D01*
X50013000Y-83371000D01*
X50005000Y-83333000D01*
X49998000Y-83294000D01*
X49993000Y-83256000D01*
X49990000Y-83217000D01*
X50290000Y-83217000D01*
X50292000Y-83238000D01*
G36*
X50292000Y-83238000D02*
G01*
X50296000Y-83262000D01*
X50301000Y-83285000D01*
X50307000Y-83308000D01*
X50314000Y-83330000D01*
X50322000Y-83353000D01*
X50331000Y-83375000D01*
X50341000Y-83396000D01*
X50352000Y-83417000D01*
X50364000Y-83437000D01*
X50377000Y-83457000D01*
X50390000Y-83477000D01*
X50405000Y-83495000D01*
X50421000Y-83513000D01*
X50437000Y-83530000D01*
X50454000Y-83546000D01*
X50472000Y-83562000D01*
X50490000Y-83577000D01*
X50510000Y-83590000D01*
X50530000Y-83603000D01*
X50550000Y-83615000D01*
X50571000Y-83626000D01*
X50592000Y-83636000D01*
X50614000Y-83645000D01*
X50637000Y-83653000D01*
X50659000Y-83660000D01*
X50682000Y-83666000D01*
X50705000Y-83671000D01*
X50729000Y-83675000D01*
X50750000Y-83677000D01*
X50750000Y-83977000D01*
X50711000Y-83974000D01*
X50673000Y-83969000D01*
X50634000Y-83962000D01*
X50596000Y-83954000D01*
X50558000Y-83943000D01*
X50520000Y-83931000D01*
X50484000Y-83916000D01*
X50448000Y-83900000D01*
X50413000Y-83883000D01*
X50379000Y-83863000D01*
X50346000Y-83842000D01*
X50313000Y-83820000D01*
X50282000Y-83795000D01*
X50253000Y-83770000D01*
X50224000Y-83743000D01*
X50197000Y-83714000D01*
X50172000Y-83685000D01*
X50147000Y-83654000D01*
X50125000Y-83621000D01*
X50104000Y-83588000D01*
X50084000Y-83554000D01*
X50067000Y-83519000D01*
X50051000Y-83483000D01*
X50036000Y-83447000D01*
X50024000Y-83409000D01*
X50013000Y-83371000D01*
X50005000Y-83333000D01*
X49998000Y-83294000D01*
X49993000Y-83256000D01*
X49990000Y-83217000D01*
X50290000Y-83217000D01*
X50292000Y-83238000D01*
G37*
X50889000Y-82360000D02*
X50927000Y-82365000D01*
X50966000Y-82372000D01*
X51004000Y-82380000D01*
X51042000Y-82391000D01*
X51080000Y-82403000D01*
X51116000Y-82418000D01*
X51152000Y-82434000D01*
X51187000Y-82451000D01*
X51221000Y-82471000D01*
X51254000Y-82492000D01*
X51287000Y-82514000D01*
X51318000Y-82539000D01*
X51347000Y-82564000D01*
X51376000Y-82591000D01*
X51403000Y-82620000D01*
X51428000Y-82649000D01*
X51453000Y-82680000D01*
X51475000Y-82713000D01*
X51496000Y-82746000D01*
X51516000Y-82780000D01*
X51533000Y-82815000D01*
X51549000Y-82851000D01*
X51564000Y-82887000D01*
X51576000Y-82925000D01*
X51587000Y-82963000D01*
X51595000Y-83001000D01*
X51602000Y-83040000D01*
X51607000Y-83078000D01*
X51610000Y-83117000D01*
X51310000Y-83117000D01*
X51308000Y-83096000D01*
X51304000Y-83072000D01*
X51299000Y-83049000D01*
X51293000Y-83026000D01*
X51286000Y-83004000D01*
X51278000Y-82981000D01*
X51269000Y-82959000D01*
X51259000Y-82938000D01*
X51248000Y-82917000D01*
X51236000Y-82897000D01*
X51223000Y-82877000D01*
X51210000Y-82857000D01*
X51195000Y-82839000D01*
X51179000Y-82821000D01*
X51163000Y-82804000D01*
X51146000Y-82788000D01*
X51128000Y-82772000D01*
X51110000Y-82757000D01*
X51090000Y-82744000D01*
X51070000Y-82731000D01*
X51050000Y-82719000D01*
X51029000Y-82708000D01*
X51008000Y-82698000D01*
X50986000Y-82689000D01*
X50963000Y-82681000D01*
X50941000Y-82674000D01*
X50918000Y-82668000D01*
X50895000Y-82663000D01*
X50871000Y-82659000D01*
X50850000Y-82657000D01*
X50850000Y-82357000D01*
X50889000Y-82360000D01*
G36*
X50889000Y-82360000D02*
G01*
X50927000Y-82365000D01*
X50966000Y-82372000D01*
X51004000Y-82380000D01*
X51042000Y-82391000D01*
X51080000Y-82403000D01*
X51116000Y-82418000D01*
X51152000Y-82434000D01*
X51187000Y-82451000D01*
X51221000Y-82471000D01*
X51254000Y-82492000D01*
X51287000Y-82514000D01*
X51318000Y-82539000D01*
X51347000Y-82564000D01*
X51376000Y-82591000D01*
X51403000Y-82620000D01*
X51428000Y-82649000D01*
X51453000Y-82680000D01*
X51475000Y-82713000D01*
X51496000Y-82746000D01*
X51516000Y-82780000D01*
X51533000Y-82815000D01*
X51549000Y-82851000D01*
X51564000Y-82887000D01*
X51576000Y-82925000D01*
X51587000Y-82963000D01*
X51595000Y-83001000D01*
X51602000Y-83040000D01*
X51607000Y-83078000D01*
X51610000Y-83117000D01*
X51310000Y-83117000D01*
X51308000Y-83096000D01*
X51304000Y-83072000D01*
X51299000Y-83049000D01*
X51293000Y-83026000D01*
X51286000Y-83004000D01*
X51278000Y-82981000D01*
X51269000Y-82959000D01*
X51259000Y-82938000D01*
X51248000Y-82917000D01*
X51236000Y-82897000D01*
X51223000Y-82877000D01*
X51210000Y-82857000D01*
X51195000Y-82839000D01*
X51179000Y-82821000D01*
X51163000Y-82804000D01*
X51146000Y-82788000D01*
X51128000Y-82772000D01*
X51110000Y-82757000D01*
X51090000Y-82744000D01*
X51070000Y-82731000D01*
X51050000Y-82719000D01*
X51029000Y-82708000D01*
X51008000Y-82698000D01*
X50986000Y-82689000D01*
X50963000Y-82681000D01*
X50941000Y-82674000D01*
X50918000Y-82668000D01*
X50895000Y-82663000D01*
X50871000Y-82659000D01*
X50850000Y-82657000D01*
X50850000Y-82357000D01*
X50889000Y-82360000D01*
G37*
X51607000Y-83256000D02*
X51602000Y-83294000D01*
X51595000Y-83333000D01*
X51587000Y-83371000D01*
X51576000Y-83409000D01*
X51564000Y-83447000D01*
X51549000Y-83483000D01*
X51533000Y-83519000D01*
X51516000Y-83554000D01*
X51496000Y-83588000D01*
X51475000Y-83621000D01*
X51453000Y-83654000D01*
X51428000Y-83685000D01*
X51403000Y-83714000D01*
X51376000Y-83743000D01*
X51347000Y-83770000D01*
X51318000Y-83795000D01*
X51287000Y-83820000D01*
X51254000Y-83842000D01*
X51221000Y-83863000D01*
X51187000Y-83883000D01*
X51152000Y-83900000D01*
X51116000Y-83916000D01*
X51080000Y-83931000D01*
X51042000Y-83943000D01*
X51004000Y-83954000D01*
X50966000Y-83962000D01*
X50927000Y-83969000D01*
X50889000Y-83974000D01*
X50850000Y-83977000D01*
X50850000Y-83677000D01*
X50871000Y-83675000D01*
X50895000Y-83671000D01*
X50918000Y-83666000D01*
X50941000Y-83660000D01*
X50963000Y-83653000D01*
X50986000Y-83645000D01*
X51008000Y-83636000D01*
X51029000Y-83626000D01*
X51050000Y-83615000D01*
X51070000Y-83603000D01*
X51090000Y-83590000D01*
X51110000Y-83577000D01*
X51128000Y-83562000D01*
X51146000Y-83546000D01*
X51163000Y-83530000D01*
X51179000Y-83513000D01*
X51195000Y-83495000D01*
X51210000Y-83477000D01*
X51223000Y-83457000D01*
X51236000Y-83437000D01*
X51248000Y-83417000D01*
X51259000Y-83396000D01*
X51269000Y-83375000D01*
X51278000Y-83353000D01*
X51286000Y-83330000D01*
X51293000Y-83308000D01*
X51299000Y-83285000D01*
X51304000Y-83262000D01*
X51308000Y-83238000D01*
X51310000Y-83217000D01*
X51610000Y-83217000D01*
X51607000Y-83256000D01*
G36*
X51607000Y-83256000D02*
G01*
X51602000Y-83294000D01*
X51595000Y-83333000D01*
X51587000Y-83371000D01*
X51576000Y-83409000D01*
X51564000Y-83447000D01*
X51549000Y-83483000D01*
X51533000Y-83519000D01*
X51516000Y-83554000D01*
X51496000Y-83588000D01*
X51475000Y-83621000D01*
X51453000Y-83654000D01*
X51428000Y-83685000D01*
X51403000Y-83714000D01*
X51376000Y-83743000D01*
X51347000Y-83770000D01*
X51318000Y-83795000D01*
X51287000Y-83820000D01*
X51254000Y-83842000D01*
X51221000Y-83863000D01*
X51187000Y-83883000D01*
X51152000Y-83900000D01*
X51116000Y-83916000D01*
X51080000Y-83931000D01*
X51042000Y-83943000D01*
X51004000Y-83954000D01*
X50966000Y-83962000D01*
X50927000Y-83969000D01*
X50889000Y-83974000D01*
X50850000Y-83977000D01*
X50850000Y-83677000D01*
X50871000Y-83675000D01*
X50895000Y-83671000D01*
X50918000Y-83666000D01*
X50941000Y-83660000D01*
X50963000Y-83653000D01*
X50986000Y-83645000D01*
X51008000Y-83636000D01*
X51029000Y-83626000D01*
X51050000Y-83615000D01*
X51070000Y-83603000D01*
X51090000Y-83590000D01*
X51110000Y-83577000D01*
X51128000Y-83562000D01*
X51146000Y-83546000D01*
X51163000Y-83530000D01*
X51179000Y-83513000D01*
X51195000Y-83495000D01*
X51210000Y-83477000D01*
X51223000Y-83457000D01*
X51236000Y-83437000D01*
X51248000Y-83417000D01*
X51259000Y-83396000D01*
X51269000Y-83375000D01*
X51278000Y-83353000D01*
X51286000Y-83330000D01*
X51293000Y-83308000D01*
X51299000Y-83285000D01*
X51304000Y-83262000D01*
X51308000Y-83238000D01*
X51310000Y-83217000D01*
X51610000Y-83217000D01*
X51607000Y-83256000D01*
G37*
D10*
%TO.C,U3*%
X34241135Y-85923865D02*
X33541135Y-85923865D01*
X33541135Y-85223865D01*
X34241135Y-85223865D01*
X34241135Y-85923865D01*
G36*
X34241135Y-85923865D02*
G01*
X33541135Y-85923865D01*
X33541135Y-85223865D01*
X34241135Y-85223865D01*
X34241135Y-85923865D01*
G37*
%TD*%
D12*
%TO.C,U1*%
X37330000Y-49665000D03*
X37330000Y-50165000D03*
X37330000Y-50665000D03*
X38800000Y-50665000D03*
X38800000Y-49665000D03*
%TD*%
D13*
%TO.C,C8*%
X43300000Y-92710000D03*
X41790000Y-92710000D03*
%TD*%
D14*
%TO.C,R5*%
X53830000Y-81819000D03*
X55390000Y-81819000D03*
%TD*%
D15*
%TO.C,C2*%
X33565000Y-59510000D03*
X35065000Y-59510000D03*
%TD*%
D16*
%TO.C,R3*%
X40715000Y-44820000D03*
X42165000Y-44820000D03*
%TD*%
D17*
%TO.C,L1*%
X39370000Y-90445000D03*
X39370000Y-88265000D03*
%TD*%
D18*
%TO.C,R7*%
X41450000Y-83185000D03*
X42370000Y-83185000D03*
%TD*%
D19*
%TO.C,D2*%
X40270000Y-81100000D03*
X38750000Y-81100000D03*
%TD*%
D15*
%TO.C,C6*%
X53225000Y-84359000D03*
X54725000Y-84359000D03*
%TD*%
D20*
%TO.C,U4*%
X56670000Y-42255000D03*
X56670000Y-39255000D03*
X56670000Y-37755000D03*
D21*
X57455000Y-43655000D03*
X59385000Y-43655000D03*
X59385000Y-36355000D03*
X57455000Y-36355000D03*
%TD*%
D22*
%TO.C,C7*%
X42545000Y-85725000D03*
X42545000Y-87293000D03*
%TD*%
D15*
%TO.C,C4*%
X33565000Y-63320000D03*
X35065000Y-63320000D03*
%TD*%
D23*
%TO.C,J2*%
X38295000Y-39168250D03*
X38295000Y-39968250D03*
D24*
X38295000Y-41118250D03*
X38295000Y-42118250D03*
X38295000Y-42618250D03*
X38295000Y-43618250D03*
D23*
X38295000Y-45568250D03*
X38295000Y-44768250D03*
D24*
X38295000Y-44118250D03*
X38295000Y-43118250D03*
X38295000Y-41618250D03*
X38295000Y-40618250D03*
%TD*%
D15*
%TO.C,1uCapacitor1*%
X37985000Y-83655000D03*
X39485000Y-83655000D03*
%TD*%
%TO.C,C3*%
X33565000Y-61415000D03*
X35065000Y-61415000D03*
%TD*%
D25*
%TO.C,U3*%
X32456135Y-84823865D03*
X32456135Y-85323865D03*
X32456135Y-85823865D03*
X32456135Y-86323865D03*
D26*
X33141135Y-87008865D03*
X33641135Y-87008865D03*
X34141135Y-87008865D03*
X34641135Y-87008865D03*
D25*
X35326135Y-86323865D03*
X35326135Y-85823865D03*
X35326135Y-85323865D03*
X35326135Y-84823865D03*
D26*
X34641135Y-84138865D03*
X34141135Y-84138865D03*
X33641135Y-84138865D03*
X33141135Y-84138865D03*
%TD*%
D27*
%TO.C,LS1*%
X57050000Y-108485000D03*
X44550000Y-108485000D03*
D28*
X46300000Y-95485000D03*
X55300000Y-95485000D03*
%TD*%
D15*
%TO.C,C5*%
X33565000Y-65225000D03*
X35065000Y-65225000D03*
%TD*%
D13*
%TO.C,10ucapaitor1*%
X35041135Y-89383865D03*
X36551135Y-89383865D03*
%TD*%
D16*
%TO.C,R1*%
X41185000Y-39370000D03*
X42635000Y-39370000D03*
%TD*%
%TO.C,R2*%
X40064000Y-113030000D03*
X41514000Y-113030000D03*
%TD*%
D29*
%TO.C,U5*%
X41910000Y-88900000D03*
X41910000Y-89850000D03*
X41910000Y-90800000D03*
X44420000Y-90800000D03*
X44420000Y-88900000D03*
%TD*%
%TO.C,U2*%
X35089000Y-113350000D03*
X35089000Y-114300000D03*
X35089000Y-115250000D03*
X37599000Y-115250000D03*
X37599000Y-113350000D03*
%TD*%
D30*
%TO.C,C1*%
X40640000Y-116840000D03*
X42208000Y-116840000D03*
%TD*%
D31*
%TO.C,X1*%
X37605000Y-60780000D03*
X37605000Y-62050000D03*
X37605000Y-63320000D03*
X37605000Y-64590000D03*
X37605000Y-65860000D03*
X37605000Y-67130000D03*
X37605000Y-68400000D03*
X37605000Y-69670000D03*
X37605000Y-70940000D03*
X37605000Y-72210000D03*
X37605000Y-73480000D03*
X37605000Y-74750000D03*
X37605000Y-76020000D03*
X37605000Y-77290000D03*
D32*
X39370000Y-78540000D03*
X40640000Y-78540000D03*
X41910000Y-78540000D03*
X43180000Y-78540000D03*
X44450000Y-78540000D03*
X45720000Y-78540000D03*
X46990000Y-78540000D03*
X48260000Y-78540000D03*
X49530000Y-78540000D03*
X50800000Y-78540000D03*
X52070000Y-78540000D03*
X53340000Y-78540000D03*
D31*
X55105000Y-77290000D03*
X55105000Y-76020000D03*
X55105000Y-74750000D03*
X55105000Y-73480000D03*
X55105000Y-72210000D03*
X55105000Y-70940000D03*
X55105000Y-69670000D03*
X55105000Y-68400000D03*
X55105000Y-67130000D03*
X55105000Y-65860000D03*
X55105000Y-64590000D03*
X55105000Y-63320000D03*
X55105000Y-62050000D03*
X55105000Y-60780000D03*
D33*
X44855000Y-68500000D03*
X44855000Y-67100000D03*
X43455000Y-67100000D03*
X43455000Y-68500000D03*
X43455000Y-69900000D03*
X44855000Y-69900000D03*
X46255000Y-69900000D03*
X46255000Y-68500000D03*
X46255000Y-67100000D03*
%TD*%
M02*
